<svg width="20" height="21" viewBox="0 0 20 21" fill="none" xmlns="http://www.w3.org/2000/svg">
<path d="M1.66619 10.8954H16.3212L11.9104 15.3063C11.8308 15.3831 11.7673 15.4751 11.7236 15.5768C11.6799 15.6784 11.6569 15.7878 11.656 15.8984C11.655 16.0091 11.6761 16.1188 11.718 16.2212C11.7599 16.3236 11.8218 16.4167 11.9 16.4949C11.9783 16.5732 12.0713 16.6351 12.1737 16.677C12.2761 16.7189 12.3859 16.7399 12.4965 16.739C12.6072 16.738 12.7165 16.715 12.8182 16.6714C12.9199 16.6277 13.0118 16.5642 13.0887 16.4846L18.922 10.6513C19.0783 10.495 19.166 10.2831 19.166 10.0621C19.166 9.84114 19.0783 9.62921 18.922 9.47294L13.0887 3.63961C12.9315 3.48781 12.721 3.40381 12.5025 3.40571C12.284 3.40761 12.075 3.49525 11.9205 3.64976C11.766 3.80427 11.6784 4.01328 11.6765 4.23177C11.6746 4.45027 11.7586 4.66077 11.9104 4.81794L16.3212 9.22877H1.66619C1.44518 9.22877 1.23322 9.31657 1.07694 9.47285C0.920658 9.62913 0.832861 9.84109 0.832861 10.0621C0.832861 10.2831 0.920658 10.4951 1.07694 10.6514C1.23322 10.8076 1.44518 10.8954 1.66619 10.8954Z" fill="white"/>
</svg>
