<?xml version="1.0" encoding="utf-8"?>
<!-- Generator: Adobe Illustrator 27.2.0, SVG Export Plug-In . SVG Version: 6.00 Build 0)  -->
<svg version="1.1" id="Capa_1" xmlns="http://www.w3.org/2000/svg" xmlns:xlink="http://www.w3.org/1999/xlink" x="0px" y="0px"
	 viewBox="0 0 168 41" style="enable-background:new 0 0 168 41;" xml:space="preserve">
<style type="text/css">
	.st0{fill:#00296D;}
	.st1{fill:none;}
</style>
<g>
	<path class="st0" d="M38.7,40.7L18.4,20.3L38.7,0L59,20.3L38.7,40.7z M19.6,20.3l19.2,19.2l19.2-19.2L38.7,1.2L19.6,20.3z"/>
	<g>
		<path class="st0" d="M38.7,7.8c-6.9,0-12.5,5.6-12.5,12.5c0,6.9,5.6,12.5,12.5,12.5c6.9,0,12.5-5.6,12.5-12.5
			C51.3,13.4,45.6,7.8,38.7,7.8z M42.4,31.4c0-0.4,0.1-0.8,0.1-1.2c0-0.8,0-1.7,0-2.5c0-0.6,0-1.2,0.5-1.8c0.4-0.4,0.7-0.9,0.9-1.4
			c0.3-0.9,0.5-1.9,0.7-2.9c0.1-0.3,0.1-0.6,0.1-0.9l-0.1,0c-0.7,0.6-1.4,1.2-2.1,1.8c-0.9-0.4-1.2-1.4-2.2-1.6
			c-0.9-0.2-1.7-0.5-2.6-0.5c0.1,0.2,0.2,0.4,0.4,0.6c0.9,1.1,1.8,2.2,2.2,3.6c0.1,0.5,0.3,1,0.9,1.2C41,25.9,40.9,26,40.8,26
			c-0.5,0.1-0.5,0.5-0.5,0.9c0,1,0.1,1.9,0.1,2.9c0,0.1,0,0.2,0,0.4c0,0-0.1,0-0.1,0c-0.2-1.5-0.3-2.9-0.5-4.4h-1
			c0.4-0.3,0.8-0.5,1.1-0.7c0.3-0.2,0.3-0.4,0.1-0.7c-0.9-1.3-1.7-2.6-2.6-3.8c-0.3-0.5-0.7-0.8-1.3-0.9c-0.4-0.1-0.8-0.3-1.2-0.4
			c0,0-0.1-0.1-0.1-0.1c0.7-0.3,0.9-0.9,0.7-1.8c0.3,0.3,0.5,0.4,0.7,0.6c0.5,0.7,1.2,0.8,1.9,0.5c0.1,0,0.3-0.1,0.4-0.1
			c0.7-0.3,0.8-0.5,0.9-1.2c0-0.4-0.1-0.6-0.4-0.7c-1.3-0.5-2.5-1.1-3.8-1.6c-0.5-0.2-0.9-0.1-1.2,0.3c-0.9,1-1.6,2.3-2.3,3.4
			c-0.5,0.8-0.3,1.5,0.2,2.2c1.3,1.7,2.5,3.5,3.7,5.2c0.1,0.2,0.1,0.4,0.1,0.6c-0.2,1.6-0.5,3.2-0.7,4.7c0,0.1,0,0.1,0,0.2
			c-4.7-1.5-8.1-5.9-8.1-11.1c0-6.4,5.2-11.7,11.7-11.7c6.4,0,11.7,5.2,11.7,11.7C50.4,25.5,47.1,29.8,42.4,31.4z"/>
		<path class="st0" d="M44.1,17.1c-0.1,0.2-0.2,0.4-0.3,0.5c-0.8,1-1.5,1.9-2.3,2.9c-0.3,0.3-0.5,0.4-0.9,0.2
			c-0.4-0.2-0.7-0.3-1.1-0.5c-0.4-0.2-0.5-0.6-0.3-1c0.8-1.2,1.7-2.4,2.5-3.6c0.3-0.4,0.7-0.4,1-0.1c0.4,0.4,0.8,0.7,1.1,1.1
			C43.9,16.8,44,16.9,44.1,17.1z"/>
		<path class="st0" d="M42.5,22.3c-0.1-0.1-0.2-0.1-0.3-0.2c-1-1-1.1-0.8-0.2-1.9c0.7-0.8,1.4-1.7,2.1-2.6c0.2-0.2,0.4-0.2,0.6-0.1
			c0.4,0.4,0.8,0.7,1.1,1.1c0.1,0.1,0,0.4-0.1,0.5c-1,1-1.9,1.9-2.9,2.8C42.7,22.2,42.6,22.2,42.5,22.3z"/>
		<path class="st0" d="M39.6,17.9c0-0.3,0.1-0.6,0.1-0.9c0.1-0.5,0.1-0.6-0.4-0.8c-0.3-0.1-0.6-0.3-0.9-0.4
			c-0.2-0.1-0.3-0.2-0.2-0.5c0.4-0.6,0.8-1.3,1.2-1.9c0.2-0.4,0.6-0.5,1-0.2c0.5,0.3,0.9,0.5,1.4,0.8c0.3,0.2,0.4,0.5,0.2,0.9
			c-0.6,1.1-1.2,2-2,2.9c-0.1,0.1-0.1,0.1-0.2,0.1C39.7,17.9,39.6,17.9,39.6,17.9z"/>
		<path class="st0" d="M35.3,14.3c0.5-0.8,1-1.6,1.6-2.3c0.2-0.3,0.5-0.3,0.8-0.1c0.5,0.3,0.9,0.6,1.3,0.9c0.3,0.2,0.3,0.4,0.1,0.6
			c-0.4,0.6-0.7,1.2-1.2,1.8c-0.1,0.1-0.4,0.3-0.5,0.3c-0.7-0.3-1.3-0.6-1.9-0.9C35.4,14.5,35.4,14.4,35.3,14.3z"/>
		<path class="st0" d="M39.4,18.4c-0.4,0.5-0.8,1-1.3,1.5c-0.7-0.2-1.3-0.6-1.8-1.1c-0.1-0.1,0-0.2,0-0.4c0.1,0,0.3,0,0.4,0.1
			c0.2,0.4,0.5,0.4,0.8,0.3C38.1,18.7,38.7,18.5,39.4,18.4C39.4,18.4,39.4,18.4,39.4,18.4z"/>
	</g>
</g>
<g>
	<g>
		<path class="st0" d="M63.7,16c0-1.3,0.6-1.9,1.9-1.9h3c1.3,0,1.9,0.6,1.9,1.9v0.5h-2.4v-0.1c0-0.3-0.1-0.4-0.4-0.4h-1.3
			c-0.3,0-0.4,0.1-0.4,0.4v2c0,0.3,0.1,0.4,0.4,0.4h1.3c0.3,0,0.4-0.1,0.4-0.4v-0.1H67v-1.4h3.5v1.7c0,1.3-0.6,1.9-1.9,1.9h-3
			c-1.3,0-1.9-0.6-1.9-1.9V16z"/>
		<path class="st0" d="M76.7,15.6v4.9h-1.8L74.7,20c-0.2,0.2-0.4,0.3-0.6,0.4c-0.2,0.1-0.5,0.1-0.9,0.1h-0.3c-1.2,0-1.7-0.5-1.7-1.7
			v-3.2h2.2v2.8c0,0.3,0.1,0.3,0.3,0.3h0.3c0.2,0,0.4,0,0.5-0.1l0.1-0.1v-2.8H76.7z"/>
		<path class="st0" d="M81.2,15.6c1.2,0,1.7,0.5,1.7,1.7v1h-3.4v0.2c0,0.3,0.1,0.3,0.3,0.3h0.7c0.2,0,0.3-0.1,0.3-0.3v0h2.1V19
			c0,1.1-0.5,1.5-1.5,1.5H79c-1.2,0-1.7-0.5-1.7-1.7v-1.5c0-1.2,0.5-1.7,1.7-1.7H81.2z M79.5,17.3h1.3v-0.1c0-0.3-0.1-0.3-0.3-0.3
			h-0.6c-0.3,0-0.3,0.1-0.3,0.3V17.3z"/>
		<path class="st0" d="M87.4,15.6v2.1h-1c-0.2,0-0.4,0-0.5,0.1l-0.1,0.1v2.6h-2.2v-4.9h1.6l0.2,0.6c0.3-0.3,0.5-0.4,0.7-0.5
			s0.5-0.1,1-0.1H87.4z"/>
		<path class="st0" d="M91.6,15.6v2.1h-1c-0.2,0-0.4,0-0.5,0.1L90,17.9v2.6h-2.2v-4.9h1.6l0.2,0.6c0.3-0.3,0.5-0.4,0.7-0.5
			c0.2-0.1,0.5-0.1,1-0.1H91.6z"/>
		<path class="st0" d="M95.9,15.6c1.2,0,1.7,0.5,1.7,1.7v1h-3.4v0.2c0,0.3,0.1,0.3,0.3,0.3h0.7c0.2,0,0.3-0.1,0.3-0.3v0h2.1V19
			c0,1.1-0.5,1.5-1.5,1.5h-2.4c-1.2,0-1.7-0.5-1.7-1.7v-1.5c0-1.2,0.5-1.7,1.7-1.7H95.9z M94.2,17.3h1.3v-0.1c0-0.3-0.1-0.3-0.3-0.3
			h-0.6c-0.3,0-0.3,0.1-0.3,0.3V17.3z"/>
		<path class="st0" d="M102.1,15.6v2.1h-1c-0.2,0-0.4,0-0.5,0.1l-0.1,0.1v2.6h-2.2v-4.9h1.6l0.2,0.6c0.3-0.3,0.5-0.4,0.7-0.5
			c0.2-0.1,0.5-0.1,1-0.1H102.1z"/>
		<path class="st0" d="M107.9,14.1c1.3,0,1.9,0.6,1.9,1.9v1.6c0,0.9-0.4,1.3-1.3,1.3h-1.1c-0.4,0-0.7-0.1-0.9-0.4
			c-0.2,0.2-0.4,0.3-0.6,0.3c-0.2,0.1-0.4,0.1-0.7,0.1H105c-0.8,0-1.1-0.4-1-1.2l0.2-1c0.1-0.8,0.5-1.1,1.3-1.1h0.3
			c0.3,0,0.5,0,0.6,0.1c0.1,0,0.3,0.1,0.4,0.3l0.2-0.4h1.2l-0.3,2c0,0.1,0,0.2,0.1,0.2h0.3c0.3,0,0.3-0.1,0.3-0.3v-1.5
			c0-0.7-0.2-0.9-0.9-0.9h-3.2c-0.7,0-0.9,0.2-0.9,0.9v2.4c0,0.7,0.2,0.9,0.9,0.9h4.7v1.1h-4.8c-1.3,0-1.9-0.6-1.9-1.9V16
			c0-1.3,0.6-1.9,1.9-1.9H107.9z M106.4,17.6l0.1-0.6l-0.1-0.1c-0.1-0.1-0.2-0.1-0.3-0.1h-0.2c-0.2,0-0.2,0-0.3,0.2l-0.1,0.5
			c0,0.2,0,0.2,0.2,0.2h0.2C106.1,17.8,106.2,17.7,106.4,17.6L106.4,17.6z"/>
		<path class="st0" d="M117.8,14.1h2.4l-2.6,6.3h-2.3l-2.6-6.3h2.6l1.2,3.5L117.8,14.1z"/>
		<path class="st0" d="M123.4,15.6c1.2,0,1.7,0.5,1.7,1.7v3.2h-1.8l-0.1-0.4c-0.2,0.2-0.4,0.3-0.6,0.3c-0.2,0.1-0.5,0.1-0.9,0.1h-1
			c-0.8,0-1.2-0.4-1.2-1.2v-0.5c0-0.8,0.4-1.2,1.2-1.2h2.2v-0.3c0-0.3-0.1-0.3-0.3-0.3h-0.4c-0.2,0-0.3,0.1-0.3,0.3v0.1h-2.1v-0.3
			c0-1.1,0.5-1.5,1.5-1.5H123.4z M122.4,19.2c0.2,0,0.3,0,0.4-0.1l0.1-0.1v-0.4h-1c-0.2,0-0.2,0-0.2,0.2V19c0,0.2,0,0.2,0.2,0.2
			H122.4z"/>
		<path class="st0" d="M125.9,20.5v-6.3h2.2v6.3H125.9z"/>
		<path class="st0" d="M128.9,15.3v-1.2h2.2v1.2H128.9z M128.9,20.5v-4.9h2.2v4.9H128.9z"/>
		<path class="st0" d="M135.7,15.6c1.2,0,1.7,0.5,1.7,1.7v1H134v0.2c0,0.3,0.1,0.3,0.3,0.3h0.7c0.2,0,0.3-0.1,0.3-0.3v0h2.1V19
			c0,1.1-0.5,1.5-1.5,1.5h-2.4c-1.2,0-1.7-0.5-1.7-1.7v-1.5c0-1.2,0.5-1.7,1.7-1.7H135.7z M134,17.3h1.3v-0.1c0-0.3-0.1-0.3-0.3-0.3
			h-0.6c-0.3,0-0.3,0.1-0.3,0.3V17.3z"/>
		<path class="st0" d="M141.9,15.6c1.2,0,1.7,0.5,1.7,1.7v3.2h-2.2v-2.8c0-0.3-0.1-0.3-0.3-0.3h-0.3c-0.2,0-0.4,0-0.5,0.1l-0.1,0.1
			v2.8H138v-4.9h1.8l0.2,0.5c0.2-0.2,0.4-0.3,0.7-0.4c0.2-0.1,0.5-0.1,0.9-0.1H141.9z"/>
		<path class="st0" d="M148.5,17.3h-1.4v1.2c0,0.2,0.1,0.3,0.3,0.3h1.1v1.7h-2.1c-1,0-1.5-0.5-1.5-1.5v-1.7H144v-1.7h0.8l0.4-1.1
			h1.8v1.1h1.4V17.3z"/>
		<path class="st0" d="M152.8,15.6c1.2,0,1.7,0.5,1.7,1.7v1h-3.4v0.2c0,0.3,0.1,0.3,0.3,0.3h0.7c0.2,0,0.3-0.1,0.3-0.3v0h2.1V19
			c0,1.1-0.5,1.5-1.5,1.5h-2.4c-1.2,0-1.7-0.5-1.7-1.7v-1.5c0-1.2,0.5-1.7,1.7-1.7H152.8z M151.2,17.3h1.3v-0.1
			c0-0.3-0.1-0.3-0.3-0.3h-0.6c-0.3,0-0.3,0.1-0.3,0.3V17.3z"/>
	</g>
	<g>
		<path class="st0" d="M72.4,26.8L71.6,24v2.8H71v-3.9h0.8l0.6,2.3v-2.3H73v3.9H72.4z"/>
		<path class="st0" d="M75.9,22.9l0.6,3.9h-0.6l-0.1-0.7h-0.8L75,26.8h-0.6l0.6-3.9H75.9z M75.4,23.6l-0.3,2h0.6L75.4,23.6z"/>
		<path class="st0" d="M79.9,26.8h-0.6c0-0.1-0.1-0.3-0.1-0.5v-0.6c0-0.2,0-0.3-0.1-0.4c-0.1-0.1-0.2-0.1-0.3-0.1h-0.2v1.6h-0.6
			v-3.9h0.9c0.3,0,0.6,0.1,0.7,0.2c0.1,0.1,0.2,0.4,0.2,0.7v0.3c0,0.4-0.1,0.7-0.4,0.8c0.3,0.1,0.4,0.4,0.4,0.8v0.6
			C79.8,26.6,79.8,26.7,79.9,26.8z M78.9,23.5h-0.3v1.2h0.2c0.1,0,0.2,0,0.3-0.1c0.1-0.1,0.1-0.2,0.1-0.3v-0.4
			C79.2,23.6,79.1,23.5,78.9,23.5z"/>
		<path class="st0" d="M81.3,25.2v-0.6h1.1v0.6H81.3z"/>
		<path class="st0" d="M85.3,22.9l0.6,3.9h-0.6l-0.1-0.7h-0.8l-0.1,0.7h-0.6l0.6-3.9H85.3z M84.8,23.6l-0.3,2h0.6L84.8,23.6z"/>
		<path class="st0" d="M88.6,26.8L87.8,24v2.8h-0.6v-3.9H88l0.6,2.3v-2.3h0.6v3.9H88.6z"/>
		<path class="st0" d="M90.7,25.9v-2c0-0.3,0.1-0.6,0.2-0.7c0.2-0.2,0.4-0.3,0.7-0.3c0.3,0,0.5,0.1,0.7,0.3c0.2,0.2,0.2,0.4,0.2,0.7
			v2c0,0.3-0.1,0.6-0.2,0.7c-0.2,0.2-0.4,0.3-0.7,0.3c-0.3,0-0.5-0.1-0.7-0.3C90.8,26.4,90.7,26.2,90.7,25.9z M91.4,23.8v2.1
			c0,0.3,0.1,0.4,0.3,0.4s0.3-0.1,0.3-0.4v-2.1c0-0.3-0.1-0.4-0.3-0.4S91.4,23.6,91.4,23.8z"/>
		<path class="st0" d="M95.4,26.8L94.7,24v2.8h-0.6v-3.9h0.8l0.6,2.3v-2.3h0.6v3.9H95.4z"/>
		<path class="st0" d="M100.5,25.2v-0.6h0.9v1.2c0,0.3-0.1,0.6-0.2,0.7c-0.2,0.2-0.4,0.3-0.7,0.3s-0.5-0.1-0.7-0.3
			c-0.2-0.2-0.2-0.4-0.2-0.7v-2c0-0.3,0.1-0.6,0.2-0.7c0.2-0.2,0.4-0.3,0.7-0.3s0.5,0.1,0.7,0.3c0.2,0.2,0.2,0.4,0.2,0.7v0.4h-0.6
			v-0.4c0-0.3-0.1-0.4-0.3-0.4s-0.3,0.1-0.3,0.4v2.1c0,0.3,0.1,0.4,0.3,0.4s0.3-0.1,0.3-0.4v-0.7H100.5z"/>
		<path class="st0" d="M104.8,26.8h-0.6c0-0.1-0.1-0.3-0.1-0.5v-0.6c0-0.2,0-0.3-0.1-0.4c-0.1-0.1-0.2-0.1-0.3-0.1h-0.2v1.6h-0.6
			v-3.9h0.9c0.3,0,0.6,0.1,0.7,0.2c0.1,0.1,0.2,0.4,0.2,0.7v0.3c0,0.4-0.1,0.7-0.4,0.8c0.3,0.1,0.4,0.4,0.4,0.8v0.6
			C104.8,26.6,104.8,26.7,104.8,26.8z M103.8,23.5h-0.3v1.2h0.2c0.1,0,0.2,0,0.3-0.1c0.1-0.1,0.1-0.2,0.1-0.3v-0.4
			C104.1,23.6,104,23.5,103.8,23.5z"/>
		<path class="st0" d="M106.2,25.9v-2c0-0.3,0.1-0.6,0.2-0.7c0.2-0.2,0.4-0.3,0.7-0.3c0.3,0,0.5,0.1,0.7,0.3
			c0.2,0.2,0.2,0.4,0.2,0.7v2c0,0.3-0.1,0.6-0.2,0.7c-0.2,0.2-0.4,0.3-0.7,0.3c-0.3,0-0.5-0.1-0.7-0.3
			C106.3,26.4,106.2,26.2,106.2,25.9z M106.8,23.8v2.1c0,0.3,0.1,0.4,0.3,0.4s0.3-0.1,0.3-0.4v-2.1c0-0.3-0.1-0.4-0.3-0.4
			S106.8,23.6,106.8,23.8z"/>
		<path class="st0" d="M109.6,22.9h0.6v3c0,0.3,0.1,0.4,0.3,0.4c0.2,0,0.3-0.1,0.3-0.4v-3h0.6v3c0,0.3-0.1,0.6-0.2,0.7
			c-0.2,0.2-0.4,0.3-0.7,0.3s-0.5-0.1-0.7-0.3c-0.2-0.2-0.2-0.4-0.2-0.7V22.9z"/>
		<path class="st0" d="M113.8,22.9c0.6,0,0.9,0.3,0.9,1v0.5c0,0.6-0.3,1-0.9,1h-0.3v1.5h-0.6v-3.9H113.8z M113.8,23.5h-0.3v1.3h0.3
			c0.1,0,0.2,0,0.2-0.1c0.1-0.1,0.1-0.2,0.1-0.3v-0.6c0-0.1,0-0.2-0.1-0.3C114,23.5,113.9,23.5,113.8,23.5z"/>
		<path class="st0" d="M118.1,26.8v-3.9h0.6v3.9H118.1z"/>
		<path class="st0" d="M120.3,26.8v-3.9h1c0.6,0,0.9,0.3,0.9,1v2c0,0.6-0.3,1-0.9,1H120.3z M121.3,23.5h-0.4v2.8h0.4
			c0.2,0,0.3-0.1,0.3-0.4v-2C121.6,23.6,121.5,23.5,121.3,23.5z"/>
		<path class="st0" d="M123.7,24.1h0.6v0.6h-0.6V24.1z M123.7,26.2h0.6v0.6h-0.6V26.2z"/>
		<path class="st0" d="M127.8,25.6h0.6v0.4c0,0.3,0.1,0.4,0.3,0.4c0.2,0,0.3-0.1,0.3-0.4v-0.9c0-0.3-0.1-0.4-0.3-0.4
			c-0.2,0-0.3,0.1-0.3,0.4v0.1h-0.6l0.1-2.3h1.6v0.6h-1.1l-0.1,0.9c0.1-0.2,0.3-0.3,0.5-0.3c0.5,0,0.7,0.3,0.7,0.9v0.9
			c0,0.3-0.1,0.6-0.2,0.7c-0.2,0.2-0.4,0.3-0.7,0.3c-0.3,0-0.5-0.1-0.7-0.3c-0.2-0.2-0.2-0.4-0.2-0.7V25.6z"/>
		<path class="st0" d="M133,23.9v2c0,0.7-0.3,1-0.9,1c-0.3,0-0.5-0.1-0.7-0.3c-0.2-0.2-0.2-0.4-0.2-0.7v-0.1h0.6v0.1
			c0,0.3,0.1,0.4,0.3,0.4c0.1,0,0.2,0,0.3-0.1c0.1-0.1,0.1-0.2,0.1-0.4v-0.7c-0.1,0.2-0.3,0.3-0.6,0.3c-0.5,0-0.7-0.3-0.7-0.9v-0.7
			c0-0.3,0.1-0.6,0.2-0.7c0.2-0.2,0.4-0.3,0.7-0.3c0.3,0,0.5,0.1,0.7,0.3C132.9,23.3,133,23.5,133,23.9z M132,24.9
			c0.2,0,0.3-0.1,0.3-0.4v-0.7c0-0.3-0.1-0.4-0.3-0.4c-0.2,0-0.3,0.1-0.3,0.4v0.7C131.7,24.8,131.8,24.9,132,24.9z"/>
		<path class="st0" d="M135.7,24.1v-0.2c0-0.2,0-0.3-0.1-0.3s-0.1-0.1-0.2-0.1c-0.2,0-0.3,0.1-0.3,0.4v0.3h-0.6v-0.2
			c0-0.3,0.1-0.6,0.2-0.7c0.2-0.2,0.4-0.3,0.7-0.3s0.5,0.1,0.7,0.3c0.2,0.2,0.2,0.4,0.2,0.7V24c0,0.4-0.1,0.7-0.4,0.8
			c0.3,0.1,0.4,0.4,0.4,0.8v0.3c0,0.3-0.1,0.6-0.2,0.7c-0.2,0.2-0.4,0.3-0.7,0.3s-0.5-0.1-0.7-0.3c-0.2-0.2-0.2-0.4-0.2-0.7v-0.3
			h0.6v0.4c0,0.3,0.1,0.4,0.3,0.4c0.1,0,0.2,0,0.2-0.1c0.1-0.1,0.1-0.2,0.1-0.3v-0.3c0-0.2,0-0.3-0.1-0.4c-0.1-0.1-0.2-0.1-0.3-0.1
			h-0.2v-0.6h0.2c0.1,0,0.2,0,0.3-0.1C135.6,24.3,135.7,24.2,135.7,24.1z"/>
		<path class="st0" d="M137.8,25.2v-0.6h1.1v0.6H137.8z"/>
		<path class="st0" d="M140.8,23.8v-0.4c0.2,0,0.4,0,0.5-0.1c0.1-0.1,0.2-0.2,0.2-0.4h0.4v3.9h-0.6v-3H140.8z"/>
		<path class="st0" d="M143.6,26.1v-0.6l1.1-2.6h0.7v2.6h0.3v0.6h-0.3v0.7h-0.6v-0.7H143.6z M144.2,25.6h0.6v-1.5L144.2,25.6z"/>
	</g>
</g>
<rect class="st1" width="168" height="41"/>
</svg>
