<?xml version="1.0" encoding="UTF-8"?><svg id="Capa_1" xmlns="http://www.w3.org/2000/svg" viewBox="0 0 116.66 47"><defs><style>.cls-1{fill:#005855;}.cls-2{fill:#b8c46c;}.cls-3{fill:#429a93;}.cls-4{fill:#3bbfd1;}</style></defs><path class="cls-4" d="m0,4.63c.21.17.41.35.61.52-.26-.24-.47-.42-.6-.52h0Z"/><g><g><path class="cls-3" d="m54.79,35.64h-7.85c.22.83.94,1.57,2.2,1.68.83.07,1.72-.28,2.07-.83h3.51c-.7,2.49-2.95,3.82-5.54,3.82-3.73,0-5.65-2.73-5.65-5.78,0-3.27,2.36-5.78,5.72-5.78,3.64,0,5.98,2.92,5.54,6.89Zm-7.81-2.51h4.47c-.31-.92-1.16-1.42-2.23-1.42s-1.94.55-2.25,1.42Z"/><path class="cls-3" d="m65.2,29.08v3.27h-5.87c-.15,0-.24.11-.24.22,0,.09.09.2.2.22l3.91.76c1.68.33,2.79,1.48,2.79,3.03,0,2.01-1.68,3.4-3.77,3.4h-6.26v-3.27h6.24c.15,0,.24-.11.24-.22,0-.09-.04-.2-.2-.24l-3.97-.85c-1.61-.35-2.77-1.48-2.77-2.97,0-1.99,1.64-3.36,3.73-3.36h5.98Z"/><path class="cls-3" d="m74.32,33.31c-.28-.76-1.03-1.29-1.96-1.29-1.48,0-2.36,1.16-2.36,2.53s.87,2.49,2.36,2.49c.94,0,1.68-.52,1.96-1.27h3.56c-.44,2.64-2.51,4.54-5.54,4.54-3.56,0-5.72-2.53-5.72-5.78s2.16-5.78,5.72-5.78c3.05,0,5.13,1.9,5.54,4.56h-3.56Z"/><path class="cls-3" d="m86.99,29.08h3.36v10.91h-3.36v-1.33h-.09c-.65.94-1.85,1.66-3.36,1.66-2.86,0-5.04-2.29-5.04-5.74s2.05-5.83,5.04-5.83c1.51,0,2.71.72,3.36,1.66h.09v-1.33Zm0,5.45c0-1.48-1.07-2.6-2.53-2.6s-2.53,1.07-2.53,2.6,1.09,2.6,2.53,2.6,2.53-1.18,2.53-2.6Z"/><path class="cls-3" d="m104.08,34.58c0,3.45-2.18,5.74-5.04,5.74-1.51,0-2.71-.72-3.36-1.66h-.09v6.71h-3.36v-16.29h3.36v1.33h.09c.65-.94,1.85-1.66,3.36-1.66,2.99,0,5.04,2.47,5.04,5.83Zm-3.43-.04c0-1.53-1.09-2.6-2.53-2.6s-2.53,1.11-2.53,2.6,1.03,2.6,2.53,2.6,2.53-1.07,2.53-2.6Z"/><path class="cls-3" d="m113.3,29.08h3.36v10.91h-3.36v-1.33h-.09c-.65.94-1.85,1.66-3.36,1.66-2.86,0-5.04-2.29-5.04-5.74s2.05-5.83,5.04-5.83c1.51,0,2.71.72,3.36,1.66h.09v-1.33Zm0,5.45c0-1.48-1.07-2.6-2.53-2.6s-2.53,1.07-2.53,2.6,1.09,2.6,2.53,2.6,2.53-1.18,2.53-2.6Z"/></g><path class="cls-3" d="m27.45,33.14h6.68c.31,0,.55.25.55.55v1.4c0,.31-.25.55-.55.55h-6.65c-.3,0-.55-.24-.55-.54l-.03-1.4c0-.31.24-.56.55-.56Z"/><g><g><path class="cls-2" d="m23.54,46.93h-.26v-1.72h0c0-.31.11-.56.32-.77.21-.21.47-.32.76-.31.28,0,.52.11.72.32s.3.45.3.74-.11.55-.32.77c-.21.21-.46.31-.76.3-.3-.01-.55-.13-.75-.36v1.03Zm.81-2.53c-.23-.01-.41.06-.58.23-.16.17-.23.36-.23.59,0,.21.08.4.23.55.15.15.33.23.54.23s.4-.08.55-.23c.15-.15.23-.34.24-.55,0-.21-.07-.4-.21-.56-.15-.16-.32-.25-.53-.25Z"/><path class="cls-2" d="m25.92,45.68c0,.07.04.14.11.21.08.08.16.11.24.11.11,0,.2-.04.27-.1.06-.06.09-.14.09-.24,0-.18-.1-.29-.3-.36l-.24-.08c-.25-.08-.38-.25-.39-.51,0-.16.05-.29.16-.4.11-.11.25-.17.41-.18.14,0,.27.04.39.14.12.1.19.21.2.36v.06s-.28,0-.28,0v-.05c0-.14-.14-.24-.3-.24-.15,0-.28.12-.29.28-.01.15.08.25.26.31l.24.08c.27.09.42.28.44.54.01.18-.05.34-.19.48-.14.13-.31.19-.49.18-.17-.01-.31-.08-.43-.21-.11-.13-.17-.28-.17-.45h.28v.07Z"/><path class="cls-2" d="m27.46,43.93h-.27v-.48h.27v.48Zm0,2.28h-.27v-2.04h.27v2.04Z"/><path class="cls-2" d="m29.84,45.68c-.21.4-.55.59-.99.59-.3,0-.55-.11-.77-.31-.21-.2-.32-.45-.33-.75,0-.3.1-.55.31-.76.22-.21.48-.32.78-.33.21,0,.41.05.6.17.18.11.3.25.38.41l.04.09h-.31c-.15-.26-.39-.4-.7-.4-.21,0-.4.07-.56.23-.18.16-.26.35-.26.58s.08.41.24.57c.16.16.35.24.58.23.32,0,.55-.13.71-.38h.31l-.03.06Z"/><path class="cls-2" d="m31.79,45.96c-.21.21-.46.31-.76.3-.28,0-.53-.11-.72-.32s-.29-.45-.29-.74.11-.55.32-.77c.21-.21.46-.32.76-.31.28.01.53.12.72.33.2.21.3.45.3.74s-.11.55-.32.76Zm-.75.04c.23.01.41-.06.57-.23.16-.17.24-.36.23-.59,0-.21-.09-.4-.23-.55-.15-.15-.32-.23-.53-.23-.22,0-.4.08-.55.23s-.23.34-.23.55c0,.21.06.4.21.56.15.16.32.24.53.25Z"/><path class="cls-2" d="m32.66,46.22h-.27v-2.76h.27v2.76Z"/><path class="cls-2" d="m34.74,45.96c-.21.21-.46.31-.76.3-.28,0-.53-.11-.72-.32s-.29-.45-.29-.74.11-.55.32-.77c.21-.21.46-.32.76-.31.28.01.53.12.72.33.2.21.3.45.3.74s-.11.55-.32.76Zm-.75.04c.23.01.41-.06.57-.23.16-.17.24-.36.23-.59,0-.21-.09-.4-.23-.55-.15-.15-.32-.23-.53-.23-.22,0-.4.08-.55.23s-.23.34-.23.55c0,.21.06.4.21.56.15.16.32.24.53.25Z"/><path class="cls-2" d="m37.43,46.12c0,.26-.11.47-.32.64-.21.17-.45.25-.72.24-.24-.01-.45-.08-.63-.22-.17-.13-.28-.3-.34-.51h.26c.04.14.13.26.27.36.14.1.29.15.46.15.2,0,.37-.07.52-.21.15-.14.22-.3.22-.49v-.19c-.2.23-.45.35-.75.36-.29.01-.55-.09-.76-.3-.21-.21-.32-.47-.32-.77s.1-.53.29-.74c.2-.21.44-.31.72-.33.29,0,.55.1.76.31.22.21.32.46.32.76v.94Zm-.5-.37c.15-.15.23-.34.23-.55,0-.23-.07-.42-.23-.59-.16-.17-.35-.25-.57-.24-.21.01-.39.1-.53.26s-.22.35-.21.56c0,.22.08.4.24.55s.34.23.55.23.39-.08.53-.23Z"/><path class="cls-2" d="m37.71,44.18v2.04h.27v-2.04h-.27Zm.37-.72l-.37.48h.27l.37-.48h-.27Z"/><path class="cls-2" d="m40.37,46.22h-.26v-.32c-.22.25-.49.38-.82.36-.28-.01-.52-.12-.72-.33-.2-.21-.3-.45-.3-.74s.11-.55.32-.77c.21-.21.46-.31.76-.3.29.01.53.12.73.33.2.21.3.45.29.74h0v1.02Zm-1.82-1.04c0,.21.06.4.21.56.15.16.33.24.53.25.23.01.41-.07.57-.23.16-.17.24-.36.23-.59,0-.21-.08-.4-.23-.55-.15-.15-.33-.23-.53-.23-.22,0-.4.08-.55.23-.15.15-.23.34-.23.55Z"/><path class="cls-2" d="m43.21,46.93h-.29l.31-.78-.78-1.97h.3l.65,1.62.69-1.62h.29l-1.15,2.75Z"/><path class="cls-2" d="m46.66,45.68c0,.07.04.14.11.21.08.08.16.11.24.11.11,0,.2-.04.27-.1.06-.06.09-.14.09-.24,0-.18-.1-.29-.3-.36l-.24-.08c-.25-.08-.38-.25-.39-.51,0-.16.05-.29.16-.4.11-.11.25-.17.41-.18.14,0,.27.04.39.14.12.1.19.21.2.36v.06s-.28,0-.28,0v-.05c0-.14-.14-.24-.3-.24-.15,0-.28.12-.29.28-.01.15.08.25.26.31l.24.08c.27.09.42.28.44.54.01.18-.05.34-.19.48-.14.13-.31.19-.49.18-.17-.01-.31-.08-.43-.21-.11-.13-.17-.28-.17-.45h.28v.07Z"/><path class="cls-2" d="m50.03,46.22h-.26v-.32c-.22.25-.49.38-.82.36-.28-.01-.52-.12-.72-.33-.2-.21-.3-.45-.3-.74s.11-.55.32-.77c.21-.21.46-.31.76-.3.29.01.53.12.73.33.2.21.3.45.29.74h0v1.02Zm-1.82-1.04c0,.21.06.4.21.56s.33.24.53.25c.23.01.41-.07.57-.23.16-.17.24-.36.23-.59,0-.21-.08-.4-.23-.55-.15-.15-.33-.23-.53-.23-.22,0-.4.08-.55.23-.15.15-.23.34-.23.55Z"/><path class="cls-2" d="m50.58,46.22h-.27v-2.76h.27v2.76Z"/><path class="cls-2" d="m52.69,45.34c0,.26-.09.49-.26.66-.17.18-.38.26-.64.26s-.48-.09-.65-.26c-.17-.18-.25-.4-.25-.66v-1.16h.28v1.19c0,.17.06.32.19.44.13.12.27.18.44.18s.31-.06.44-.18c.13-.13.19-.27.19-.44v-1.19h.28v1.16Z"/><path class="cls-2" d="m55.13,45.21c0,.29-.1.55-.31.76-.22.21-.47.31-.77.3-.28,0-.53-.11-.72-.32-.2-.21-.29-.45-.29-.74s.11-.55.32-.77c.21-.21.46-.32.76-.31.3.01.55.13.75.36v-1.03h.27v1.73Zm-1.08.8c.23.01.41-.06.57-.23.16-.17.24-.36.23-.59,0-.21-.08-.4-.23-.55s-.32-.23-.53-.23c-.21,0-.4.08-.55.23s-.23.34-.23.55c0,.21.07.4.21.56.15.16.32.24.53.25Z"/><path class="cls-2" d="m60.14,46.22h-.28v-1.25c0-.16-.05-.29-.14-.4-.09-.11-.21-.17-.36-.17s-.28.05-.39.15c-.11.1-.16.22-.16.36v1.31h-.29v-1.31c0-.15-.05-.27-.16-.36-.11-.1-.24-.15-.39-.15s-.26.06-.35.17c-.09.11-.13.24-.13.4v1.25h-.28v-1.22c0-.25.07-.46.22-.61.14-.15.31-.23.54-.25.3-.02.53.1.71.38.18-.28.41-.4.71-.38.22.02.4.1.54.25.15.15.22.36.22.61v1.22Z"/><path class="cls-2" d="m62.49,45.55c-.08.22-.2.39-.39.52s-.38.19-.6.2c-.28,0-.53-.1-.74-.3-.21-.21-.33-.46-.33-.75,0-.3.1-.57.32-.79.23-.22.49-.33.79-.31.27.02.51.13.71.34.19.2.29.43.29.69v.15h-1.83c.02.2.11.38.26.51.15.13.33.2.54.2.32,0,.55-.15.69-.45h.29Zm-.22-.51c-.04-.19-.13-.34-.27-.46-.14-.12-.31-.18-.5-.18-.2,0-.37.06-.51.18-.15.12-.24.28-.28.47h1.56Z"/><path class="cls-2" d="m64.58,46.22h-.28v-1.19c0-.17-.06-.32-.19-.44s-.27-.19-.44-.19-.32.06-.44.19c-.13.13-.19.27-.19.44v1.19h-.28v-1.16c0-.26.09-.48.26-.66s.39-.26.65-.26.47.09.64.26.26.39.26.66v1.16Z"/><path class="cls-2" d="m65.61,46.26c-.5,0-.74-.21-.74-.63v-2.16h.28v.71h.47v.25h-.47v1.15c0,.3.16.45.47.45v.23Z"/><path class="cls-2" d="m67.94,46.22h-.26v-.32c-.22.25-.49.38-.82.36-.28-.01-.52-.12-.72-.33-.2-.21-.3-.45-.3-.74s.11-.55.32-.77c.21-.21.46-.31.76-.3.29.01.53.12.73.33.2.21.3.45.29.74h0v1.02Zm-1.82-1.04c0,.21.06.4.21.56s.33.24.53.25c.23.01.41-.07.57-.23.16-.17.24-.36.23-.59,0-.21-.08-.4-.23-.55-.15-.15-.33-.23-.53-.23-.22,0-.4.08-.55.23-.15.15-.23.34-.23.55Z"/><path class="cls-2" d="m68.5,46.22h-.27v-2.76h.27v2.76Z"/></g><rect class="cls-2" x=".55" y="45.1" width="20.26" height=".25"/><rect class="cls-2" x="70.6" y="45.1" width="19.75" height=".24"/></g><g><path class="cls-1" d="m56.38,5.72c-4.72,3.95-9.31,7.95-14.78,10.73-1.29.65-2.67,1.19-4.07,1.54-3.4.85-5.47.02-7.46-2.79.78,3.5,3.33,5.03,6.63,4.46,2.71-.47,5.1-1.72,7.39-3.17,4.88-3.08,9.17-6.88,13.29-10.9.07-.07.11-.16.2-.29-2.38-.79-4.77-1.17-7.2-1.27-6.29-.25-12.33.81-18.01,3.62-2.32,1.15-4.39,2.62-5.96,4.98-.59-4.89-3.09-8.31-7.44-10.66,1.77-.56,3.36-1.12,5.09-1.04,1.82.08,3.17,1.01,4.33,2.49C27.84,1.45,25.92-.02,23.66,0c-1.45.02-2.95.27-4.34.7-1.52.47-2.99.55-4.53.33-3.63-.52-7.22-.2-10.81.39-.07.01-.13.06-.26.13,1.7-.09,3.32-.24,4.94-.26,2.98-.05,5.97.12,8.72,1.33,4.94,2.18,7.65,6.03,7.69,11.47.04,5.27,2.24,9.29,6.44,12.34,1.09.79,2.16,1.62,3.19,2.48,3.15,2.63,4.97,5.98,5.42,10.07.04.33.09.66.13.99.09,0,.18,0,.27,0,.02-1.06.14-2.12.04-3.17-.31-3.47-2.01-6.27-4.49-8.59-1.17-1.1-2.49-2.05-3.82-2.95-2.88-1.95-4.65-4.62-5.49-7.97-.37-1.46-.12-2.76.69-4,1.25-1.92,3-3.3,4.99-4.31,7.35-3.75,15.12-4.92,23.26-3.52.16.03.31.06.46.11.04.01.08.06.21.17Z"/><circle class="cls-1" cx="25" cy="2.54" r=".62"/></g><g><path class="cls-3" d="m23.65,36.14c0,.75-.07,1.48-.21,2.19-.08.4-.17.8-.29,1.18-.09.29-.35.48-.65.48h-6.08c-.38,0-.68-.31-.68-.68v-3.1c-.02-2.06-1.69-3.72-3.75-3.72-.15,0-.29,0-.43.02h0c-.8.03-1.44.31-1.95.83,0,0,0,0,0,0-.82.68-1.34,1.7-1.36,2.84v3.11c0,.38-.31.68-.68.68H1.21c-.38,0-.68-.31-.68-.68V12.97c0-.38.31-.68.68-.68h6.34c.38,0,.68.31.68.68v11.34c0,.45.43.78.86.66.79-.21,1.61-.34,2.45-.38.02,0,.04,0,.05,0,.15,0,.29,0,.44,0,.02,0,.04,0,.05,0,.1,0,.2,0,.3,0,.13,0,.26,0,.39.02.91.05,1.8.21,2.64.46.01,0,.03.01.04.01.08.02.15.05.22.07.02,0,.04.01.05.02h0c3.38,1.12,6.07,3.76,7.26,7.12.19.54.34,1.09.45,1.67.14.71.21,1.44.21,2.19Z"/><path class="cls-3" d="m23.65,12.99c0-.5-.27-.7-.84-.7-2,0-4,0-6,0-.43,0-.69.12-.79.37-.04.08-.05.17-.05.26v6.21c0,.57.38,1.06.94,1.22,1.9.54,3.68,1.4,5.29,2.55.61.44,1.47.02,1.47-.71v-9.19Z"/></g></g></svg>