<?xml version="1.0" encoding="UTF-8"?>
<svg id="Capa_1" data-name="Capa 1" xmlns="http://www.w3.org/2000/svg" viewBox="0 0 31 31">
  <defs>
    <style>
      .cls-1 {
        fill: #fff;
      }

      .cls-2 {
        fill: none;
      }
    </style>
  </defs>
  <rect class="cls-2" width="31" height="31"/>
  <g id="_441_Analytics_critical_human_information_processing" data-name="441, Analytics, critical, human, information, processing">
    <g>
      <path class="cls-1" d="m18.03.02h-.75c-1.44,0-2.88.29-4.15.86-.12-.12-.29-.17-.46-.17h-2.99c-.4,0-.75.35-.75.75v2.19l-1.55-1.55c-.29-.29-.75-.29-1.04,0l-2.13,2.13c-.29.29-.29.75,0,1.04l1.55,1.55h-2.19c-.4,0-.75.35-.75.75v3.05c0,.4.35.75.75.75h2.19l-1.55,1.55c-.29.29-.29.75,0,1.04l2.13,2.13c.23.23.52.29.81.12v14.05c0,.4.35.75.75.75,13.76,0,12.96,0,13.07,0,.35-.06.63-.35.63-.69v-7.26h3.63c.4,0,.75-.35.75-.75v-5.76h1.44c.4,0,.75-.35.75-.75v-5.7C28.1,4.51,23.61.02,18.03.02Zm8.64,15.14h-1.44c-.4,0-.75.35-.75.75v5.76h-3.63c-.4,0-.75.35-.75.75v6.68l-7.54-4.43c-.35-.17-.81-.06-.98.23-.17.35-.06.81.23.98l6.33,3.69h-9.44v-14.86l.69-.69c.29-.29.29-.75,0-1.04-.23-.23-.63-.29-.92-.12-.12.06.06-.06-1.55,1.55l-1.09-1.09,1.44-1.44c.23-.23.29-.58.12-.86-.12-.23-.23-.46-.29-.69-.12-.29-.35-.52-.69-.52h-2.02v-1.61h2.02c.29,0,.58-.23.69-.52.06-.23.17-.46.29-.69.17-.29.12-.63-.12-.86l-1.44-1.44,1.09-1.09,1.44,1.44c.23.23.58.29.86.12.23-.12.46-.23.69-.29.29-.12.52-.35.52-.69v-2.02h1.55v2.02c0,.29.23.58.52.69.23.06.46.17.69.29.29.17.63.12.86-.12l1.44-1.44,1.09,1.09-1.44,1.44c-.23.23-.29.58-.12.86.12.23.23.46.29.69.12.29.35.52.69.52h2.02v1.61h-2.02c-.29,0-.58.23-.69.52-.06.23-.17.46-.29.69-.17.29-.12.63.12.86l1.44,1.44-1.15,1.09-1.38-1.44c-.29-.29-.75-.29-1.04,0s-.29.75,0,1.04l1.96,1.96c.29.29.75.29,1.04,0,2.3-2.3,2.19-2.13,2.25-2.25.11-.23.17-.52.06-.75q-.06-.12-1.67-1.67h2.19c.4,0,.75-.35.75-.75v-3.05c0-.4-.35-.75-.75-.75h-2.25l1.55-1.55c.29-.29.29-.75,0-1.04l-2.13-2.13c-.29-.29-.75-.29-1.04,0l-1.55,1.55v-1.27c1.21-.58,2.53-.92,3.92-.92h.75c4.84,0,8.64,3.8,8.64,8.64v5.12h-.06Z"/>
      <path class="cls-1" d="m12.27,15.86c.4,0,.75-.35.75-.75s-.35-.75-.75-.75h-.35v-2.25c1.44-.35,2.53-1.61,2.53-3.17,0-1.78-1.44-3.22-3.22-3.22s-3.28,1.5-3.28,3.28c0,1.55,1.09,2.82,2.53,3.17v2.25h-.35c-.4,0-.75.35-.75.75s.35.75.75.75h.35v.75h-.35c-.4,0-.75.35-.75.75s.35.75.75.75h.35v3.46c0,.4.35.75.75.75s.75-.35.75-.75v-3.63h.35c.4,0,.75-.35.75-.75s-.35-.75-.75-.75h-.35v-.63h.29Zm-2.88-6.85c0-.98.81-1.79,1.79-1.79s1.78.81,1.78,1.79-.81,1.78-1.78,1.78-1.79-.81-1.79-1.78Z"/>
      <rect class="cls-1" x="20.21" y="11.54" width="1.44" height="1.44"/>
      <rect class="cls-1" x="22.34" y="11.54" width="1.44" height="1.44"/>
      <rect class="cls-1" x="24.53" y="11.54" width="1.44" height="1.44"/>
    </g>
  </g>
</svg>