<?xml version="1.0" encoding="UTF-8"?>
<svg id="Capa_1" data-name="Capa 1" xmlns="http://www.w3.org/2000/svg" viewBox="0 0 31 31">
  <defs>
    <style>
      .cls-1 {
        fill: #fff;
      }

      .cls-2 {
        fill: none;
      }
    </style>
  </defs>
  <rect class="cls-2" width="31" height="31"/>
  <g id="_434_Choice_choosing_criticism_human_person" data-name="434, Choice, choosing, criticism, human, person">
    <g>
      <path class="cls-1" d="m28.42,23.29l-1-1.65c-.65-1.06-1.82-1.71-3.06-1.71h-4.29v-2c1.94-2.53,2-6.65.06-9.24-1-1.29-2.29-2-3.71-2s-2.71.71-3.71,2c-1.94,2.59-1.88,6.71.06,9.24v2h-4.53c-1.12,0-2.12.47-2.76,1.35l-1.47,1.82c-.53.65-.76,1.41-.76,2.23v4.88c0,.41.35.76.76.76h24.18c.41,0,.76-.35.76-.76v-5.12c0-.65-.18-1.29-.53-1.82Zm-12-15.12c2,0,3.71,2.29,3.71,5.18,0,1.53-.47,2.94-1.29,3.94-1.35,1.65-3.35,1.59-4.71,0-.82-1-1.29-2.41-1.29-3.94-.06-2.88,1.59-5.18,3.59-5.18Zm11.06,21.29H4.66v-4.18c0-.47.18-.94.47-1.29l1.47-1.82c.41-.47,1-.76,1.65-.76h5.24c.41,0,.76-.35.76-.76v-1.35c1.41.88,3.06.82,4.41,0v1.35c0,.41.35.76.76.76h5c.71,0,1.41.41,1.82,1l1,1.65c.18.35.29.71.29,1.06v4.35h-.06Z"/>
      <path class="cls-1" d="m16.42,22.12h0c-.47,0-.76.35-.76.76s.35.76.76.76h0c.41,0,.76-.35.76-.76s-.35-.76-.76-.76Z"/>
      <path class="cls-1" d="m16.42,24.35h0c-.47,0-.76.35-.76.76s.35.76.76.76h0c.41,0,.76-.35.76-.76,0-.47-.35-.76-.76-.76Z"/>
      <path class="cls-1" d="m16.42,26.53h0c-.47,0-.76.35-.76.76s.35.76.76.76h0c.41,0,.76-.35.76-.76s-.35-.76-.76-.76Z"/>
      <path class="cls-1" d="m13.84,4.35c2.35,1.59,2.24,1.47,2.35,1.53h.41c.18-.06,0,.06,2.41-1.59.35-.24.41-.71.18-1-.24-.35-.71-.41-1-.18l-1.06.71V.76c0-.41-.35-.76-.76-.76s-.76.35-.76.76v3.06l-1.06-.71c-.35-.24-.82-.12-1,.18-.18.35-.06.82.29,1.06Z"/>
      <path class="cls-1" d="m20.78,7.18v.12q0,.06.06.12h0l.06.06c.06.12.18.18.29.24.06,0-.29-.12,2.47,1.12.35.18.82,0,1-.35.18-.35,0-.82-.35-1l-1.18-.53,2.59-1.59c.35-.24.47-.65.24-1-.24-.35-.65-.47-1-.24l-2.65,1.65v-1.29c0-.41-.29-.76-.71-.76s-.76.29-.76.71c-.06,1.29-.06,1.41-.06,2.65v.12Z"/>
      <path class="cls-1" d="m25.07,11.47c.24-.35.12-.82-.24-1-.35-.24-.82-.12-1,.24-1.47,2.35-1.41,2.29-1.47,2.41v.47c.06.06,0,0,1.65,2.29.24.35.71.41,1,.18.35-.24.41-.71.18-1l-.76-1.06,3.06-.12c.41,0,.71-.35.71-.76s-.35-.71-.76-.71l-3.06.12.71-1.06Z"/>
      <path class="cls-1" d="m7.13,5.41l2.59,1.59-1.18.53c-.35.18-.53.59-.35,1,.18.35.59.53,1,.35,2.65-1.18,2.47-1.12,2.59-1.23l.06-.06.06-.06.06-.06h0l.06-.06v-.18c0-.12,0,.12-.06-2.76,0-.41-.35-.71-.76-.71s-.71.35-.71.76l.06,1.29-2.59-1.59c-.35-.24-.82-.12-1,.24-.24.24-.18.71.18.94Z"/>
      <path class="cls-1" d="m5.31,13.88l3.06.12-.76,1.06c-.24.35-.18.76.18,1,.35.24.76.18,1-.18l1.53-2.12h0l.06-.06.06-.06v-.18h0v-.12h0v-.18c-.06-.12,0,0-1.47-2.41-.24-.35-.65-.47-1-.24-.35.24-.47.65-.24,1l.65,1.12-3.06-.12c-.41,0-.76.29-.76.71.06.29.35.65.76.65Z"/>
    </g>
  </g>
</svg>