<svg width="24" height="25" viewBox="0 0 24 25" fill="none" xmlns="http://www.w3.org/2000/svg">
<g clip-path="url(#clip0_294_402)">
<path d="M12.8051 12.4498C12.5508 12.5602 12.2766 12.6172 11.9993 12.6172C11.7221 12.6172 11.4479 12.5602 11.1936 12.4498L1.4222 7.92409C1.26353 7.84406 1.13019 7.72156 1.03702 7.57022C0.94386 7.41889 0.894531 7.24466 0.894531 7.06695C0.894531 6.88924 0.94386 6.71501 1.03702 6.56368C1.13019 6.41234 1.26353 6.28984 1.4222 6.20981L11.1936 1.64981C11.4479 1.5394 11.7221 1.48242 11.9993 1.48242C12.2766 1.48242 12.5508 1.5394 12.8051 1.64981L22.5765 6.17552C22.7352 6.25555 22.8685 6.37806 22.9617 6.52939C23.0548 6.68073 23.1042 6.85495 23.1042 7.03266C23.1042 7.21038 23.0548 7.3846 22.9617 7.53594C22.8685 7.68727 22.7352 7.80978 22.5765 7.88981L12.8051 12.4498Z" stroke="white" stroke-linecap="round" stroke-linejoin="round"/>
<path d="M23.1431 13.2212L12.686 18.0383C12.4627 18.1402 12.22 18.1929 11.9746 18.1929C11.7291 18.1929 11.4865 18.1402 11.2631 18.0383L0.857422 13.2212" stroke="white" stroke-linecap="round" stroke-linejoin="round"/>
<path d="M23.1431 18.7925L12.686 23.6096C12.4627 23.7115 12.22 23.7642 11.9746 23.7642C11.7291 23.7642 11.4865 23.7115 11.2631 23.6096L0.857422 18.7925" stroke="white" stroke-linecap="round" stroke-linejoin="round"/>
</g>
<defs>
<clipPath id="clip0_294_402">
<rect width="24" height="24" fill="white" transform="translate(0 0.621094)"/>
</clipPath>
</defs>
</svg>
