<?xml version="1.0" encoding="UTF-8"?><svg id="Capa_1" xmlns="http://www.w3.org/2000/svg" viewBox="0 0 36.17 43.35"><defs><style>.cls-1{fill:#fff;}.cls-2{fill:#9b9a84;}</style></defs><path class="cls-1" d="m36.17,37.32c0,1.17-.11,2.31-.33,3.42-.12.63-.27,1.25-.46,1.85-.14.45-.55.76-1.02.76h-9.51c-.59,0-1.07-.48-1.07-1.07v-4.84c-.03-3.22-2.64-5.82-5.87-5.82-.23,0-.45.01-.67.04h0c-1.25.05-2.25.48-3.05,1.3,0,0,0,0,0,0-1.28,1.06-2.1,2.66-2.12,4.45v4.87c0,.59-.48,1.07-1.07,1.07H1.07c-.59,0-1.07-.48-1.07-1.07V1.08C0,.48.48,0,1.07,0h9.92c.59,0,1.07.48,1.07,1.07v17.74c0,.7.66,1.21,1.34,1.03,1.23-.33,2.51-.53,3.83-.6.03,0,.06,0,.08,0,.23,0,.46-.01.69-.01.03,0,.06,0,.08,0,.16,0,.31,0,.47,0,.21,0,.41.01.61.03,1.43.08,2.81.33,4.13.73.02,0,.05.02.07.02.12.04.23.07.35.11.03,0,.06.02.08.03h0c5.29,1.75,9.5,5.89,11.35,11.14.3.84.54,1.71.71,2.61.22,1.11.33,2.25.33,3.42Z"/><path class="cls-2" d="m36.17,1.1c0-.79-.42-1.1-1.32-1.1C31.72.01,28.59.01,25.46,0c-.67,0-1.07.19-1.24.58-.06.13-.07.27-.07.41v9.71c0,.88.6,1.66,1.48,1.91,2.97.84,5.76,2.19,8.27,3.99.95.68,2.29.03,2.29-1.11V1.1Z"/></svg>