<?xml version="1.0" encoding="UTF-8"?><svg id="Capa_1" xmlns="http://www.w3.org/2000/svg" viewBox="0 0 114.15 46.19"><defs><style>.cls-1{fill:#005855;}.cls-2{fill:#b8c46c;}.cls-3{fill:#c5dfea;}</style></defs><g><path class="cls-3" d="m53.33,35.03h-7.72c.21.81.92,1.54,2.17,1.65.82.06,1.69-.28,2.04-.81h3.45c-.69,2.44-2.89,3.75-5.45,3.75-3.67,0-5.55-2.68-5.55-5.68,0-3.22,2.32-5.68,5.62-5.68,3.58,0,5.88,2.87,5.45,6.78Zm-7.68-2.47h4.4c-.3-.9-1.14-1.39-2.19-1.39s-1.91.54-2.21,1.39Z"/><path class="cls-3" d="m63.56,28.58v3.22h-5.77c-.15,0-.24.11-.24.21,0,.09.09.19.19.21l3.84.75c1.65.32,2.74,1.46,2.74,2.98,0,1.97-1.65,3.35-3.71,3.35h-6.15v-3.22h6.13c.15,0,.24-.11.24-.21,0-.09-.04-.19-.19-.24l-3.9-.84c-1.59-.34-2.72-1.46-2.72-2.92,0-1.95,1.61-3.3,3.67-3.3h5.88Z"/><path class="cls-3" d="m72.52,32.74c-.28-.75-1.01-1.27-1.93-1.27-1.46,0-2.32,1.14-2.32,2.49s.86,2.44,2.32,2.44c.92,0,1.65-.51,1.93-1.24h3.5c-.43,2.59-2.47,4.46-5.45,4.46-3.5,0-5.62-2.49-5.62-5.68s2.12-5.68,5.62-5.68c3,0,5.04,1.87,5.45,4.48h-3.5Z"/><path class="cls-3" d="m84.98,28.58h3.3v10.72h-3.3v-1.31h-.09c-.64.92-1.82,1.63-3.3,1.63-2.81,0-4.95-2.25-4.95-5.64s2.02-5.73,4.95-5.73c1.48,0,2.66.71,3.3,1.63h.09v-1.31Zm0,5.36c0-1.46-1.05-2.55-2.49-2.55s-2.49,1.05-2.49,2.55,1.07,2.55,2.49,2.55,2.49-1.16,2.49-2.55Z"/><path class="cls-3" d="m101.77,33.98c0,3.39-2.14,5.64-4.95,5.64-1.48,0-2.66-.71-3.3-1.63h-.09v6.6h-3.3v-16.01h3.3v1.31h.09c.64-.92,1.82-1.63,3.3-1.63,2.94,0,4.95,2.42,4.95,5.73Zm-3.37-.04c0-1.5-1.07-2.55-2.49-2.55s-2.49,1.09-2.49,2.55,1.01,2.55,2.49,2.55,2.49-1.05,2.49-2.55Z"/><path class="cls-3" d="m110.84,28.58h3.3v10.72h-3.3v-1.31h-.09c-.64.92-1.82,1.63-3.3,1.63-2.81,0-4.95-2.25-4.95-5.64s2.02-5.73,4.95-5.73c1.48,0,2.66.71,3.3,1.63h.09v-1.31Zm0,5.36c0-1.46-1.05-2.55-2.49-2.55s-2.49,1.05-2.49,2.55,1.07,2.55,2.49,2.55,2.49-1.16,2.49-2.55Z"/></g><path class="cls-3" d="m26.46,32.57h6.56c.3,0,.54.24.54.54v1.38c0,.3-.24.54-.54.54h-6.53c-.3,0-.54-.24-.54-.53l-.03-1.38c0-.3.24-.56.54-.56Z"/><g><g><path class="cls-2" d="m22.62,46.13h-.26v-1.69h0c0-.3.11-.55.31-.76.21-.21.46-.31.75-.3.28,0,.51.11.71.32s.29.45.29.73-.11.54-.31.76c-.21.21-.46.31-.74.3-.3-.01-.54-.13-.74-.35v1.01Zm.8-2.49c-.22-.01-.41.06-.57.23-.15.17-.23.35-.22.58,0,.21.08.39.22.54.14.15.32.22.53.22s.39-.07.54-.22c.15-.15.23-.33.23-.54,0-.21-.07-.39-.21-.55-.14-.16-.32-.24-.52-.25Z"/><path class="cls-2" d="m24.96,44.9c0,.07.04.14.11.21.07.07.15.11.24.11.11,0,.2-.04.27-.1.06-.06.09-.14.09-.24,0-.17-.09-.29-.29-.35l-.24-.07c-.25-.08-.38-.25-.39-.5,0-.15.05-.29.15-.4.11-.11.25-.17.4-.18.14,0,.26.04.38.13.12.09.18.21.19.35v.06s-.28,0-.28,0v-.05c0-.14-.14-.24-.3-.24-.15,0-.28.12-.28.27-.01.14.08.25.26.31l.23.08c.27.09.41.27.43.53.01.18-.05.34-.19.47-.14.13-.3.19-.48.18-.17-.01-.31-.08-.43-.2-.11-.12-.17-.27-.17-.44h.28v.07Z"/><path class="cls-2" d="m26.47,43.18h-.26v-.47h.26v.47Zm0,2.24h-.26v-2h.26v2Z"/><path class="cls-2" d="m28.81,44.89c-.21.39-.54.58-.98.58-.29,0-.54-.11-.75-.31-.21-.2-.32-.45-.32-.73,0-.29.1-.54.31-.75.21-.21.47-.32.76-.32.21,0,.41.05.59.17.17.11.3.24.37.41l.04.09h-.3c-.15-.26-.38-.39-.69-.4-.21,0-.39.07-.56.22-.17.16-.26.35-.26.57s.08.4.24.56c.16.15.35.23.57.23.31,0,.54-.13.7-.38h.3l-.03.06Z"/><path class="cls-2" d="m30.72,45.17c-.21.21-.46.31-.74.3-.28,0-.52-.11-.71-.32s-.29-.45-.29-.73.11-.54.31-.75c.21-.21.46-.31.74-.3.28.01.52.12.71.32.19.2.29.45.29.73s-.11.54-.32.75Zm-.74.04c.22.01.41-.06.56-.23.16-.17.23-.35.23-.58,0-.21-.08-.39-.23-.54-.14-.15-.32-.22-.52-.22-.21,0-.39.07-.54.22s-.22.33-.23.54c0,.21.06.4.21.56.14.16.32.24.52.25Z"/><path class="cls-2" d="m31.58,45.42h-.27v-2.71h.27v2.71Z"/><path class="cls-2" d="m33.62,45.17c-.21.21-.46.31-.74.3-.28,0-.52-.11-.71-.32s-.29-.45-.29-.73.11-.54.31-.75c.21-.21.46-.31.74-.3.28.01.52.12.71.32.19.2.29.45.29.73s-.11.54-.32.75Zm-.74.04c.22.01.41-.06.56-.23.16-.17.23-.35.23-.58,0-.21-.08-.39-.23-.54-.14-.15-.32-.22-.52-.22-.21,0-.39.07-.54.22s-.22.33-.23.54c0,.21.06.4.21.56.14.16.32.24.52.25Z"/><path class="cls-2" d="m36.27,45.33c0,.25-.11.46-.31.63-.21.17-.44.25-.71.24-.24-.01-.45-.08-.62-.22-.17-.13-.27-.3-.33-.5h.26c.04.14.13.26.27.35.14.1.29.15.45.15.2,0,.37-.07.51-.21.14-.13.22-.3.22-.48v-.19c-.2.22-.44.34-.74.35-.29.01-.54-.09-.74-.3-.21-.21-.31-.46-.31-.76s.09-.52.29-.73c.19-.2.43-.31.71-.32.29,0,.54.09.75.31.21.21.32.46.31.74v.92Zm-.5-.36c.14-.15.22-.33.22-.54,0-.22-.07-.41-.22-.58-.15-.17-.34-.24-.56-.23-.21.01-.38.09-.52.25s-.21.34-.21.55c0,.21.08.39.23.54s.33.22.54.22.38-.07.52-.22Z"/><path class="cls-2" d="m36.55,43.42v2h.26v-2h-.26Zm.36-.71l-.36.47h.26l.36-.47h-.26Z"/><path class="cls-2" d="m39.16,45.42h-.26v-.31c-.22.25-.49.37-.8.36-.28-.01-.51-.12-.71-.32-.19-.2-.29-.45-.29-.73s.11-.54.31-.75c.21-.21.46-.31.75-.3.28.01.52.12.72.32.2.2.29.45.28.72h0v1.01Zm-1.79-1.02c0,.21.06.4.21.56.14.16.32.24.52.25.22.01.41-.07.56-.23.16-.17.23-.36.23-.58,0-.21-.08-.39-.22-.54-.14-.15-.32-.22-.52-.22-.21,0-.39.07-.54.22-.15.15-.22.33-.23.54Z"/><path class="cls-2" d="m41.95,46.12h-.29l.3-.76-.77-1.94h.29l.64,1.59.67-1.59h.28l-1.14,2.7Z"/><path class="cls-2" d="m45.34,44.9c0,.07.04.14.11.21.07.07.15.11.24.11.11,0,.2-.04.27-.1.06-.06.09-.14.09-.24,0-.17-.1-.29-.29-.35l-.24-.07c-.25-.08-.38-.25-.39-.5,0-.15.05-.29.15-.4.11-.11.25-.17.4-.18.14,0,.26.04.38.13.12.09.18.21.19.35v.06s-.28,0-.28,0v-.05c0-.14-.14-.24-.3-.24-.15,0-.28.12-.28.27-.01.14.08.25.26.31l.23.08c.27.09.41.27.43.53.01.18-.05.34-.19.47-.14.13-.3.19-.48.18-.17-.01-.31-.08-.43-.2-.11-.12-.17-.27-.17-.44h.28v.07Z"/><path class="cls-2" d="m48.65,45.42h-.26v-.31c-.22.25-.48.37-.8.36-.28-.01-.51-.12-.71-.32-.19-.2-.29-.45-.29-.73s.11-.54.31-.75c.21-.21.46-.31.75-.3.28.01.52.12.72.32.2.2.29.45.28.72h0v1.01Zm-1.79-1.02c0,.21.06.4.21.56s.32.24.52.25c.22.01.41-.07.56-.23.16-.17.23-.36.23-.58,0-.21-.08-.39-.22-.54-.14-.15-.32-.22-.52-.22-.21,0-.39.07-.54.22-.15.15-.22.33-.23.54Z"/><path class="cls-2" d="m49.2,45.42h-.27v-2.71h.27v2.71Z"/><path class="cls-2" d="m51.27,44.56c0,.26-.08.48-.25.65-.17.17-.38.26-.63.26s-.47-.09-.64-.26c-.17-.17-.25-.39-.25-.65v-1.14h.27v1.17c0,.17.06.31.18.44.12.12.27.18.43.18s.31-.06.43-.18c.12-.12.19-.27.19-.44v-1.17h.27v1.14Z"/><path class="cls-2" d="m53.67,44.43c0,.29-.09.54-.31.75-.21.21-.46.31-.75.3-.28,0-.52-.11-.71-.32-.19-.2-.29-.45-.29-.73s.11-.54.31-.75c.21-.21.46-.31.74-.3.3.01.54.13.74.35v-1.01h.26v1.7Zm-1.06.78c.22.01.41-.06.56-.23.16-.17.23-.35.22-.58,0-.21-.08-.39-.22-.54s-.32-.22-.52-.22c-.21,0-.39.07-.54.22s-.22.33-.23.54c0,.21.07.4.21.56.14.16.32.24.52.25Z"/><path class="cls-2" d="m58.59,45.42h-.28v-1.23c0-.15-.05-.29-.13-.4-.09-.11-.21-.17-.35-.17s-.27.05-.38.14c-.11.09-.16.21-.16.36v1.29h-.28v-1.29c0-.14-.05-.26-.16-.36-.11-.09-.23-.14-.38-.14s-.26.06-.35.17c-.09.11-.13.24-.13.4v1.23h-.28v-1.2c0-.25.07-.45.21-.6.13-.14.31-.22.53-.24.29-.02.52.1.7.37.17-.27.4-.4.7-.37.22.02.39.1.53.24.14.15.22.35.22.6v1.2Z"/><path class="cls-2" d="m60.9,44.77c-.07.21-.2.39-.38.51s-.38.19-.59.19c-.27,0-.52-.09-.73-.3-.21-.21-.32-.45-.32-.73,0-.3.1-.56.32-.77.22-.22.48-.32.78-.3.27.02.5.13.7.33.19.2.28.43.28.67v.14h-1.8c.02.2.11.37.26.5.15.13.33.2.53.19.32,0,.54-.15.68-.44h.28Zm-.21-.5c-.04-.19-.13-.34-.26-.45-.14-.12-.3-.18-.5-.18-.19,0-.36.06-.51.17-.14.12-.23.27-.27.46h1.54Z"/><path class="cls-2" d="m62.96,45.42h-.27v-1.17c0-.17-.06-.31-.19-.44s-.26-.18-.43-.18-.31.06-.44.18c-.12.12-.18.27-.18.44v1.17h-.27v-1.14c0-.26.08-.47.25-.65s.38-.26.64-.26.46.09.63.26.25.39.25.65v1.14Z"/><path class="cls-2" d="m63.97,45.47c-.49,0-.73-.21-.73-.62v-2.13h.27v.7h.46v.25h-.46v1.13c0,.3.15.45.46.45v.22Z"/><path class="cls-2" d="m66.26,45.42h-.26v-.31c-.22.25-.48.37-.8.36-.28-.01-.51-.12-.71-.32-.19-.2-.29-.45-.29-.73s.11-.54.31-.75c.21-.21.46-.31.75-.3.28.01.52.12.72.32.2.2.29.45.28.72h0v1.01Zm-1.79-1.02c0,.21.06.4.21.56s.32.24.52.25c.22.01.41-.07.56-.23.16-.17.23-.36.23-.58,0-.21-.08-.39-.22-.54-.14-.15-.32-.22-.52-.22-.21,0-.39.07-.54.22-.15.15-.22.33-.23.54Z"/><path class="cls-2" d="m66.81,45.42h-.27v-2.71h.27v2.71Z"/></g><rect class="cls-2" x=".02" y="44.33" width="19.91" height=".25"/><rect class="cls-2" x="68.88" y="44.33" width="19.41" height=".24"/></g><g><path class="cls-1" d="m54.9,5.62c-4.63,3.88-9.15,7.81-14.53,10.54-1.27.64-2.62,1.17-4,1.52-3.34.84-5.37.02-7.33-2.75.77,3.44,3.27,4.94,6.51,4.39,2.67-.46,5.01-1.69,7.27-3.11,4.8-3.03,9.02-6.77,13.06-10.71.07-.07.11-.15.2-.28-2.34-.78-4.69-1.15-7.08-1.24-6.18-.24-12.12.79-17.7,3.56-2.28,1.13-4.32,2.58-5.86,4.9-.58-4.81-3.04-8.16-7.32-10.48,1.74-.55,3.3-1.1,5.01-1.02,1.78.08,3.11.99,4.26,2.45C26.85,1.43,24.95-.02,22.74,0c-1.43.01-2.9.26-4.27.69-1.49.46-2.94.54-4.45.33-3.56-.51-7.1-.19-10.63.38-.07.01-.13.06-.25.13,1.67-.09,3.26-.23,4.86-.26,2.93-.05,5.87.12,8.57,1.31,4.85,2.14,7.52,5.92,7.56,11.27.04,5.18,2.2,9.14,6.33,12.13,1.07.78,2.12,1.59,3.14,2.44,3.1,2.58,4.89,5.88,5.33,9.9.04.32.09.65.13.97.09,0,.17,0,.26,0,.02-1.04.13-2.09.04-3.11-.31-3.41-1.97-6.16-4.41-8.45-1.15-1.08-2.45-2.01-3.75-2.9-2.83-1.92-4.57-4.54-5.39-7.83-.36-1.44-.12-2.71.68-3.93,1.23-1.89,2.94-3.24,4.9-4.24,7.23-3.69,14.86-4.84,22.86-3.46.15.03.31.06.46.11.04.01.07.06.2.16Z"/><circle class="cls-1" cx="24.06" cy="2.5" r=".61"/></g><g><path class="cls-3" d="m22.73,35.52c0,.74-.07,1.45-.2,2.15-.07.4-.17.78-.29,1.16-.09.28-.35.47-.64.47h-5.97c-.37,0-.67-.3-.67-.67v-3.04c-.02-2.02-1.66-3.66-3.69-3.66-.14,0-.28,0-.42.02h0c-.78.03-1.41.3-1.92.82,0,0,0,0,0,0-.8.67-1.32,1.67-1.33,2.79v3.06c0,.37-.3.67-.67.67H.67c-.37,0-.67-.3-.67-.67V12.75c0-.37.3-.67.67-.67h6.23c.37,0,.67.3.67.67v11.15c0,.44.42.76.84.65.77-.21,1.58-.34,2.41-.37.02,0,.03,0,.05,0,.14,0,.29,0,.43,0,.02,0,.03,0,.05,0,.1,0,.2,0,.29,0,.13,0,.26,0,.38.02.9.05,1.76.21,2.59.46.01,0,.03.01.04.01.07.02.15.05.22.07.02,0,.03.01.05.02h0c3.33,1.1,5.97,3.7,7.13,7,.19.53.34,1.07.44,1.64.14.7.2,1.41.2,2.15Z"/><path class="cls-3" d="m22.73,12.77c0-.49-.27-.69-.83-.69-1.97,0-3.94,0-5.9,0-.42,0-.67.12-.78.37-.03.08-.05.17-.05.26v6.1c0,.56.38,1.04.93,1.2,1.86.53,3.62,1.38,5.19,2.51.6.43,1.44.02,1.44-.7v-9.04Z"/></g></svg>