<?xml version="1.0" encoding="utf-8"?>
<!-- Generator: Adobe Illustrator 27.2.0, SVG Export Plug-In . SVG Version: 6.00 Build 0)  -->
<svg version="1.1" id="Capa_1" xmlns="http://www.w3.org/2000/svg" xmlns:xlink="http://www.w3.org/1999/xlink" x="0px" y="0px"
	 viewBox="0 0 167 41" style="enable-background:new 0 0 167 41;" xml:space="preserve">
<style type="text/css">
	.st0{fill:#7F47DD;}
	.st1{fill:none;}
</style>
<g>
	<g>
		<path class="st0" d="M70.5,32.4c0.4-2.7-0.4-5.6-2-8.7c-4.3-8.6,0.3-19.3,9.3-22.6c9.3-3.3,19.5,1.8,22,11.2
			c2.6,9.5-3.4,19-13.1,20.9c-0.9,0.2-1.8,0.6-2.6,1.1c-2.7,1.8-5.4,3.6-8.1,5.5c-1.3,0.9-2.5,1.6-4.1,0.8c-1.6-0.9-1.6-2.3-1.5-3.9
			C70.6,35.5,70.5,34.2,70.5,32.4z M76.8,31.8c0.9-0.6,1.5-0.9,2-1.3c2.3-1.7,4.7-3.1,7.6-3.7c4.7-0.9,7.7-5,7.9-9.7
			c0.2-4.6-2.5-8.6-6.9-10.3c-4.1-1.6-9.1-0.2-11.8,3.2c-2.9,3.7-3.3,8.8-0.6,12.6c1.5,2,2,4,1.8,6.4C76.7,29.8,76.8,30.6,76.8,31.8
			z"/>
		<path class="st0" d="M120.2,1.8c2.8,0,5.6,0,8.4,0c2.4,0,3.8,1.2,3.8,3.1c0,1.9-1.4,3-3.8,3c-5.5,0-10.9,0-16.4,0
			c-1.7,0-3.1,0.5-3.3,2.5c-0.3,1.9,0.9,3.1,3,3.2c3.8,0,7.5-0.1,11.3,0c7.4,0.2,11.6,7.6,7.9,13.7c-1.7,2.9-4.4,4.4-7.7,4.4
			c-5.5,0.1-10.9,0-16.4,0c-2.3,0-3.8-1.4-3.7-3.2c0.1-1.8,1.6-3,3.9-3c5.1,0,10.2,0,15.3,0c2.5,0,3.7-0.9,3.8-2.7
			c0.1-1.9-1.3-3-3.8-3c-3.6,0-7.2,0-10.9,0c-4.8,0-8.7-3.6-9-8.3c-0.3-4.9,3.1-9.1,7.9-9.5c3.2-0.3,6.5-0.1,9.8-0.1
			C120.2,1.9,120.2,1.9,120.2,1.8z"/>
		<path class="st0" d="M47.1,31.8c-2.8,0-5.6,0-8.4,0c-2.5,0-4-1.2-4.1-3.1c0-1.9,1.4-3.1,4-3.1c5.5,0,10.9,0,16.4,0
			c2.4,0,3.7-1,3.8-2.8c0.1-1.9-1.3-3-3.8-3c-3.6,0-7.2,0-10.9,0c-4.9,0-8.8-3.8-9-8.6c-0.2-4.7,3.2-9,8-9.3
			c5.7-0.3,11.5-0.2,17.3-0.1c1.9,0,3.1,1.2,3,3.1c0,1.9-1.3,3-3.2,3c-4.7,0.1-9.3,0-14,0c-0.7,0-1.3,0-2,0c-1.8,0.1-3,0.9-3,2.9
			c0,1.9,1.2,2.8,3.1,2.8c3.8,0,7.5-0.1,11.3,0c6,0.1,10,4.7,9.2,10.6c-0.6,4.1-4.3,7.4-8.9,7.5C53,31.9,50.1,31.8,47.1,31.8z"/>
	</g>
</g>
<rect class="st1" width="167" height="41"/>
</svg>
