<?xml version="1.0" encoding="utf-8"?>
<!-- Generator: Adobe Illustrator 27.2.0, SVG Export Plug-In . SVG Version: 6.00 Build 0)  -->
<svg version="1.1" id="Capa_1" xmlns="http://www.w3.org/2000/svg" xmlns:xlink="http://www.w3.org/1999/xlink" x="0px" y="0px"
	 viewBox="0 0 171 41" style="enable-background:new 0 0 171 41;" xml:space="preserve">
<style type="text/css">
	.st0{fill:#002E2C;}
	.st1{fill:none;}
</style>
<g>
	<g>
		<g>
			<path class="st0" d="M90.4,15.9c-0.3-0.4-0.6-0.8-0.9-1.2c-1.5-1.5-2.3-3.2-2.6-5.4c-0.5-3.6-1.6-4.5-5.2-4.4
				c-1.9,0.1-3.4-0.4-4.5-2.1c-0.7-1.1-1.8-1.4-3.1-1c-0.6,0.2-1.3,0.4-1.8,0.8c-1.8,1.4-3.7,2-6,1.9c-1.3,0-2.2,0.7-2.4,2
				c-0.3,1.7-1.3,2.7-2.8,3.3c-0.5,0.2-1,0.5-1.5,0.8c-1.2,0.7-1.8,1.8-1.4,3.2c0.6,2.1,0.1,3.8-1.2,5.4c-1.3,1.7-1,3,0.7,4.3
				c0.3,0.3,0.7,0.5,1.1,0.7c1.9,0.9,2.8,2.4,2.8,4.6c0,1.8,1,2.7,2.8,2.6c2.2-0.2,3.9,0.4,5.4,2.1c1.5,1.8,5,2.1,6.7,0
				c-2.9,0.4-5.6-0.1-7.7-2.3c-2.1-2.1-4-4.3-5.9-6.5c-0.3-0.3-0.4-1-0.2-1.3c0.2-0.3,0.9-0.5,1.2-0.4c1,0.4,2,1,3,1.6
				c0.6,0.4,1.1,1,1.7,1.4c0.8,0.5,1.6,0.2,1.7-0.8c0.1-0.7,0.2-1.5,0.1-2.2c-0.4-3.5-0.9-6.9-1.3-10.3c-0.1-0.8-0.3-2,0.8-2.2
				c1.3-0.2,1.3,1,1.5,1.8c0.5,2.2,0.8,4.4,1.2,6.6c0.1,0.5,0.5,1,0.7,1.5c0.2,0,0.3-0.1,0.5-0.1c0.1-0.7,0.3-1.3,0.3-2
				c0.1-2.5,0.1-4.9,0.1-7.4c0-0.8,0.2-1.8,1.2-1.7c0.9,0.1,0.9,1,0.9,1.8c0.1,2.6,0.1,5.2,0.2,7.7c0,0.5,0.1,1,0.2,1.5
				c0.1,0,0.2,0,0.3,0c0.2-0.5,0.5-1,0.6-1.6c0.5-2.1,0.9-4.2,1.3-6.3c0.1-0.7,0.4-1.5,1.2-1.2c0.4,0.1,1,0.2,0.8,1.6
				c0,0.2-0.1,0.4-0.1,0.6c-0.4,2.1-0.8,4.2-1.2,6.3c-0.1,0.7,0,1.4,0,2.1c0.1,0,0.3,0.1,0.4,0.1c0.3-0.4,0.6-0.7,0.8-1.1
				c0.7-1.3,1.3-2.7,1.9-4c0.2-0.4,0.4-0.8,0.7-1.1c0.3-0.2,0.8-0.4,1-0.3c0.2,0.1,0.4,0.7,0.4,1c-0.2,0.7-0.5,1.4-0.7,2.1
				c-0.6,1.7-1.4,3.4-1.9,5.2c-0.6,2.2-0.9,4.4-1.3,6.7c0.7-0.1,1.4-0.3,2.2-0.4c3.4-0.7,4.1-1.5,4.4-4.9c0.1-1.9,0.7-3.4,2.3-4.5
				c0.2-0.1,0.4-0.3,0.5-0.5C91.2,18.7,91.3,17.4,90.4,15.9z M60.5,19.4c-1,0.8-1.1,1.3-0.1,2.5c-1.4-0.4-1.8-1.8-0.8-2.8
				c0.1-0.1,0.3-0.3,0.4-0.4c1.5-1.2,1.6-1.4,1-3.2c-0.1-0.2-0.1-0.5-0.2-0.9C62.6,16.7,62.5,17.9,60.5,19.4z M63,11.5
				c2.5-0.4,3.4-2.2,3.5-4.4C66.4,11.1,66.3,11.3,63,11.5z M73.3,5.9c-0.6,0.4-1.4,0.7-2.2,0.8c0.8-0.6,1.6-1.1,2.5-1.7
				c1.5-1,2.4-0.8,3.4,1C75.6,4.6,74.5,5,73.3,5.9z M83.7,12.5c-0.2-0.9-0.1-1.8-0.2-2.7c-0.1-0.8-0.5-1.6-0.7-2.4
				c1.2,0.5,1.5,1.7,1.5,2.9c0,1.4-0.1,2.8,1.1,3.8C84.4,14,83.9,13.4,83.7,12.5z M85.1,21.8c-0.5,0.9-0.5,2.1-0.7,3
				c-1.2-2-0.7-3.3,2.7-5.5C86.4,20.1,85.5,20.9,85.1,21.8z"/>
		</g>
		<g>
			<path class="st0" d="M80.3,29.9c-0.2,1.8-1.6,3.2-3.7,3.2c-2.3,0-3.7-1.7-3.7-3.7c0-2.1,1.5-3.8,3.7-3.8c2,0,3.4,1.4,3.6,3.1
				h-1.8c-0.2-0.8-0.9-1.4-1.8-1.3c-1.2,0-1.9,0.9-1.9,2c0,1.1,0.7,2,1.9,2c1,0,1.7-0.5,1.9-1.4H80.3z"/>
			<path class="st0" d="M83.8,30.5H85v3.9h-1.3v-0.5h0c-0.2,0.3-0.7,0.6-1.3,0.6c-1.1,0-1.9-0.8-1.9-2.1c0-1.2,0.8-2.1,1.9-2.1
				c0.6,0,1,0.3,1.3,0.6h0V30.5z M83.8,32.4c0-0.5-0.4-0.9-1-0.9c-0.5,0-1,0.4-1,0.9s0.4,0.9,1,0.9C83.4,33.4,83.8,33,83.8,32.4z"/>
			<path class="st0" d="M89.7,32.6c-0.2-0.4-0.5-0.7-1-0.7c-0.8,0-1.2,0.6-1.2,1.3c0,0.7,0.5,1.3,1.2,1.3c0.5,0,0.9-0.3,1-0.7h1.9
				c-0.2,1.4-1.3,2.4-2.9,2.4c-1.9,0-3-1.3-3-3.1c0-1.7,1.1-3.1,3-3.1c1.6,0,2.7,1,2.9,2.4H89.7z"/>
			<path class="st0" d="M100.6,33.9l-2.2,1.3c0.2,0.2,0.5,0.3,0.9,0.1c0.2-0.1,0.4-0.4,0.4-0.6l1-0.6c0.2,0.8-0.2,1.6-0.9,2
				c-1,0.6-2,0.2-2.5-0.6c-0.6-0.9-0.3-2,0.6-2.6C98.9,32.3,100,32.7,100.6,33.9z M98,34.5l1.2-0.8c-0.2-0.2-0.6-0.2-0.9,0
				C98.1,33.9,97.9,34.2,98,34.5z"/>
			<path class="st0" d="M104.8,33.1h-1.8v1.6c0,0.2,0.1,0.3,0.3,0.3h1.5v1.4H103c-0.9,0-1.5-0.6-1.5-1.5v-1.8h-0.6v-1.4h0.6v-1.6
				h1.5v1.6h1.8V33.1z"/>
			<path class="st0" d="M107.3,33.5h0.9v2.8h-0.9V36h0c-0.2,0.2-0.5,0.4-0.9,0.4c-0.7,0-1.3-0.6-1.3-1.5c0-0.9,0.5-1.5,1.3-1.5
				c0.4,0,0.7,0.2,0.9,0.4h0V33.5z M107.3,34.9c0-0.4-0.3-0.7-0.7-0.7c-0.4,0-0.7,0.3-0.7,0.7c0,0.4,0.3,0.7,0.7,0.7
				C107,35.6,107.3,35.3,107.3,34.9z"/>
			<path class="st0" d="M110.2,35.1l1.5,0.4l-0.2,0.9l-2.7-0.7l0.2-0.8l1.7-1l-1.4-0.3l0.2-0.9l2.6,0.7l-0.2,0.8L110.2,35.1z"/>
			<path class="st0" d="M112.4,34.4c0-1.2,0.8-2.1,2.1-2.1s2.1,0.9,2.1,2.1c0,1.2-0.8,2.1-2.1,2.1S112.4,35.6,112.4,34.4z
				 M115.4,34.4c0-0.5-0.4-0.9-0.9-0.9s-0.9,0.4-0.9,0.9c0,0.5,0.4,0.9,0.9,0.9S115.4,34.9,115.4,34.4z"/>
			<path class="st0" d="M96.9,35.4c0,0.2,0,0.3,0,0.5c0,0.1,0,0.2-0.1,0.3c0,0.1-0.1,0.1-0.2,0.1h-1.3c-0.1,0-0.2-0.1-0.2-0.2v-0.7
				c0-0.5-0.4-0.8-0.8-0.8c0,0-0.1,0-0.1,0h0c-0.2,0-0.3,0.1-0.4,0.2c0,0,0,0,0,0c-0.2,0.1-0.3,0.4-0.3,0.6v0.7
				c0,0.1-0.1,0.2-0.2,0.2H92c-0.1,0-0.2-0.1-0.2-0.2v-5.8c0-0.1,0.1-0.2,0.2-0.2h1.4c0.1,0,0.2,0.1,0.2,0.2v2.5
				c0,0.1,0.1,0.2,0.2,0.2c0.2,0,0.3-0.1,0.5-0.1c0,0,0,0,0,0c0,0,0.1,0,0.1,0c0,0,0,0,0,0c0,0,0,0,0.1,0c0,0,0.1,0,0.1,0
				c0.2,0,0.4,0,0.6,0.1c0,0,0,0,0,0c0,0,0,0,0,0c0,0,0,0,0,0v0c0.7,0.2,1.3,0.8,1.6,1.6c0,0.1,0.1,0.2,0.1,0.4
				C96.9,35.1,96.9,35.3,96.9,35.4z"/>
		</g>
		<g>
			<g>
				<path class="st0" d="M105.1,40.9h-0.4v-3.4l-1.4,3.4h-0.3l-1.4-3.3l0,3.3h-0.4v-3.8h0.6l1.4,3.3l1.4-3.3h0.6V40.9z"/>
				<path class="st0" d="M108.3,40c-0.1,0.3-0.3,0.5-0.5,0.7S107.3,41,107,41c-0.4,0-0.7-0.1-1-0.4c-0.3-0.3-0.4-0.6-0.5-1
					c0-0.4,0.1-0.8,0.4-1.1c0.3-0.3,0.7-0.4,1.1-0.4c0.4,0,0.7,0.2,1,0.5c0.3,0.3,0.4,0.6,0.4,0.9v0.2h-2.5c0,0.3,0.1,0.5,0.4,0.7
					c0.2,0.2,0.5,0.3,0.7,0.3c0.4,0,0.8-0.2,1-0.6H108.3z M108,39.3c-0.1-0.3-0.2-0.5-0.4-0.6c-0.2-0.2-0.4-0.2-0.7-0.3
					c-0.3,0-0.5,0.1-0.7,0.2c-0.2,0.2-0.3,0.4-0.4,0.6H108z"/>
				<path class="st0" d="M111.2,40.9h-0.4v-1.6c0-0.2-0.1-0.4-0.3-0.6c-0.2-0.2-0.4-0.3-0.6-0.3c-0.2,0-0.4,0.1-0.6,0.3
					c-0.2,0.2-0.3,0.4-0.3,0.6v1.6h-0.4v-1.6c0-0.4,0.1-0.7,0.4-0.9c0.2-0.2,0.5-0.4,0.9-0.4c0.4,0,0.7,0.1,0.9,0.4
					c0.2,0.2,0.4,0.5,0.4,0.9V40.9z"/>
				<path class="st0" d="M112.6,41c-0.7,0-1-0.3-1-0.9v-3h0.4v1h0.6v0.4H112V40c0,0.4,0.2,0.6,0.6,0.6V41z"/>
				<path class="st0" d="M115.9,40.9h-0.4v-0.4c-0.3,0.4-0.7,0.5-1.1,0.5c-0.4,0-0.7-0.2-1-0.4c-0.3-0.3-0.4-0.6-0.4-1
					c0-0.4,0.1-0.8,0.4-1.1c0.3-0.3,0.6-0.4,1.1-0.4c0.4,0,0.7,0.2,1,0.5c0.3,0.3,0.4,0.6,0.4,1v0V40.9z M113.3,39.5
					c0,0.3,0.1,0.6,0.3,0.8c0.2,0.2,0.4,0.3,0.7,0.4c0.3,0,0.6-0.1,0.8-0.3c0.2-0.2,0.3-0.5,0.3-0.8c0-0.3-0.1-0.5-0.3-0.8
					c-0.2-0.2-0.4-0.3-0.7-0.3c-0.3,0-0.6,0.1-0.8,0.3C113.4,38.9,113.3,39.2,113.3,39.5z"/>
				<path class="st0" d="M116.6,40.9h-0.4v-3.8h0.4V40.9z"/>
			</g>
		</g>
	</g>
	<g>
		<g>
			<g>
				<path class="st0" d="M91.7,15c-0.3-0.5-0.7-1-1.2-1.4c-1.2-1.1-1.9-2.5-2.1-4.4c-0.6-4.4-2.4-6-6.8-5.8C80,3.4,79.1,3,78.5,2
					c-1.1-1.7-3-2.3-5-1.7c-0.1,0-0.1,0-0.2,0.1l-0.2,0c-0.6,0.2-1.3,0.4-2,0.9c-1.4,1.1-3,1.6-4.9,1.5c-2.2-0.1-3.8,1.3-4.1,3.3
					c-0.1,1-0.6,1.5-1.8,2.1c-0.6,0.3-1.1,0.6-1.7,0.9c-1.9,1.1-2.7,3.1-2.2,5.1c0.4,1.4,0.1,2.6-0.9,4c-0.9,1.2-1.2,2.3-1.1,3.4
					c0.2,1.2,0.9,2.2,2.2,3.2l0.1,0c0.3,0.3,0.8,0.6,1.3,0.8c1.3,0.6,1.9,1.6,1.9,3.1c0,1.4,0.5,2.5,1.3,3.2c0.8,0.7,1.9,1,3.3,0.9
					c1.8-0.1,2.9,0.3,4,1.6c1,1.2,2.6,1.9,4.3,2c0.1,0,0.2,0,0.3,0c1.6,0,3.1-0.6,4.1-1.6l0.2-0.1l0-0.1c0.1-0.3,0.1-0.7,0.1-1
					c-0.1,0.1-0.2,0.2-0.2,0.3c-0.1,0.1-0.1,0.2-0.2,0.3l-0.1,0.2l-0.1,0.1c-1,0.9-2.4,1.5-3.8,1.5c-0.1,0-0.2,0-0.3,0
					c-1.6-0.1-3.1-0.8-4-1.9c-1-1.2-2.1-1.8-3.7-1.8c-0.2,0-0.4,0-0.7,0c-1.2,0.1-2.2-0.2-2.9-0.8c-0.7-0.6-1.1-1.6-1.1-2.9
					c0-1.7-0.7-2.8-2.2-3.6c-0.5-0.2-0.9-0.5-1.2-0.8l-0.1,0c-1.2-0.9-1.8-1.8-2-2.9c-0.1-1,0.2-2,1-3.1c1.2-1.5,1.5-2.8,1-4.4
					c-0.5-1.8,0.2-3.5,1.9-4.5c0.6-0.3,1.1-0.6,1.7-0.9c1.3-0.6,1.9-1.3,2.1-2.4c0.3-1.8,1.7-3,3.6-2.9c2.1,0.1,3.7-0.5,5.2-1.6
					C72,1.2,72.7,1,73.3,0.9l0.2,0c0.1,0,0.1,0,0.2-0.1c1.8-0.6,3.5,0,4.4,1.5c0.8,1.2,1.8,1.6,3.5,1.6c4.2-0.1,5.8,1.3,6.4,5.4
					c0.3,2,1,3.4,2.2,4.7c0.5,0.4,0.8,0.9,1.1,1.4c1.2,1.8,1.1,3.5-0.1,5.1l-0.1,0.2l0,0l-0.2,0.3c-0.1,0.1-0.1,0.1-0.2,0.2
					l-0.2,0.2c-0.1,0.1-0.2,0.2-0.3,0.3c-1.1,0.8-1.6,1.8-1.8,3.7c-0.2,2.9-0.8,4.3-2.7,5.1c0.1,0.1,0.2,0.2,0.4,0.3
					c1.8-1,2.5-2.5,2.8-5.4c0.1-1.7,0.6-2.6,1.6-3.3c0.1,0,0.1-0.1,0.2-0.1l0,0l0.3-0.4c0.1-0.1,0.2-0.2,0.2-0.2l0.5-0.6l0,0
					C92.9,18.7,92.9,16.9,91.7,15z"/>
			</g>
		</g>
	</g>
</g>
<rect y="0" class="st1" width="171" height="41"/>
</svg>
