<?xml version="1.0" encoding="UTF-8"?>
<svg id="Capa_1" data-name="Capa 1" xmlns="http://www.w3.org/2000/svg" viewBox="0 0 203 43.63">
  <defs>
    <style>
      .cls-1 {
        fill: #005855;
      }

      .cls-2 {
        fill: #b8c46c;
      }

      .cls-3 {
        fill: #429a93;
      }
    </style>
  </defs>
  <g>
    <path class="cls-3" d="m99.13,32.29h-7.08c.2.75.85,1.42,1.99,1.51.75.06,1.55-.26,1.87-.75h3.17c-.63,2.24-2.65,3.44-4.99,3.44-3.36,0-5.09-2.46-5.09-5.21,0-2.95,2.12-5.21,5.15-5.21,3.28,0,5.39,2.63,4.99,6.21Zm-7.04-2.26h4.03c-.28-.83-1.04-1.28-2.01-1.28s-1.75.49-2.03,1.28Z"/>
    <path class="cls-3" d="m108.51,26.37v2.95h-5.29c-.14,0-.22.1-.22.2,0,.08.08.18.18.2l3.52.69c1.51.29,2.52,1.34,2.52,2.73,0,1.81-1.51,3.07-3.4,3.07h-5.64v-2.95h5.62c.14,0,.22-.1.22-.2,0-.08-.04-.18-.18-.22l-3.58-.77c-1.46-.31-2.5-1.34-2.5-2.67,0-1.79,1.48-3.03,3.36-3.03h5.39Z"/>
    <path class="cls-3" d="m116.73,30.18c-.26-.69-.92-1.16-1.77-1.16-1.34,0-2.12,1.04-2.12,2.28s.79,2.24,2.12,2.24c.85,0,1.51-.47,1.77-1.14h3.21c-.39,2.38-2.26,4.09-4.99,4.09-3.21,0-5.15-2.28-5.15-5.21s1.95-5.21,5.15-5.21c2.75,0,4.62,1.71,4.99,4.11h-3.21Z"/>
    <path class="cls-3" d="m128.15,26.37h3.03v9.83h-3.03v-1.2h-.08c-.59.85-1.67,1.49-3.03,1.49-2.58,0-4.54-2.06-4.54-5.17s1.85-5.25,4.54-5.25c1.36,0,2.44.65,3.03,1.49h.08v-1.2Zm0,4.92c0-1.34-.96-2.34-2.28-2.34s-2.28.96-2.28,2.34.98,2.34,2.28,2.34,2.28-1.06,2.28-2.34Z"/>
    <path class="cls-3" d="m143.55,31.32c0,3.11-1.97,5.17-4.54,5.17-1.36,0-2.44-.65-3.03-1.49h-.08v6.05h-3.03v-14.68h3.03v1.2h.08c.59-.85,1.67-1.49,3.03-1.49,2.69,0,4.54,2.22,4.54,5.25Zm-3.09-.04c0-1.38-.98-2.34-2.28-2.34s-2.28,1-2.28,2.34.92,2.34,2.28,2.34,2.28-.96,2.28-2.34Z"/>
    <path class="cls-3" d="m151.87,26.37h3.03v9.83h-3.03v-1.2h-.08c-.59.85-1.67,1.49-3.03,1.49-2.58,0-4.54-2.06-4.54-5.17s1.85-5.25,4.54-5.25c1.36,0,2.44.65,3.03,1.49h.08v-1.2Zm0,4.92c0-1.34-.96-2.34-2.28-2.34s-2.28.96-2.28,2.34.98,2.34,2.28,2.34,2.28-1.06,2.28-2.34Z"/>
  </g>
  <path class="cls-3" d="m74.49,30.03h6.02c.28,0,.5.22.5.5v1.26c0,.28-.22.5-.5.5h-5.99c-.27,0-.49-.22-.5-.49l-.03-1.26c0-.28.22-.51.5-.51Z"/>
  <g>
    <g>
      <path class="cls-2" d="m70.97,42.46h-.24v-1.55h0c0-.28.1-.51.29-.7.19-.19.42-.29.69-.28.25,0,.47.1.65.29s.27.41.27.67-.1.5-.29.69c-.19.19-.42.28-.68.27-.27,0-.5-.12-.68-.33v.92Zm.73-2.28c-.2,0-.37.06-.52.21-.14.15-.21.33-.21.53,0,.19.07.36.21.5.13.14.29.21.48.21s.36-.07.5-.21c.14-.14.21-.3.21-.5,0-.19-.06-.36-.19-.51-.13-.15-.29-.22-.48-.23Z"/>
      <path class="cls-2" d="m73.11,41.33c0,.06.04.13.1.19.07.07.14.1.22.1.1,0,.18-.03.24-.09.05-.05.08-.13.08-.22,0-.16-.09-.26-.27-.32l-.22-.07c-.23-.07-.34-.23-.35-.46,0-.14.04-.26.14-.36.1-.1.23-.15.37-.16.13,0,.24.04.35.12.11.09.17.19.18.32v.05s-.25,0-.25,0v-.04c0-.13-.13-.22-.27-.22-.14,0-.25.11-.26.25,0,.13.07.23.24.28l.21.07c.24.08.38.25.39.49.01.16-.05.31-.17.43-.13.12-.28.17-.44.16-.15,0-.28-.07-.39-.19-.1-.11-.15-.25-.15-.41h.25v.06Z"/>
      <path class="cls-2" d="m74.5,39.76h-.24v-.43h.24v.43Zm0,2.06h-.24v-1.84h.24v1.84Z"/>
      <path class="cls-2" d="m76.65,41.33c-.19.36-.49.53-.9.53-.27,0-.5-.1-.69-.28-.19-.18-.29-.41-.29-.67,0-.27.09-.49.28-.68.2-.19.43-.29.7-.29.19,0,.37.05.54.15.16.1.27.22.34.37l.04.08h-.28c-.14-.24-.35-.36-.63-.36-.19,0-.36.06-.51.21-.16.15-.24.32-.24.52s.07.37.22.52c.15.14.32.21.52.21.29,0,.5-.12.64-.34h.28l-.03.05Z"/>
      <path class="cls-2" d="m78.4,41.58c-.19.19-.42.28-.68.27-.25,0-.47-.1-.65-.29s-.26-.41-.26-.67.1-.5.29-.69c.19-.19.42-.29.68-.28.25,0,.47.11.65.3.18.19.27.41.27.67s-.1.49-.29.69Zm-.68.03c.2,0,.37-.06.52-.21.14-.15.21-.33.21-.53,0-.19-.08-.36-.21-.5-.13-.14-.29-.21-.48-.21-.2,0-.36.07-.5.21s-.21.3-.21.5c0,.19.06.36.19.51.13.14.29.22.48.23Z"/>
      <path class="cls-2" d="m79.18,41.81h-.24v-2.48h.24v2.48Z"/>
      <path class="cls-2" d="m81.06,41.58c-.19.19-.42.28-.68.27-.25,0-.47-.1-.65-.29s-.26-.41-.26-.67.1-.5.29-.69c.19-.19.42-.29.68-.28.25,0,.47.11.65.3.18.19.27.41.27.67s-.1.49-.29.69Zm-.68.03c.2,0,.37-.06.52-.21.15-.15.21-.33.21-.53,0-.19-.08-.36-.21-.5-.13-.14-.29-.21-.48-.21-.2,0-.36.07-.5.21s-.21.3-.21.5c0,.19.06.36.19.51.13.14.29.22.48.23Z"/>
      <path class="cls-2" d="m83.48,41.73c0,.23-.1.43-.29.58-.19.15-.41.23-.65.22-.22,0-.41-.07-.57-.2-.15-.12-.25-.27-.3-.46h.24c.04.13.12.24.24.33.13.09.26.14.42.14.18,0,.34-.06.47-.19.13-.12.2-.27.2-.44v-.17c-.18.21-.41.32-.68.33-.26,0-.49-.08-.68-.27-.19-.19-.29-.43-.29-.69s.09-.48.26-.67c.18-.19.4-.28.65-.29.26,0,.49.09.69.28.2.19.29.42.29.68v.85Zm-.45-.33c.13-.14.2-.3.21-.5,0-.2-.06-.38-.21-.53-.14-.15-.31-.22-.52-.21-.19,0-.35.09-.48.23s-.2.31-.19.51c0,.2.07.36.21.5s.3.21.5.21.35-.07.48-.21Z"/>
      <path class="cls-2" d="m83.74,39.98v1.84h.24v-1.84h-.24Zm.33-.65l-.33.43h.24l.33-.43h-.24Z"/>
      <path class="cls-2" d="m86.14,41.81h-.24v-.29c-.2.23-.44.34-.73.33-.25,0-.47-.11-.65-.29-.18-.19-.27-.41-.27-.67s.1-.5.29-.69c.19-.19.42-.28.69-.27.26,0,.48.11.66.3.18.19.27.41.26.66h0v.92Zm-1.64-.94c0,.19.06.36.19.51.13.15.29.22.48.23.2,0,.37-.06.52-.21.14-.15.21-.33.21-.53,0-.19-.07-.36-.21-.5-.13-.14-.29-.21-.48-.21-.2,0-.36.07-.5.21-.14.14-.21.3-.21.5Z"/>
      <path class="cls-2" d="m88.7,42.45h-.26l.28-.7-.7-1.78h.27l.59,1.46.62-1.46h.26l-1.04,2.48Z"/>
      <path class="cls-2" d="m91.81,41.33c0,.06.04.13.1.19.07.07.14.1.22.1.1,0,.18-.03.24-.09.05-.05.08-.13.08-.22,0-.16-.09-.26-.27-.32l-.22-.07c-.23-.07-.34-.23-.35-.46,0-.14.04-.26.14-.36.1-.1.23-.15.37-.16.13,0,.24.04.35.12.11.09.17.19.18.32v.05s-.25,0-.25,0v-.04c0-.13-.13-.22-.27-.22-.14,0-.25.11-.26.25,0,.13.07.23.24.28l.21.07c.24.08.38.25.39.49.01.16-.05.31-.17.43-.13.12-.28.17-.44.16-.15,0-.28-.07-.39-.19-.1-.11-.15-.25-.15-.41h.25v.06Z"/>
      <path class="cls-2" d="m94.84,41.81h-.24v-.29c-.2.23-.44.34-.73.33-.25,0-.47-.11-.65-.29-.18-.19-.27-.41-.27-.67s.1-.5.29-.69c.19-.19.42-.28.69-.27.26,0,.48.11.66.3.18.19.27.41.26.66h0v.92Zm-1.64-.94c0,.19.06.36.19.51s.29.22.48.23c.2,0,.37-.06.52-.21.15-.15.21-.33.21-.53,0-.19-.07-.36-.21-.5-.13-.14-.29-.21-.48-.21-.2,0-.36.07-.5.21-.14.14-.21.3-.21.5Z"/>
      <path class="cls-2" d="m95.34,41.81h-.24v-2.48h.24v2.48Z"/>
      <path class="cls-2" d="m97.24,41.02c0,.24-.08.44-.23.6-.15.16-.34.24-.58.24s-.43-.08-.58-.24c-.15-.16-.23-.36-.23-.6v-1.05h.25v1.08c0,.15.05.29.17.4.11.11.24.16.4.16s.28-.05.39-.16c.11-.11.17-.24.17-.4v-1.08h.25v1.05Z"/>
      <path class="cls-2" d="m99.44,40.9c0,.26-.09.49-.28.69-.2.19-.43.28-.69.27-.25,0-.47-.1-.65-.29-.18-.19-.26-.41-.26-.67s.1-.5.29-.69c.19-.19.42-.29.68-.28.27,0,.5.12.68.33v-.92h.24v1.56Zm-.97.72c.2,0,.37-.06.52-.21.15-.15.21-.33.21-.53,0-.19-.07-.36-.21-.5s-.29-.21-.48-.21c-.19,0-.36.07-.5.21s-.21.3-.21.5c0,.19.06.36.19.51.13.15.29.22.48.23Z"/>
      <path class="cls-2" d="m103.95,41.81h-.25v-1.13c0-.14-.04-.26-.12-.36-.08-.1-.19-.15-.32-.15s-.25.05-.35.13c-.1.09-.15.2-.15.33v1.18h-.26v-1.18c0-.13-.05-.24-.15-.33-.1-.09-.21-.13-.35-.13s-.24.05-.32.15c-.08.1-.12.22-.12.36v1.13h-.25v-1.1c0-.23.06-.42.2-.55.12-.13.28-.21.48-.22.27-.02.48.09.64.34.16-.25.37-.36.64-.34.2.02.36.09.49.22.13.14.2.33.2.55v1.1Z"/>
      <path class="cls-2" d="m106.07,41.21c-.07.2-.18.35-.35.47s-.34.17-.54.18c-.25,0-.47-.09-.67-.27-.19-.19-.29-.41-.3-.67,0-.27.09-.51.29-.71.2-.2.44-.29.71-.28.24.02.46.12.64.3.17.18.26.39.26.62v.13h-1.65c.02.18.1.34.24.46.14.12.3.18.49.18.29,0,.5-.14.62-.4h.26Zm-.2-.46c-.04-.17-.12-.31-.24-.42-.13-.11-.28-.16-.45-.16-.18,0-.33.05-.46.16-.13.11-.21.25-.25.42h1.41Z"/>
      <path class="cls-2" d="m107.96,41.81h-.25v-1.07c0-.15-.06-.29-.17-.4s-.24-.17-.39-.17-.29.05-.4.17c-.11.11-.17.24-.17.4v1.07h-.25v-1.05c0-.24.08-.43.23-.59s.35-.24.58-.24.43.08.58.24.23.35.23.59v1.05Z"/>
      <path class="cls-2" d="m108.88,41.85c-.45,0-.67-.19-.67-.57v-1.95h.25v.64h.42v.23h-.42v1.04c0,.27.14.41.42.41v.2Z"/>
      <path class="cls-2" d="m110.98,41.81h-.24v-.29c-.2.23-.44.34-.73.33-.25,0-.47-.11-.65-.29-.18-.19-.27-.41-.27-.67s.1-.5.29-.69c.19-.19.42-.28.69-.27.26,0,.48.11.66.3.18.19.27.41.26.66h0v.92Zm-1.64-.94c0,.19.06.36.19.51s.29.22.48.23c.2,0,.37-.06.52-.21.15-.15.21-.33.21-.53,0-.19-.07-.36-.21-.5-.13-.14-.29-.21-.48-.21-.2,0-.36.07-.5.21-.14.14-.21.3-.21.5Z"/>
      <path class="cls-2" d="m111.49,41.81h-.24v-2.48h.24v2.48Z"/>
    </g>
    <rect class="cls-2" x="50.25" y="40.81" width="18.26" height=".23"/>
    <rect class="cls-2" x="113.38" y="40.81" width="17.8" height=".22"/>
  </g>
  <g>
    <path class="cls-1" d="m100.57,5.31c-4.25,3.56-8.39,7.16-13.32,9.67-1.16.59-2.41,1.07-3.67,1.39-3.06.77-4.93.02-6.72-2.52.71,3.15,3,4.53,5.97,4.02,2.44-.42,4.6-1.55,6.66-2.86,4.4-2.78,8.27-6.2,11.98-9.82.06-.06.1-.14.18-.26-2.15-.71-4.3-1.05-6.49-1.14-5.67-.22-11.11.73-16.23,3.26-2.09,1.04-3.96,2.36-5.37,4.49-.53-4.41-2.78-7.49-6.71-9.61,1.6-.51,3.03-1.01,4.59-.94,1.64.07,2.86.91,3.9,2.24-.51-1.78-2.25-3.11-4.28-3.09-1.31.01-2.66.24-3.92.63-1.37.43-2.69.5-4.08.3-3.27-.47-6.51-.18-9.74.35-.06,0-.12.06-.23.12,1.53-.08,2.99-.21,4.46-.24,2.68-.04,5.38.11,7.86,1.2,4.45,1.96,6.9,5.43,6.93,10.34.03,4.75,2.01,8.38,5.8,11.12.98.71,1.95,1.46,2.88,2.23,2.84,2.37,4.48,5.39,4.89,9.08.03.3.08.59.12.89.08,0,.16,0,.24,0,.02-.95.12-1.91.04-2.86-.28-3.12-1.81-5.65-4.05-7.75-1.05-.99-2.24-1.85-3.44-2.66-2.6-1.76-4.19-4.16-4.95-7.18-.33-1.32-.11-2.48.62-3.6,1.13-1.73,2.7-2.97,4.5-3.89,6.63-3.38,13.62-4.44,20.96-3.17.14.02.28.06.42.1.04.01.07.05.19.15Z"/>
    <circle class="cls-1" cx="72.29" cy="2.45" r=".55"/>
  </g>
  <g>
    <path class="cls-3" d="m71.07,32.74c0,.67-.06,1.33-.19,1.97-.07.36-.16.72-.26,1.07-.08.26-.32.44-.59.44h-5.48c-.34,0-.62-.28-.62-.62v-2.79c-.02-1.85-1.52-3.35-3.38-3.35-.13,0-.26,0-.39.02h0c-.72.03-1.3.28-1.76.75,0,0,0,0,0,0-.74.61-1.21,1.53-1.22,2.56v2.8c0,.34-.28.62-.62.62h-5.71c-.34,0-.62-.28-.62-.62V11.86c0-.34.28-.62.62-.62h5.71c.34,0,.62.28.62.62v10.22c0,.4.38.7.77.59.71-.19,1.45-.31,2.21-.34.02,0,.03,0,.05,0,.13,0,.26,0,.4,0,.02,0,.03,0,.05,0,.09,0,.18,0,.27,0,.12,0,.24,0,.35.02.82.05,1.62.19,2.38.42.01,0,.03,0,.04.01.07.02.13.04.2.06.02,0,.03.01.05.02h0c3.05,1.01,5.47,3.39,6.54,6.42.17.48.31.99.41,1.5.12.64.19,1.3.19,1.97Z"/>
    <path class="cls-3" d="m71.07,11.87c0-.45-.24-.63-.76-.63-1.8,0-3.61,0-5.41,0-.38,0-.62.11-.72.34-.03.07-.04.15-.04.23v5.59c0,.51.35.96.85,1.1,1.71.49,3.32,1.26,4.76,2.3.55.39,1.32.02,1.32-.64v-8.28Z"/>
  </g>
</svg>