<?xml version="1.0" encoding="UTF-8"?>
<svg id="Capa_1" data-name="Capa 1" xmlns="http://www.w3.org/2000/svg" viewBox="0 0 31.03 31">
  <defs>
    <style>
      .cls-1 {
        fill: #fff;
      }

      .cls-2 {
        fill: none;
      }
    </style>
  </defs>
  <rect class="cls-2" x=".03" width="31" height="31"/>
  <g id="_377_-_choice_conclusion_court_judgment_law" data-name="377 -  choice, conclusion, court, judgment, law">
    <g>
      <path class="cls-1" d="m17.34,7.15c0-.95-.79-1.73-1.79-1.73s-1.79.79-1.79,1.73.79,1.73,1.79,1.73c.95.05,1.79-.74,1.79-1.73Zm-1.79.47c-.26,0-.47-.21-.47-.42,0-.26.21-.42.47-.42s.47.21.47.42-.21.42-.47.42Z"/>
      <path class="cls-1" d="m30.21,29.53h-2.78l-.11-.47c-.63-2.26-2.63-3.89-4.94-4.1l.05-1.94c0-.37-.26-.68-.63-.68h-3.89l-1.52-11.51c1.47-.32,2.63-1.47,2.89-2.94h4.89l-2.99,6.62h-1.31c-.37,0-.68.32-.68.68,0,3.2,2.63,5.83,5.83,5.83s5.83-2.63,5.83-5.83c0-.37-.32-.68-.68-.68h-1.42l-2.73-6.67h3.57c.37,0,.68-.32.68-.68s-.32-.68-.68-.68h-3.94v-1.31c0-.37-.32-.68-.68-.68s-.63.42-.63.79v1.31h-5.1c-.26-1.58-1.52-2.78-3.05-3.05v-1.84c0-.37-.32-.68-.68-.68s-.63.26-.63.63v1.89c-1.52.26-2.73,1.52-3,3.05h-4.62v-1.31c0-.37-.32-.68-.68-.68s-.68.32-.68.68v1.31H1.79c-.37,0-.68.32-.68.68s.32.68.68.68h3.78l-2.73,6.67h-1.42c-.37,0-.68.32-.68.68,0,3.21,2.63,5.83,5.83,5.83s5.83-2.63,5.83-5.83c0-.37-.32-.68-.68-.68h-1.31l-2.94-6.67h4.26c.26,1.47,1.42,2.63,2.89,2.94l-1,11.51h-4.52c-.37,0-.68.32-.68.68v2.1c-2.05.42-3.73,1.94-4.31,3.99l-.11.47H.68c-.37,0-.68.32-.68.68s.32.68.68.68h29.42c.37,0,.68-.32.68-.68.11-.47-.21-.79-.58-.79Zm-5.2-9.83c-2.26,0-4.15-1.68-4.47-3.84h8.93c-.32,2.15-2.21,3.84-4.47,3.84Zm-2.36-5.2l2.47-5.62,2.31,5.62h-4.78Zm-6.99,1.16c.11.68.79,6.15.95,7.41h-1.63c.11-.58.63-6.99.68-7.41Zm-8.98,4.05c-2.26,0-4.15-1.68-4.47-3.84h8.93c-.32,2.15-2.21,3.84-4.47,3.84Zm-2.36-5.2l2.31-5.62,2.47,5.62h-4.78Zm8.83-7.36c0-1.31,1.1-2.42,2.42-2.42s2.42,1.1,2.42,2.42-1.1,2.42-2.42,2.42-2.42-1.1-2.42-2.42Zm-3.26,16.5h3.78v.21c.05.31.32.53.63.53,3.26,0,3.05,0,3.15,0,.26-.05.47-.21.58-.47.05-.16,0-.26,0-.26h3.05v1.31h-11.19v-1.31Zm-4.36,5.88v-.11c.53-1.89,2.26-3.2,4.26-3.2h12.08c1.94,0,3.68,1.31,4.26,3.2v.11H5.52Z"/>
      <rect class="cls-1" x="1.47" y="2.63" width="1.31" height="1.31"/>
      <rect class="cls-1" x="2.78" y="1.31" width="1.31" height="1.31"/>
      <path class="cls-1" d="m5.41,3.89v-1.21q0-.05-.05-.05h-1.21q-.05,0-.05.05v1.21q0,.05.05.05l1.26-.05c0,.05,0,0,0,0Z"/>
      <path class="cls-1" d="m3.47,4.57h0l-.05,1.26q0,.05.05.05h1.21q.05,0,.05-.05v-1.21q0-.05-.05-.05h-1.21Z"/>
      <path class="cls-1" d="m6.78,1.94h1.21q.05,0,.05-.05V.68q0-.05-.05-.05h-1.21q-.05,0-.05.05l.05,1.26q-.05,0,0,0Z"/>
      <path class="cls-1" d="m4.15,1.31h1.21q.05,0,.05-.05V.05q0-.05-.05-.05h-1.21q-.05,0-.05.05l.05,1.26c-.05-.05-.05,0,0,0Z"/>
      <path class="cls-1" d="m20.54,3.94h1.21q.05,0,.05-.05v-1.21q0-.05-.05-.05h-1.21q-.05,0-.05.05l.05,1.26c0-.05,0,0,0,0Z"/>
      <path class="cls-1" d="m21.86,2.63h1.21q.05,0,.05-.05v-1.21q0-.05-.05-.05h-1.21q-.05,0-.05.05l.05,1.26c0-.05,0,0,0,0Z"/>
      <path class="cls-1" d="m24.48,3.26h1.21q.05,0,.05-.05v-1.21q0-.05-.05-.05h-1.21q-.05,0-.05.05l.05,1.26h0Z"/>
      <path class="cls-1" d="m18.6,1.94h1.21q.05,0,.05-.05V.68q0-.05-.05-.05h-1.21q-.05,0-.05.05l.05,1.26q-.05,0,0,0Z"/>
    </g>
  </g>
</svg>