<?xml version="1.0" encoding="UTF-8"?><svg id="Capa_1" xmlns="http://www.w3.org/2000/svg" viewBox="0 0 31 31"><defs><style>.cls-1{fill:#fff;}.cls-2{fill:none;}</style></defs><rect class="cls-2" y="0" width="31" height="31"/><g><path class="cls-1" d="m9.61,26.95c-.76-.33-1.37-.67-1.75-.9-.2-.13-.36-.23-.47-.3-.05-.04-.09-.06-.13-.09l-.02-.02c-.33-.25-.8-.19-1.05.13-.25.32-.21.79.11,1.06,2.84,2.36,5.43,3.69,7.93,4.06.51.08,1.02.11,1.53.11.72,0,1.44-.08,2.18-.23.98-.2,1.98-.55,3.04-1.04l.6.87c.16.23.43.36.71.32.28-.03.52-.21.62-.48l1.65-4.19c.09-.22.07-.47-.06-.67-.12-.2-.33-.34-.57-.37l-4.5-.51c-.29-.03-.57.1-.72.34-.16.24-.16.56-.01.8l.47.78c-1.22.73-2.52,1.17-3.89,1.3-2.26.22-4.33-.42-5.66-1Zm10.51.27c.22-.15.29-.44.15-.67l-.47-.78,3.7.42-1.37,3.47-.58-.84c-.14-.2-.41-.27-.63-.16-1.13.56-2.18.93-3.19,1.14-1.14.24-2.24.27-3.35.11-1.49-.22-3.02-.82-4.65-1.82,1.43.56,3.44,1.08,5.64.86,1.69-.17,3.29-.75,4.75-1.72Z"/><path class="cls-1" d="m22.74,4.96c.2.12.36.23.47.3.05.04.09.06.12.09l.03.02c.33.25.8.19,1.05-.13.26-.33.21-.79-.11-1.06C21.46,1.82,18.86.49,16.37.12c-1.23-.19-2.44-.15-3.7.12-.98.2-1.98.55-3.04,1.04l-.6-.87c-.16-.23-.43-.36-.71-.32-.28.03-.52.21-.62.48l-1.65,4.19c-.09.22-.07.47.06.67.12.2.33.34.57.36l4.5.51s.06,0,.09,0c.26,0,.5-.13.64-.35.16-.24.16-.56.01-.8l-.47-.78c1.22-.73,2.52-1.17,3.89-1.3,2.26-.22,4.33.42,5.66,1,.76.33,1.37.67,1.75.9Zm-7.51-2.9c-1.69.17-3.29.75-4.75,1.72-.22.15-.29.44-.15.67l.47.78-3.7-.42,1.37-3.47.58.84c.14.2.41.27.63.16,1.13-.56,2.18-.93,3.19-1.14,1.14-.24,2.24-.27,3.35-.11,1.49.22,3.02.82,4.65,1.82-1.43-.56-3.45-1.08-5.64-.86Z"/><path class="cls-1" d="m6.28,16.77h0c1.11,0,2.16-.43,2.94-1.22.79-.79,1.22-1.83,1.22-2.95,0-2.3-1.87-4.16-4.17-4.16-1.11,0-2.16.43-2.95,1.22-.79.79-1.22,1.83-1.22,2.95,0,2.3,1.87,4.16,4.17,4.16Zm-2.17-6.33c.58-.58,1.35-.9,2.17-.9,1.69,0,3.06,1.37,3.06,3.06,0,.82-.32,1.59-.9,2.17-.58.58-1.35.9-2.16.9h0c-1.69,0-3.06-1.37-3.06-3.06,0-.82.32-1.59.9-2.17Z"/><path class="cls-1" d="m11.56,22.61c0-.15.09-3.67-2.12-5.69-.2-.18-.5-.19-.71-.03-.02.02-2.47,1.86-4.75,0-.21-.17-.51-.16-.71.01-.09.08-2.22,1.97-2.27,5.68,0,.15.05.29.16.39s.24.16.39.16h9.45c.3,0,.54-.24.55-.54Zm-9.43-.57c.17-2.1,1.08-3.43,1.57-3.99,1.99,1.32,4.12.69,5.3-.01,1.12,1.27,1.38,3.11,1.44,4H2.13Z"/><path class="cls-1" d="m21.77,9.66c-.79.79-1.22,1.83-1.22,2.95,0,2.3,1.87,4.16,4.17,4.16h0c1.11,0,2.16-.43,2.94-1.22.79-.79,1.22-1.83,1.22-2.95,0-2.3-1.87-4.16-4.17-4.16-1.11,0-2.16.43-2.95,1.22Zm6.01,2.94c0,.82-.32,1.59-.9,2.17-.58.58-1.35.9-2.16.9h0c-1.69,0-3.06-1.37-3.06-3.06,0-.82.32-1.59.9-2.17.58-.58,1.35-.9,2.17-.9,1.69,0,3.06,1.37,3.06,3.06Z"/><path class="cls-1" d="m27.88,16.92c-.2-.18-.5-.19-.71-.03-.02.02-2.47,1.86-4.75,0-.21-.17-.51-.16-.71.01-.09.08-2.22,1.97-2.27,5.68,0,.15.06.29.16.39.1.11.24.16.39.16h9.45c.3,0,.54-.24.55-.54,0-.15.1-3.67-2.12-5.69Zm-7.31,5.13c.17-2.1,1.08-3.43,1.57-3.99,1.99,1.32,4.12.69,5.3-.01,1.12,1.27,1.38,3.11,1.44,4h-8.31Z"/></g></svg>