<?xml version="1.0" encoding="UTF-8"?>
<svg id="Capa_1" data-name="Capa 1" xmlns="http://www.w3.org/2000/svg" viewBox="0 0 31 31">
  <defs>
    <style>
      .cls-1 {
        fill: #fff;
      }

      .cls-2 {
        fill: none;
      }
    </style>
  </defs>
  <g>
    <path class="cls-1" d="m9.97,16.59s-.08.07-.1.09c.03-.03.07-.06.1-.09Z"/>
    <path class="cls-1" d="m10.7,16.64c-.1-.09-.24-.15-.39-.15h0c-.07,0-.14.01-.21.04,0,0,0,0,0,0,.2-.08.44-.04.6.11Z"/>
    <path class="cls-1" d="m10.7,16.64c-.1-.09-.24-.15-.39-.15h0c-.07,0-.14.01-.21.04-.04.02-.08.04-.12.06-.04.04-.08.07-.1.09-.1.1-.16.25-.16.4v.05c-.01-.16.04-.32.15-.44.02-.02.04-.04.06-.05.02-.02.04-.03.06-.05.04-.02.07-.04.11-.06.2-.08.44-.04.6.11Z"/>
    <path class="cls-1" d="m17.34,12.09s-.03-.06-.05-.09c-.02-.04-.04-.07-.06-.1.05.06.09.12.11.19Z"/>
    <path class="cls-1" d="m25.99,12.77c-.24-.38-.61-.65-1.03-.78v-2.75c0-.33-.27-.6-.6-.6s-.6.27-.6.6v2.67h-2.28c-.17,0-.32-.08-.41-.22l-2.51-3.78c-.31-.48-.73-.87-1.22-1.16-.71-.41-1.45-.52-2.2-.33-.23.06-.46.15-.67.26-.04-.18-.11-.37-.22-.55-.31-.54-.85-.89-1.59-1.05l-2.84-.75c-.46-.12-.95-.03-1.33.26-.24.18-.41.44-.48.73l-.02.07c-.07.27-.13.52-.21.76l-.53,1.6-.05.14-2.31,7s-.03.09-.05.14h0c-.12.32-.09.67.07.96.22.39.66.66,1.32.8.1.02.2.05.29.08l1.7.55c.27.09.54.18.81.28.13.05.26.09.38.14.09.03.18.05.28.06l-.04,3.43c-.03.28-.13.55-.3.77l-3.8,5.08c-.17.22-.29.47-.36.74-.03.12-.06.25-.08.37-.02.12-.03.24-.03.36-.01,1.26,1,2.3,2.27,2.31.29,0,.57-.06.83-.16l.04-.02h.01c.38-.16.7-.41.94-.74l4.62-6.16c.05-.07.09-.15.11-.23l.25-1.12,1.25,1.47c.24.28.37.64.37,1.01v2.76l-.02,1.01c-.02.84.61,1.54,1.72,1.92.22.08.45.12.68.12.26,0,.53-.05.77-.16.98-.42,1.28-1.46,1.3-2.01v-5.89c0-.69-.26-1.35-.72-1.86l-2.79-3.04c-.54-.59-.72-1.43-.46-2.18l.55-1.6.03-.09.09-.26s.06.09.09.14c.03.06.07.11.1.16.56.8,1.48,1.28,2.48,1.28h4.17v15.1c0,.33.27.6.6.6s.6-.27.6-.6v-15.2c.35-.11.66-.32.89-.62.45-.57.5-1.23.14-1.82ZM8.91,6.51c.09-.28.17-.56.24-.83l.02-.07s.03-.06.06-.08c.08-.06.19-.08.29-.05l2.85.75s.02,0,.03,0c.4.08.68.24.81.48.2.34.12.81.07.97l.07.02c-.12.19-.22.39-.3.61l-.19.51-4.32-1.24.36-1.08Zm.52,10.06c-.27-.1-.56-.2-.84-.29l-1.7-.56c-.14-.04-.28-.08-.42-.11-.33-.07-.46-.15-.5-.19.02-.05.04-.11.06-.17l2.15-6.53,4.28,1.23-2.32,6.42-.02.06s-.02.06-.03.09c.2-.08.44-.04.6.11-.1-.09-.24-.15-.39-.15h0c-.07,0-.14.01-.21.04-.04.02-.08.04-.12.06-.04.04-.08.07-.1.09-.1.1-.16.25-.16.4v.05c-.01-.16.04-.32.15-.44-.02.01-.04.02-.05.02-.13-.04-.25-.09-.38-.13Zm3.32,6.69l-4.54,6.05c-.11.15-.27.27-.44.35h-.01s-.02.01-.02.01c-.36.14-.77.08-1.07-.17-.31-.25-.46-.64-.39-1.03.01-.08.03-.16.05-.25.04-.13.09-.24.17-.35l3.8-5.08c.31-.41.49-.89.54-1.4,0-.02,0-.03,0-.05l.03-2.67,2.3,2.7-.42,1.87Zm5.86-1.55c.26.29.41.66.41,1.05v5.85c0,.08-.08.74-.58.96-.19.08-.41.08-.6,0-.22-.07-.92-.35-.92-.77l.02-1.02v-2.78c0-.65-.23-1.28-.65-1.78l-5.1-6.01c.63-.04,1.25-.14,1.86-.3.71-.19,1.35-.47,1.9-.82-.08.93.23,1.86.88,2.57l2.79,3.04Zm6.3-7.87c-.13.16-.34.26-.55.26h-4.77c-.6,0-1.16-.28-1.5-.77-.02-.03-.04-.06-.06-.09-.12-.2-.24-.39-.35-.59-.11-.19-.23-.38-.34-.57-.02-.03-.03-.06-.05-.09-.02-.04-.04-.07-.06-.1-.21-.34-.38-.62-.54-.87l-.4-.62s-.02-.04-.04-.06c-.19-.27-.56-.33-.83-.14-.27.19-.33.56-.14.83l.39.63c.14.22.28.44.44.72l-.42,1.23c-.92,1.77-2.99,2.25-4.16,2.38l2.63-7.27c.2-.57.67-1.01,1.26-1.16.44-.11.87-.05,1.31.21.33.19.61.46.82.78l2.51,3.78c.31.47.84.76,1.41.76h2.9s0,0,.01,0c.23,0,.45.12.57.31.07.11.11.22-.06.44Z"/>
    <polygon class="cls-1" points="13.29 7.69 13.29 7.69 13.29 7.68 13.29 7.69"/>
    <path class="cls-1" d="m9.87,16.68c-.1.1-.16.25-.16.4v.05c-.01-.16.04-.32.15-.44,0,0,0,0,0,0Z"/>
    <path class="cls-1" d="m10.7,16.64c-.1-.09-.24-.15-.39-.15h0c-.07,0-.14.01-.21.04-.04.02-.08.04-.12.06,0,0,0,0,0,0,.05-.05.1-.12.16-.21l-.02.06s-.02.06-.03.09c.2-.08.44-.04.6.11Z"/>
    <path class="cls-1" d="m16.84,13.99s-.02.06-.03.09l.03-.09Z"/>
    <path class="cls-1" d="m18.59,6.21c-1.72,0-3.1-1.39-3.1-3.11C15.48,1.39,16.87,0,18.59,0c1.71,0,3.1,1.39,3.1,3.11,0,1.71-1.39,3.1-3.11,3.11Zm0-5.02c-1.06,0-1.91.86-1.91,1.91,0,1.06.86,1.91,1.91,1.91,1.06,0,1.91-.86,1.91-1.91,0-1.06-.86-1.91-1.91-1.91Z"/>
    <path class="cls-1" d="m24.4,13.09s-.03,0-.04,0-.03,0-.04,0h.07s0,0,.01,0Z"/>
    <path class="cls-1" d="m7.25,7.74l-.05.14s0-.03.01-.04c0-.03.02-.06.03-.09Z"/>
  </g>
  <rect class="cls-2" width="31" height="31"/>
</svg>