<?xml version="1.0" encoding="UTF-8"?>
<svg id="Capa_1" data-name="Capa 1" xmlns="http://www.w3.org/2000/svg" viewBox="0 0 31 31">
  <defs>
    <style>
      .cls-1 {
        fill: #fff;
      }

      .cls-2 {
        fill: none;
      }
    </style>
  </defs>
  <rect class="cls-2" width="31" height="31"/>
  <g>
    <path class="cls-1" d="m8.04,16.96h0c1.66,0,3.21-.65,4.39-1.82,1.17-1.17,1.82-2.73,1.82-4.39,0-3.42-2.79-6.21-6.21-6.21-1.66,0-3.22.65-4.39,1.82-1.17,1.17-1.82,2.73-1.82,4.39,0,3.42,2.79,6.21,6.21,6.21Zm-3.23-9.44c.86-.86,2.01-1.34,3.23-1.34,2.52,0,4.57,2.05,4.57,4.56,0,1.22-.48,2.36-1.34,3.23-.86.86-2.01,1.34-3.23,1.34h0c-2.52,0-4.56-2.05-4.57-4.56,0-1.22.48-2.36,1.34-3.23Z"/>
    <path class="cls-1" d="m22.96,16.96h0c1.66,0,3.21-.65,4.39-1.82,1.17-1.17,1.82-2.73,1.82-4.39,0-3.42-2.79-6.21-6.21-6.21-1.66,0-3.22.65-4.39,1.82-1.17,1.17-1.82,2.73-1.82,4.39,0,3.42,2.79,6.21,6.21,6.21Zm-3.23-9.44c.86-.86,2.01-1.34,3.23-1.34,2.52,0,4.57,2.05,4.57,4.56,0,1.22-.48,2.36-1.34,3.23-.86.86-2.01,1.34-3.23,1.34h0c-2.52,0-4.57-2.05-4.57-4.56,0-1.22.48-2.36,1.34-3.23Z"/>
    <path class="cls-1" d="m30.82,25.66c0-.22.14-5.46-3.16-8.48-.29-.27-.74-.29-1.06-.05-.03.02-2.34,1.76-4.99,1.08-.19-1.47-1.4-1.9-1.8-2.01-1.18-.31-2.79.13-3.58,1.55-.07.12-.19.19-.32.19-.14,0-.27-.07-.34-.19-.6-1.05-1.67-1.67-2.84-1.67-.27,0-.52.03-.77.1-.36.1-1.41.48-1.71,1.72-1.38.55-3.56.93-5.63-.77-.31-.25-.76-.25-1.06.02-.13.12-3.31,2.94-3.39,8.47,0,.22.08.43.24.59.15.16.36.25.58.25h14.09c.15,0,.29-.05.41-.12.12.07.27.12.41.12h14.09c.44,0,.81-.35.82-.8Zm-28.96-.85c.25-3.13,1.61-5.11,2.34-5.95,2.15,1.43,4.41,1.33,6.16.76.59,1.73,2.47,3.61,3.85,4.81.01.13.02.26.03.38H1.86Zm9.29-6.2c0-.99.58-1.35,1.07-1.49.16-.04.34-.07.52-.07.82,0,1.57.44,2,1.19.24.42.69.67,1.18.68.49,0,.94-.27,1.17-.7.55-.99,1.66-1.29,2.48-1.08.5.13,1.1.49,1.1,1.46,0,1.58-2.34,4.1-4.76,5.98-1.9-1.49-4.76-4.21-4.76-5.98Zm6.03,6.21c1.33-1.11,3.47-3.1,4.21-4.97,2.21.5,4.32-.21,5.62-1,1.67,1.89,2.06,4.63,2.15,5.97h-11.98Z"/>
  </g>
</svg>