<?xml version="1.0" encoding="UTF-8"?>
<svg id="Capa_1" data-name="Capa 1" xmlns="http://www.w3.org/2000/svg" viewBox="0 0 31 31">
  <defs>
    <style>
      .cls-1 {
        fill: #fff;
      }

      .cls-2 {
        fill: none;
      }
    </style>
  </defs>
  <rect class="cls-2" y="0" width="31" height="31"/>
  <g id="_449_Awareness_feel_human_perception_sense" data-name="449, Awareness, feel, human, perception, sense">
    <g>
      <path class="cls-1" d="m16.33.22c-.29-.29-.75-.29-1.04,0-.29.29-.29.75,0,1.04.29.29.86.11,1.04,0,.29-.35.29-.75,0-1.04Z"/>
      <path class="cls-1" d="m15.29,2.34c-.29.29-.29.75,0,1.04.29.29.86.11,1.04,0,.29-.29.29-.75,0-1.04-.29-.29-.75-.29-1.04,0Z"/>
      <path class="cls-1" d="m16.33,5.51c.29-.29.29-.75,0-1.04-.29-.29-.75-.29-1.04,0-.29.29-.29.75,0,1.04.29.29.75.29,1.04,0Z"/>
      <path class="cls-1" d="m25.07,4.07c-.29.29-.29.75,0,1.04.29.29.86.12,1.04,0,.29-.29.29-.75,0-1.04-.29-.23-.75-.29-1.04,0Z"/>
      <path class="cls-1" d="m24.55,6.66c.29-.29.29-.75,0-1.04-.29-.29-.75-.29-1.04,0-.29.29-.29.75,0,1.04.29.23.92.11,1.04,0Z"/>
      <path class="cls-1" d="m22.54,6.95c-.4,0-.75.35-.75.75,0,.17.06.35.23.52.29.29.75.29,1.04,0,.11-.12.23-.35.23-.52-.06-.46-.35-.75-.75-.75Z"/>
      <path class="cls-1" d="m8.1,19.84c-.29.29-.29.75,0,1.04.29.29.86.11,1.04,0,.29-.29.29-.75,0-1.04-.29-.23-.75-.23-1.04,0Z"/>
      <path class="cls-1" d="m6.6,21.39c-.29.29-.29.75,0,1.04s.86.12,1.04,0c.29-.29.29-.75,0-1.04-.35-.29-.81-.29-1.04,0Z"/>
      <path class="cls-1" d="m26.8,13.51c-.29.29-.29.75,0,1.04.29.29.75.29,1.04,0,.29-.29.29-.75,0-1.04-.29-.29-.75-.29-1.04,0Z"/>
      <path class="cls-1" d="m24.67,14.54c.29.29.86.12,1.04,0,.29-.29.29-.75,0-1.04-.29-.29-.75-.29-1.04,0-.29.29-.29.75,0,1.04Z"/>
      <path class="cls-1" d="m5.45,13.51c-.29.29-.29.75,0,1.04.29.29.75.29,1.04,0,.11-.11.23-.35.23-.52,0-.4-.35-.75-.75-.75-.17,0-.35.11-.52.23Z"/>
      <path class="cls-1" d="m4.36,14.54c.29-.29.29-.75,0-1.04-.29-.29-.75-.29-1.04,0-.29.29-.29.75,0,1.04.29.23.86.12,1.04,0Z"/>
      <path class="cls-1" d="m6.08,5.11c.29-.29.29-.75,0-1.04-.29-.29-.75-.29-1.04,0s-.29.75,0,1.04.86.12,1.04,0Z"/>
      <path class="cls-1" d="m6.6,5.62c-.29.29-.29.75,0,1.04.29.29.86.11,1.04,0,.29-.29.29-.75,0-1.04-.35-.29-.75-.29-1.04,0Z"/>
      <path class="cls-1" d="m8.1,7.12c-.29.29-.29.75,0,1.04.29.29.86.12,1.04,0,.29-.29.29-.75,0-1.04-.29-.23-.75-.23-1.04,0Z"/>
      <path class="cls-1" d="m22.54,19.66c-.4,0-.75.35-.75.75,0,.17.06.4.23.52.29.29.75.29,1.04,0,.11-.12.23-.35.23-.52-.06-.46-.35-.75-.75-.75Z"/>
      <path class="cls-1" d="m23.52,21.39c-.29.29-.29.75,0,1.04.29.29.86.12,1.04,0,.29-.29.29-.75,0-1.04s-.75-.29-1.04,0Z"/>
      <path class="cls-1" d="m17.13,13.68h-3.39c-2.01,0-3.68,1.67-3.68,3.68v6.39c0,.4.35.75.75.75h.75v5.75c0,.4.35.75.75.75h6.39c.4,0,.75-.35.75-.75v-5.75h.75c.4,0,.75-.35.75-.75v-6.39c-.06-2.07-1.73-3.68-3.8-3.68Zm.86,15.82h-1.78v-3.63c0-.4-.35-.75-.75-.75s-.75.35-.75.75v3.63h-1.78v-5.06h5.06v5.06Zm1.44-6.5h-.75v-4.32c0-.4-.35-.75-.75-.75s-.75.35-.75.75v4.32h-3.63v-4.32c0-.4-.35-.75-.75-.75s-.75.35-.75.75v4.32h-.75v-5.64c0-1.27,1.04-2.24,2.24-2.24h3.39c1.27,0,2.24,1.04,2.24,2.24v5.64h.23Z"/>
      <path class="cls-1" d="m15.46,12.93c1.78,0,3.22-1.44,3.22-3.22s-1.44-3.22-3.22-3.22-3.22,1.44-3.22,3.22,1.44,3.22,3.22,3.22Zm0-5.01c.98,0,1.78.81,1.78,1.78s-.81,1.78-1.78,1.78-1.78-.81-1.78-1.78.81-1.78,1.78-1.78Z"/>
    </g>
  </g>
</svg>