<?xml version="1.0" encoding="UTF-8"?><svg id="Capa_1" xmlns="http://www.w3.org/2000/svg" viewBox="0 0 31 31"><defs><style>.cls-1{fill:#fff;}.cls-2{fill:none;}</style></defs><rect class="cls-2" width="31" height="31"/><path class="cls-1" d="m27.75,17.4c-1.76-1.51-4.37-2.16-7.77-1.92,2.21-1.51,3.67-4.06,3.67-6.94C23.66,3.9,19.89.13,15.27.13S6.89,3.9,6.89,8.53c0,2.74,1.32,5.18,3.35,6.71-2.46-.24-7.62-.06-9.19,5.4-.02.06-.02.12-.02.18v9.54c0,.35.28.64.64.64h27.54c.35,0,.64-.29.64-.64v-9.09s0-.02,0-.04c0-.09-.14-2.18-2.07-3.84ZM8.09,8.53c0-3.97,3.22-7.2,7.19-7.2s7.19,3.23,7.19,7.2-3.2,7.18-7.15,7.2h-.07c-3.95-.02-7.15-3.24-7.15-7.2Zm7.06,9.76h.61l.91,1.88-1.24,2.42-.93-1.83.65-2.48Zm-.76-1.28c0-.24.19-.43.43-.43h1.21c.24,0,.43.19.43.43s-.19.43-.43.43h-1.21c-.24,0-.43-.19-.43-.43Zm2.24,1.12c.4-.22.68-.64.68-1.12,0-.11-.02-.22-.04-.32.51-.12.99-.29,1.46-.5l-1.56,3.04-.53-1.09Zm-2.33.04l-.38,1.45-1.65-3.25c.42.16.85.29,1.3.38-.02.08-.03.17-.03.25,0,.52.31.97.76,1.17Zm14.26,11.54H2.29v-8.81c1.59-5.33,7.33-4.55,8.68-4.28l3.89,7.66c.11.21.33.35.57.35h0c.24,0,.46-.13.57-.35l3.86-7.53c3.15-.25,5.52.28,7.05,1.58,1.47,1.25,1.64,2.78,1.65,2.95v8.43Z"/></svg>