<?xml version="1.0" encoding="UTF-8"?>
<svg id="Capa_1" data-name="Capa 1" xmlns="http://www.w3.org/2000/svg" viewBox="0 0 30.93 31">
  <defs>
    <style>
      .cls-1 {
        fill: #fff;
      }
    </style>
  </defs>
  <path class="cls-1" d="m30.82,20.45c-.11-.15-.28-.24-.47-.24-1.59,0-2.66-.8-3.9-1.72-.27-.2-.54-.4-.82-.59-1.13-.79-2.57-1.6-4.62-1.6-.87,0-1.57,0-2.14.02h-4.37c-.96,0-1.74.78-1.74,1.74s.78,1.74,1.74,1.74h4.05c.54.11.93.58.93,1.14,0,.4-.21.77-.55.98-.22.06-.79.21-1.51.4-.52.12-1.04.26-1.54.41l-.11.03c-2.81.74-3.76.99-4.03,1.05-.13,0-.24,0-.33-.01l-6.36-4.13-1.16-.84s-.05-.03-.07-.04c-.06-.04-.12-.07-.18-.1-.12-.06-.24-.11-.37-.15-.09-.03-.19-.05-.31-.07-.29-.04-.52-.03-.76.01-1.26.13-2.2,1.16-2.2,2.43,0,.64.25,1.25.71,1.71,0,.01.02.02.03.03.17.16.35.3.55.41l10.55,7.65c.05.04.1.06.16.08l.09.03s.02,0,.03.01c.32.11.62.16.91.16.18,0,.36-.02.55-.05.01,0,.02,0,.04,0h.05c6.69-1.71,11.48-2.92,13.85-3.51.02,0,.04-.01.07-.02l.21-.08c1.15-.29,2.04-.44,2.56-.44.32,0,.58-.26.58-.58v-.39s0-.07,0-.11v-4.92c.02-.15-.02-.31-.11-.44Zm-1.05,5.31c-.59.06-1.36.21-2.29.45-.02,0-.05.01-.07.02l-.2.07c-2.39.59-7.17,1.79-13.83,3.49h-.03c-.28.06-.53.05-.83-.06L1.94,22.1s-.05-.03-.07-.05c-.11-.06-.21-.13-.31-.22,0,0-.01-.01-.02-.02-.25-.24-.38-.56-.38-.9,0-.67.51-1.22,1.18-1.27.02,0,.05,0,.07,0,.12-.02.23-.03.38,0,.05,0,.11.02.15.03.06.02.11.04.18.08.04.02.07.04.11.06,0,0,.02.01.02.02l1.13.82s.02.01.02.02l6.47,4.19c.05.04.11.06.18.08.23.06.49.08.8.06.03,0,.07,0,.1-.01.29-.07,1.68-.43,4.11-1.07l.12-.03c.5-.15,1.01-.28,1.52-.4.84-.22,1.47-.39,1.6-.42.05-.01.09-.03.13-.05.74-.41,1.2-1.19,1.2-2.03,0-1.14-.82-2.11-1.95-2.29-.03,0-.06,0-.09,0h-4.11c-.32,0-.58-.26-.58-.58s.26-.58.58-.58h4.39c.57-.02,1.27-.03,2.12-.03,1.73,0,2.92.67,3.96,1.39.27.19.53.38.79.57,1.16.86,2.35,1.74,4,1.92v4.39s0,.02,0,.03Z"/>
  <path class="cls-1" d="m19.93.6v-.03c0-.3-.25-.55-.55-.56h-.03s-.02,0-.03,0c-4.05,0-7.6,2.47-9.09,6.1-.27-1.59-1.01-3.12-2.22-4.33-.04-.04-.08-.08-.13-.12-.02-.02-.04-.03-.06-.05-.21-.2-.56-.2-.78-.01-.01.01-.02.02-.04.03-2.98,2.99-3.12,7.8-.31,10.95l.02.02-3.53,3.53.6.6,3.53-3.53.03.02c1.52,1.35,3.42,2.02,5.31,2.02,2.04,0,4.08-.78,5.63-2.33,0,0,.02-.03.03-.03.2-.22.2-.57,0-.8,0-.01-.02-.02-.03-.03-1.3-1.3-2.96-2.07-4.69-2.28,3.72-1.4,6.32-4.97,6.32-9.19Zm-2.87,11.9c-2.56,2.16-6.38,2.14-8.93-.13-.03-.02-.06-.05-.08-.07-.02-.01-.04-.03-.05-.04-.03-.03-.06-.05-.09-.08-.02-.02-.05-.04-.09-.08-.06-.06-.11-.12-.16-.18l-.09-.1c-2.28-2.55-2.29-6.38-.12-8.94,2.09,2.33,2.33,5.82.54,8.42-.16.23-.13.54.07.74.2.2.51.23.74.07,2.55-1.76,5.95-1.57,8.27.4Zm-6.38-3.25c.02-.32.07-.65.13-1h0c.72-3.92,4.01-6.82,7.95-7.07-.28,4.34-3.7,7.79-8.08,8.07Z"/>
</svg>