<svg width="25" height="25" viewBox="0 0 25 25" fill="none" xmlns="http://www.w3.org/2000/svg">
<g clip-path="url(#clip0_294_391)">
<path d="M8.94308 9.19231C11.0733 9.19231 12.8002 7.46541 12.8002 5.33517C12.8002 3.20493 11.0733 1.47803 8.94308 1.47803C6.81284 1.47803 5.08594 3.20493 5.08594 5.33517C5.08594 7.46541 6.81284 9.19231 8.94308 9.19231Z" stroke="white" stroke-linecap="round" stroke-linejoin="round"/>
<path d="M8.08566 22.0493H1.22852V19.4778C1.24216 18.1712 1.58676 16.8893 2.23013 15.752C2.87349 14.6146 3.79463 13.6589 4.9075 12.974C6.02037 12.2892 7.28867 11.8976 8.59391 11.8358C9.89916 11.774 11.1988 12.044 12.3714 12.6207" stroke="white" stroke-linecap="round" stroke-linejoin="round"/>
<path d="M18.3711 13.478V23.7637" stroke="white" stroke-linecap="round" stroke-linejoin="round"/>
<path d="M13.2285 18.6211H23.5142" stroke="white" stroke-linecap="round" stroke-linejoin="round"/>
</g>
<defs>
<clipPath id="clip0_294_391">
<rect width="24" height="24" fill="white" transform="translate(0.371094 0.621094)"/>
</clipPath>
</defs>
</svg>
