<?xml version="1.0" encoding="UTF-8"?>
<svg id="Capa_1" data-name="Capa 1" xmlns="http://www.w3.org/2000/svg" viewBox="0 0 31 31">
  <defs>
    <style>
      .cls-1 {
        fill: #fff;
      }

      .cls-2 {
        fill: none;
      }
    </style>
  </defs>
  <rect class="cls-2" width="31" height="31"/>
  <g>
    <path class="cls-1" d="m18.41,10.38l-2.79,2.05-2.79-2.05c-.13-.13-.33-.13-.46,0-.13.13-.13.33,0,.46l2.91,2.2v2.18c0,.18.15.32.33.32s.32-.14.32-.32v-2.17l2.93-2.21c.13-.13.13-.33,0-.46-.13-.13-.33-.13-.46,0Z"/>
    <path class="cls-1" d="m3.93,1.62c-.74.74-1.15,1.73-1.15,2.78,0,2.17,1.76,3.93,3.93,3.93h0c1.05,0,2.03-.41,2.78-1.15s1.15-1.73,1.15-2.78c0-2.17-1.76-3.93-3.93-3.93-1.05,0-2.03.41-2.78,1.15Zm5.67,2.78c0,.77-.3,1.5-.85,2.04-.55.55-1.27.85-2.04.85h0c-1.59,0-2.89-1.3-2.89-2.89,0-.77.3-1.5.85-2.04.55-.55,1.27-.85,2.04-.85,1.59,0,2.89,1.3,2.89,2.89Z"/>
    <path class="cls-1" d="m2.25,14.34h8.91c.28,0,.51-.22.52-.5,0-.14.09-3.46-2-5.37-.19-.17-.47-.18-.67-.03-.02.02-2.33,1.75-4.47,0-.2-.16-.48-.16-.67.01-.09.07-2.09,1.86-2.14,5.36,0,.14.05.27.15.37s.23.15.37.15Zm2.02-4.81c1.88,1.25,3.89.66,4.99-.01,1.06,1.2,1.3,2.93,1.36,3.78H2.79c.16-1.98,1.02-3.23,1.48-3.76Z"/>
    <path class="cls-1" d="m24.29,8.32h0c1.05,0,2.03-.41,2.78-1.15.74-.74,1.15-1.73,1.15-2.78,0-2.17-1.76-3.93-3.93-3.93-1.05,0-2.03.41-2.78,1.15-.74.74-1.15,1.73-1.15,2.78,0,2.17,1.76,3.93,3.93,3.93Zm-2.04-5.97c.55-.55,1.27-.85,2.04-.85,1.59,0,2.89,1.3,2.89,2.89,0,.77-.3,1.5-.85,2.04-.55.55-1.27.85-2.04.85h0c-1.59,0-2.89-1.3-2.89-2.89,0-.77.3-1.5.85-2.04Z"/>
    <path class="cls-1" d="m29.27,13.83c0-.14.09-3.46-2-5.37-.19-.17-.47-.18-.67-.03-.02.02-2.33,1.75-4.47,0-.2-.16-.48-.16-.67.01-.09.07-2.09,1.86-2.14,5.36,0,.14.05.27.15.37.1.1.23.15.37.15h8.91c.28,0,.51-.22.52-.5Zm-8.89-.54c.16-1.98,1.02-3.23,1.48-3.77,1.87,1.25,3.89.66,4.99-.01,1.06,1.2,1.3,2.93,1.36,3.78h-7.83Z"/>
    <path class="cls-1" d="m15.62,16.66c-1.05,0-2.03.41-2.78,1.15-.74.74-1.15,1.73-1.15,2.78,0,2.16,1.76,3.93,3.93,3.93h0c1.05,0,2.03-.41,2.78-1.15.74-.74,1.15-1.73,1.15-2.78,0-2.17-1.76-3.93-3.93-3.93Zm2.04,5.97c-.55.55-1.27.85-2.04.85h0c-1.59,0-2.89-1.3-2.89-2.89,0-.77.3-1.5.85-2.04.55-.55,1.27-.85,2.04-.85,1.59,0,2.89,1.3,2.89,2.89,0,.77-.3,1.5-.85,2.04Z"/>
    <path class="cls-1" d="m11.16,30.53h8.91c.28,0,.51-.22.52-.5,0-.14.09-3.46-2-5.37-.19-.17-.47-.18-.67-.03-.02.02-2.33,1.75-4.47,0-.2-.16-.48-.16-.67.01-.09.07-2.09,1.86-2.14,5.36,0,.14.05.27.15.37.1.1.23.15.37.15Zm2.02-4.81c1.88,1.25,3.89.65,4.99-.01,1.06,1.2,1.3,2.93,1.36,3.78h-7.83c.16-1.98,1.02-3.23,1.48-3.76Z"/>
  </g>
</svg>