<?xml version="1.0" encoding="UTF-8"?><svg id="Capa_1" xmlns="http://www.w3.org/2000/svg" viewBox="0 0 31 31"><defs><style>.cls-1{fill:#fff;}.cls-2{fill:none;}</style></defs><rect class="cls-2" width="31" height="31"/><path class="cls-1" d="m29.84,14.51c-1.16-1.16-2.79-1.58-4.29-1.26v-7.24c0-3.12-2.54-5.66-5.66-5.66h-8.79c-3.12,0-5.66,2.54-5.66,5.66v7.24c-1.5-.32-3.12.1-4.28,1.27-1.55,1.55-1.55,4.07,0,5.62.28.28.59.49.93.66v3.97c0,1.18.96,2.15,2.15,2.15h.21l-.93,2.54c-.22.59.09,1.24.68,1.46.13.05.26.07.39.07.46,0,.9-.29,1.07-.75l1.21-3.32h17.25l1.21,3.32c.17.46.6.75,1.07.75.13,0,.26-.02.39-.07.59-.22.89-.87.68-1.46l-.93-2.54h.21c1.18,0,2.15-.96,2.15-2.15v-3.97c.34-.16.66-.38.94-.66,1.55-1.55,1.55-4.07,0-5.62ZM7.72,6c0-1.87,1.52-3.38,3.38-3.38h8.79c1.86,0,3.38,1.52,3.38,3.38v8.45s-.04.03-.06.05c-1.01,1.01-1.58,2.34-1.63,3.77h-12.19c-.04-1.43-.61-2.76-1.63-3.77-.02-.02-.04-.04-.06-.06V6Zm-3.35,18.63v-3.6c.59-.14,1.15-.44,1.61-.9.44-.44.44-1.16,0-1.61-.44-.44-1.16-.44-1.61,0-.44.44-1.16.44-1.6,0-.66-.66-.66-1.74,0-2.4.94-.94,2.47-.94,3.4,0,.63.63.97,1.46.96,2.34v.93c-.02.57.39,1.04.94,1.14.09.02.18.04.28.04h14.29c.09,0,.18-.01.27-.03.55-.08.97-.56.97-1.14v-.92c-.02-.89.33-1.72.95-2.35.94-.94,2.47-.94,3.4,0,.66.66.66,1.74,0,2.4-.44.44-1.16.44-1.6,0-.44-.44-1.16-.44-1.61,0-.44.44-.44,1.16,0,1.61.46.46,1.02.75,1.61.9v3.61H4.36Z"/></svg>