<?xml version="1.0" encoding="UTF-8"?><svg id="Capa_1" xmlns="http://www.w3.org/2000/svg" xmlns:xlink="http://www.w3.org/1999/xlink" viewBox="0 0 31 31"><defs><style>.cls-1{fill:#9b9a84;}.cls-2{clip-path:url(#clippath);}.cls-3{fill:none;}</style><clipPath id="clippath"><rect class="cls-3" width="31" height="31"/></clipPath></defs><g class="cls-2"><g><path class="cls-1" d="m4.98,24.71c.12-.13.29-.28.52-.44.23-.16.48-.33.75-.49.27-.16.54-.32.82-.48.28-.16.51-.29.71-.41.29-.17.57-.36.84-.56.28-.2.52-.44.75-.71.22-.27.4-.57.54-.91.14-.34.21-.73.21-1.16,0-1.05-.38-1.88-1.13-2.49-.75-.62-1.84-.92-3.25-.92-.58,0-1.13.05-1.66.16-.53.1-1.02.25-1.46.42-.45.18-.84.38-1.2.6-.35.22-.64.45-.84.69l2,2.32c.38-.43.77-.78,1.18-1.05.41-.27.88-.4,1.43-.4.48,0,.86.11,1.12.33.26.22.39.52.39.88,0,.18-.05.34-.16.48-.1.14-.28.29-.52.46-.24.17-.57.37-.98.59-.41.22-.93.5-1.54.84-.58.33-1.05.66-1.43,1-.38.34-.68.71-.9,1.11-.22.4-.38.84-.47,1.33-.09.48-.14,1.03-.14,1.65h9.78v-2.83h-5.34Z"/><path class="cls-1" d="m20.06,24.51v-8.19h-2.14l-6.4,8.21v2.81h5.4v2.69h3.14v-2.69h1.73v-2.83h-1.73Zm-2.77,0h-2.67l2.67-3.48v3.48Z"/><path class="cls-1" d="m17.35,14.64c-.17-.68-.7-1.21-1.38-1.38V4.91h-.93v8.35c-.83.21-1.44.96-1.44,1.85,0,1.05.85,1.9,1.9,1.9.89,0,1.64-.61,1.85-1.44h5.54v-.93h-5.54Zm-1.85,1.44c-.54,0-.97-.44-.97-.97s.44-.97.97-.97.97.44.97.97-.44.97-.97.97Z"/><path class="cls-1" d="m28.91,22.07c1.11-2.13,1.69-4.54,1.69-6.96,0-4.04-1.57-7.83-4.43-10.68C23.33,1.57,19.54,0,15.5,0S7.67,1.57,4.82,4.43C1.96,7.28.39,11.07.39,15.11v.47h2.84v-.93h-1.91c.07-2.29.7-4.45,1.74-6.34l1.64.97.47-.8-1.64-.97c1.12-1.76,2.62-3.25,4.38-4.37l.96,1.64.8-.47-.96-1.64c1.89-1.03,4.03-1.65,6.31-1.72v1.9h.93V.94c2.29.07,4.45.69,6.34,1.73l-.97,1.64.8.47.97-1.64c1.76,1.12,3.25,2.62,4.37,4.38l-1.64.96.47.8,1.64-.96c1.03,1.89,1.64,4.03,1.72,6.31h-1.9v.93h1.9c-.07,2.24-.68,4.41-1.74,6.34l-1.63-.97-.47.8,1.63.97c-.76,1.19-1.69,2.27-2.78,3.2l.13-1.13-.92-.1-.3,2.72,2.72.3.1-.92-1.14-.13c1.5-1.27,2.75-2.84,3.66-4.58Z"/></g></g><g><path class="cls-1" d="m2.13,28.05v2.86h-.74v-1.2h-.22v1.2H.42v-2.86h.74v1.02h.22v-1.02h.74Z"/><path class="cls-1" d="m5.69,29.72c0,.29,0,.49-.02.61-.01.12-.06.23-.13.33-.07.1-.17.17-.29.23-.12.05-.26.08-.42.08s-.29-.03-.41-.08c-.12-.05-.22-.13-.29-.23s-.12-.21-.13-.33c-.01-.12-.02-.32-.02-.62v-.49c0-.29,0-.49.02-.61.01-.12.06-.23.13-.33.07-.1.17-.18.29-.23s.26-.08.42-.08.29.03.41.08c.12.05.22.13.29.23.07.1.12.21.13.33s.02.32.02.62v.49Zm-.74-.94c0-.13,0-.22-.02-.26-.01-.04-.05-.06-.09-.06-.04,0-.07.01-.09.04-.02.03-.03.12-.03.27v1.34c0,.17,0,.27.02.31.01.04.04.06.09.06s.08-.02.1-.07.02-.15.02-.32v-1.31Z"/><path class="cls-1" d="m7.53,28.05h.53c.35,0,.59.01.71.04.12.03.23.1.3.21.08.11.12.29.12.53,0,.22-.03.37-.08.45-.06.08-.16.12-.33.14.15.04.25.09.3.15s.08.12.09.17c.01.05.02.19.02.42v.75h-.69v-.95c0-.15-.01-.25-.04-.28-.02-.04-.09-.05-.19-.05v1.29h-.74v-2.86Zm.74.49v.64c.08,0,.14-.01.18-.03.03-.02.05-.1.05-.22v-.16c0-.09-.02-.15-.05-.18-.03-.03-.09-.04-.18-.04Z"/><path class="cls-1" d="m12.32,28.05l.43,2.86h-.76l-.04-.51h-.27l-.04.51h-.77l.38-2.86h1.07Zm-.39,1.84c-.04-.32-.08-.72-.11-1.2-.08.55-.12.95-.14,1.2h.26Z"/><path class="cls-1" d="m16.01,28.91h-.69v-.21c0-.1,0-.16-.03-.19s-.05-.04-.09-.04c-.04,0-.08.02-.1.05-.02.04-.03.09-.03.17,0,.1.01.17.04.22.02.05.09.11.21.17.33.2.54.36.63.48.09.13.13.33.13.61,0,.2-.02.35-.07.45-.05.1-.14.18-.28.24-.14.07-.3.1-.48.1-.2,0-.37-.04-.51-.11-.14-.08-.23-.17-.28-.29-.04-.12-.07-.28-.07-.5v-.19h.69v.35c0,.11,0,.18.03.21.02.03.05.05.1.05s.09-.02.11-.06c.02-.04.04-.1.04-.17,0-.17-.02-.28-.07-.33-.05-.05-.16-.14-.35-.26-.18-.12-.31-.21-.37-.27s-.11-.13-.15-.23c-.04-.1-.06-.22-.06-.37,0-.22.03-.38.08-.48.06-.1.15-.18.27-.24s.28-.09.45-.09c.19,0,.36.03.49.09.14.06.23.14.27.24.04.09.07.26.07.48v.11Z"/></g></svg>