<?xml version="1.0" encoding="utf-8"?>
<!-- Generator: Adobe Illustrator 27.2.0, SVG Export Plug-In . SVG Version: 6.00 Build 0)  -->
<svg version="1.1" id="Capa_1" xmlns="http://www.w3.org/2000/svg" xmlns:xlink="http://www.w3.org/1999/xlink" x="0px" y="0px"
	 viewBox="0 0 167 41" style="enable-background:new 0 0 167 41;" xml:space="preserve">
<style type="text/css">
	.st0{fill:#00296D;}
	.st1{fill:none;}
</style>
<g>
	<path class="st0" d="M83.5,11c-5.3,0-9.5,4.3-9.5,9.5c0,5.3,4.3,9.5,9.5,9.5c5.3,0,9.5-4.3,9.5-9.5C93,15.2,88.8,11,83.5,11
		 M83.5,10.7c5.4,0,9.8,4.4,9.8,9.8c0,5.4-4.4,9.8-9.8,9.8c-5.4,0-9.8-4.4-9.8-9.8C73.7,15.1,78.1,10.7,83.5,10.7z"/>
	<path class="st0" d="M94.4,19.9l-0.1-0.4l0.4-0.2l-0.1-0.8l-0.5-0.1l-0.1-0.4l2.1,0.5l0.1,0.4L94.4,19.9z M95.1,19l0.7-0.4L95,18.5
		L95.1,19z"/>
	<rect x="93.9" y="16.7" transform="matrix(0.956 -0.2934 0.2934 0.956 -0.7795 28.5689)" class="st0" width="2" height="0.4"/>
	<polygon class="st0" points="93,15.1 94.7,14.2 94.9,14.5 93.5,15.3 93.9,16.2 93.7,16.3 	"/>
	<rect x="92.3" y="13.5" transform="matrix(0.8217 -0.57 0.57 0.8217 8.8141 55.6128)" class="st0" width="2" height="0.4"/>
	<polygon class="st0" points="90.6,12.1 92,10.7 92.4,11.2 91.7,12.4 92.9,11.7 93.3,12.1 91.9,13.5 91.6,13.2 92.8,12.2 91.4,12.9 
		91.1,12.7 92,11.3 90.8,12.4 	"/>
	<path class="st0" d="M90.1,11.8l-0.4-0.2l0.1-0.5l-0.7-0.4l-0.4,0.3l-0.4-0.2l1.7-1.3l0.4,0.2L90.1,11.8z M89.9,10.7L90,9.9
		l-0.6,0.5L89.9,10.7z"/>
	<polygon class="st0" points="86.8,10.1 87.5,8.2 88.8,8.7 88.6,9 87.7,8.7 87.6,9.1 88.4,9.4 88.2,9.7 87.5,9.4 87.2,10.2 	"/>
	<polygon class="st0" points="84.1,9.4 84.3,7.9 85.5,8 85.5,8.3 84.6,8.2 84.6,8.5 85.3,8.6 85.3,8.9 84.5,8.8 84.5,9.2 85.3,9.3 
		85.3,9.6 	"/>
	<path class="st0" d="M82.1,7.9l0.6,0c0.1,0,0.2,0,0.3,0c0.1,0,0.2,0.1,0.2,0.1c0.1,0.1,0.1,0.1,0.2,0.2c0,0.1,0.1,0.2,0.1,0.4
		c0,0.1,0,0.2,0,0.3c0,0.1-0.1,0.2-0.1,0.3c-0.1,0.1-0.1,0.1-0.2,0.1c-0.1,0-0.2,0-0.3,0.1l-0.6,0L82.1,7.9z M82.5,8.2l0.1,1l0.2,0
		c0.1,0,0.1,0,0.2,0c0,0,0.1,0,0.1-0.1c0,0,0.1-0.1,0.1-0.2c0-0.1,0-0.2,0-0.3c0-0.1,0-0.2-0.1-0.3c0-0.1-0.1-0.1-0.1-0.1
		c0,0-0.1-0.1-0.1-0.1c0,0-0.1,0-0.3,0L82.5,8.2z"/>
	<path class="st0" d="M79,9.8l0.4-0.2c0.1,0.1,0.1,0.2,0.2,0.2c0.1,0,0.2,0,0.3,0c0.1,0,0.2-0.1,0.3-0.2c0-0.1,0.1-0.1,0-0.2
		c0,0,0-0.1-0.1-0.1c0,0-0.1,0-0.2,0c0,0-0.2,0-0.3,0c-0.2,0-0.4,0-0.5-0.1C79,9.2,78.9,9.1,78.9,9c0-0.1,0-0.2,0-0.3
		c0-0.1,0.1-0.2,0.2-0.3s0.2-0.1,0.4-0.2c0.2-0.1,0.4-0.1,0.6,0c0.2,0.1,0.3,0.2,0.3,0.4l-0.4,0.1c0-0.1-0.1-0.2-0.2-0.2
		c-0.1,0-0.2,0-0.3,0c-0.1,0-0.2,0.1-0.2,0.2c0,0,0,0.1,0,0.1c0,0,0,0.1,0.1,0.1c0.1,0,0.2,0,0.4,0c0.2,0,0.4,0,0.5,0
		c0.1,0,0.2,0.1,0.3,0.1c0.1,0.1,0.1,0.2,0.2,0.3c0,0.1,0,0.2,0,0.3c0,0.1-0.1,0.2-0.2,0.3c-0.1,0.1-0.2,0.1-0.4,0.2
		c-0.2,0.1-0.4,0.1-0.6,0C79.3,10.1,79.1,10,79,9.8"/>
	<path class="st0" d="M76.5,10.8c-0.1-0.2-0.2-0.3-0.2-0.5c0-0.1,0-0.2,0-0.3c0-0.1,0.1-0.2,0.1-0.3c0.1-0.1,0.2-0.2,0.3-0.3
		c0.3-0.1,0.5-0.2,0.7-0.1c0.2,0.1,0.4,0.3,0.6,0.5c0.2,0.3,0.2,0.5,0.1,0.8c-0.1,0.2-0.2,0.4-0.5,0.6c-0.3,0.1-0.5,0.2-0.7,0.1
		C76.9,11.2,76.7,11,76.5,10.8 M76.9,10.5c0.1,0.2,0.2,0.3,0.4,0.4c0.1,0.1,0.3,0,0.4,0c0.1-0.1,0.2-0.2,0.3-0.3
		c0-0.2,0-0.3-0.1-0.5c-0.1-0.2-0.2-0.3-0.4-0.4c-0.1,0-0.3,0-0.4,0c-0.1,0.1-0.2,0.2-0.3,0.3C76.8,10.2,76.8,10.3,76.9,10.5z"/>
	<path class="st0" d="M75.4,13.1l-1.4-1.4l0.5-0.4c0.2-0.2,0.3-0.3,0.4-0.3c0.1-0.1,0.2-0.1,0.3-0.1c0.1,0,0.2,0.1,0.3,0.2
		c0.1,0.1,0.1,0.2,0.2,0.3c0,0.1,0,0.2,0,0.3c0,0.1,0,0.2-0.1,0.2c-0.1,0.1-0.2,0.2-0.3,0.3l-0.2,0.2l0.5,0.5L75.4,13.1z M74.6,11.6
		L75,12l0.2-0.1c0.1-0.1,0.2-0.2,0.2-0.2c0-0.1,0-0.1,0-0.2c0-0.1,0-0.1-0.1-0.1c0-0.1-0.1-0.1-0.2-0.1c-0.1,0-0.1,0-0.2,0
		c0,0-0.1,0.1-0.2,0.2L74.6,11.6z"/>
	<path class="st0" d="M72.4,13.9l0.2-0.3l0.9,0.6c0.1,0.1,0.2,0.2,0.3,0.2c0.1,0,0.2,0,0.2,0c0.1,0,0.1-0.1,0.2-0.2
		c0.1-0.1,0.1-0.2,0.1-0.2c0-0.1,0-0.1-0.1-0.2c0,0-0.1-0.1-0.3-0.2l-0.9-0.6l0.2-0.3l0.9,0.6c0.2,0.1,0.3,0.2,0.4,0.3
		c0.1,0.1,0.1,0.2,0.1,0.2c0,0.1,0,0.2,0,0.3c0,0.1-0.1,0.2-0.2,0.3c-0.1,0.2-0.2,0.3-0.3,0.3c-0.1,0.1-0.2,0.1-0.3,0.1
		c-0.1,0-0.2,0-0.2,0c-0.1,0-0.3-0.1-0.4-0.3L72.4,13.9z"/>
	<path class="st0" d="M73.1,17.2l-1.9-0.7l0.3-0.8c0.1-0.2,0.1-0.3,0.2-0.4c0.1-0.1,0.2-0.1,0.3-0.1c0.1,0,0.2,0,0.3,0
		c0.1,0.1,0.2,0.1,0.3,0.3c0.1,0.1,0.1,0.3,0,0.4c0.1-0.1,0.2-0.1,0.2-0.1c0.1,0,0.2-0.1,0.4-0.1l0.4-0.1L73.5,16L73,16.1
		c-0.2,0-0.3,0.1-0.3,0.1c-0.1,0-0.1,0-0.1,0.1c0,0-0.1,0.1-0.1,0.2l0,0.1l0.8,0.3L73.1,17.2z M72.1,16.4l0.1-0.3
		c0.1-0.2,0.1-0.3,0.1-0.3c0-0.1,0-0.1,0-0.1c0,0-0.1-0.1-0.1-0.1c-0.1,0-0.1,0-0.2,0c-0.1,0-0.1,0.1-0.1,0.1c0,0-0.1,0.1-0.1,0.3
		l-0.1,0.3L72.1,16.4z"/>
	<path class="st0" d="M72,18.7l-0.3-0.1l0.1-0.9l0.8,0.1c0.1,0.1,0.1,0.2,0.2,0.4c0,0.2,0,0.3,0,0.5c0,0.2-0.1,0.4-0.2,0.5
		c-0.1,0.1-0.3,0.2-0.4,0.3c-0.2,0.1-0.4,0.1-0.5,0c-0.2,0-0.4-0.1-0.5-0.2c-0.1-0.1-0.2-0.3-0.3-0.4c0-0.1-0.1-0.3,0-0.5
		c0-0.2,0.1-0.4,0.2-0.5c0.1-0.1,0.3-0.2,0.5-0.2l0,0.4c-0.1,0-0.2,0.1-0.3,0.1c-0.1,0.1-0.1,0.2-0.1,0.3c0,0.2,0,0.3,0.1,0.4
		c0.1,0.1,0.2,0.2,0.5,0.2c0.2,0,0.4,0,0.5-0.1c0.1-0.1,0.2-0.2,0.2-0.4c0-0.1,0-0.2,0-0.3c0-0.1,0-0.2-0.1-0.2l-0.2,0L72,18.7z"/>
	<path class="st0" d="M91.1,31.1l-1.3-1.6l0.3-0.3l1.5,0.6l-0.9-1.1l0.3-0.2l1.3,1.6l-0.3,0.3l-1.5-0.6l0.8,1.1L91.1,31.1z
		 M88.5,31.4c0.1,0.2,0.2,0.3,0.4,0.4c0.2,0.1,0.3,0,0.5,0c0.1-0.1,0.2-0.2,0.3-0.4c0-0.2,0-0.3-0.1-0.6c-0.1-0.2-0.2-0.3-0.4-0.4
		c-0.1-0.1-0.3,0-0.4,0c-0.2,0.1-0.2,0.2-0.3,0.4C88.3,31,88.4,31.2,88.5,31.4z M88.1,31.6c-0.1-0.2-0.2-0.4-0.2-0.5
		c0-0.1,0-0.2,0-0.3c0-0.1,0.1-0.2,0.2-0.3c0.1-0.1,0.2-0.2,0.4-0.3c0.3-0.1,0.5-0.2,0.8-0.1c0.3,0.1,0.5,0.3,0.6,0.6
		c0.2,0.3,0.2,0.6,0.1,0.8c-0.1,0.3-0.2,0.4-0.5,0.6c-0.3,0.1-0.5,0.2-0.8,0.1C88.4,32.1,88.2,31.9,88.1,31.6z M86.1,33.3l-0.6-2
		l0.4-0.1l1.2,1.1L86.7,31l0.4-0.1l0.6,2L87.2,33l-1.2-1.1l0.4,1.3L86.1,33.3z M84.4,32.7l-0.3-0.7l-0.2,0.8L84.4,32.7z M85.2,33.4
		l-0.5,0L84.6,33l-0.8,0.1l-0.1,0.5l-0.4,0l0.6-2.1l0.4,0L85.2,33.4z M81.8,32.9l0.1-0.4l0.8,0.1L82.6,33L81.8,32.9z M79.9,31.8
		l0.3,0.1c0.2,0.1,0.3,0.1,0.4,0.1c0.1,0,0.1,0,0.1-0.1c0,0,0.1-0.1,0.1-0.1c0-0.1,0-0.1,0-0.2c0-0.1-0.1-0.1-0.1-0.1
		c0,0-0.1,0-0.3-0.1l-0.3-0.1L79.9,31.8z M79.2,32.8l0.6-2l0.8,0.2c0.2,0.1,0.4,0.1,0.4,0.2c0.1,0.1,0.1,0.1,0.2,0.3
		c0,0.1,0,0.2,0,0.3c0,0.1-0.1,0.3-0.2,0.3c-0.1,0.1-0.3,0.1-0.4,0.1c0.1,0.1,0.1,0.2,0.2,0.2c0,0.1,0.1,0.2,0.1,0.4l0.1,0.5
		l-0.5-0.1l-0.2-0.5c-0.1-0.2-0.1-0.3-0.1-0.4c0-0.1-0.1-0.1-0.1-0.1c0,0-0.1-0.1-0.2-0.1l-0.1,0l-0.2,0.8L79.2,32.8z M78.1,31.4
		l0.1-0.8l-0.6,0.6L78.1,31.4z M78.4,32.5L78,32.3l0.1-0.5l-0.7-0.4L77,31.8l-0.4-0.2l1.7-1.5l0.4,0.2L78.4,32.5z M74.6,30l1.3-1.6
		l0.3,0.3L76,30.3l0.9-1.1l0.3,0.2l-1.3,1.6l-0.3-0.3l0.2-1.6l-0.9,1.1L74.6,30z"/>
	<path class="st0" d="M83.5,6.3c-7.8,0-14.2,6.4-14.2,14.2c0,7.8,6.4,14.2,14.2,14.2c7.8,0,14.2-6.4,14.2-14.2
		C97.7,12.7,91.3,6.3,83.5,6.3 M63,20.5L83.5,0L104,20.5L83.5,41L63,20.5z"/>
</g>
<rect class="st1" width="167" height="41"/>
</svg>
