<?xml version="1.0" encoding="UTF-8"?><svg id="Capa_1" xmlns="http://www.w3.org/2000/svg" viewBox="0 0 486.36 132.39"><defs><style>.cls-1{font-family:Impact, Impact;font-size:13px;}.cls-2{fill:#fff;}.cls-3{fill:#005855;}.cls-4{fill:#b8c46c;}.cls-5{fill:#429a93;}.cls-6{fill:#c5dfea;}</style></defs><circle class="cls-2" cx="65" cy="65" r="65"/><circle class="cls-6" cx="65" cy="65" r="31.82"/><text class="cls-1" transform="translate(109.91 71.18) rotate(101.88)"><tspan x="0" y="0">C</tspan></text><text class="cls-1" transform="translate(108.59 77.55) rotate(109.85)"><tspan x="0" y="0">o</tspan></text><text class="cls-1" transform="translate(106.61 83.19) rotate(117.56)"><tspan x="0" y="0">n</tspan></text><text class="cls-1" transform="translate(103.68 88.71) rotate(123.7)"><tspan x="0" y="0">t</tspan></text><text class="cls-1" transform="translate(101.83 91.66) rotate(129.72)"><tspan x="0" y="0">a</tspan></text><text class="cls-1" transform="translate(98.08 96.23) rotate(137.09)"><tspan x="0" y="0">c</tspan></text><text class="cls-1" transform="translate(93.69 100.25) rotate(143.04)"><tspan x="0" y="0">t</tspan></text><text class="cls-1" transform="translate(90.99 102.4) rotate(149.04)"><tspan x="0" y="0">a</tspan></text><text class="cls-1" transform="translate(85.98 105.47) rotate(156.68)"><tspan x="0" y="0">n</tspan></text><text class="cls-1" transform="translate(80.36 107.94) rotate(164.41)"><tspan x="0" y="0">o</tspan></text><text class="cls-1" transform="translate(74.6 109.57) rotate(171.72)"><tspan x="0" y="0">s</tspan></text><text class="cls-1" transform="translate(68.91 110.33) rotate(176.55)"><tspan x="0" y="0"> </tspan></text><text class="cls-1" transform="translate(66.86 110.52) rotate(-179.07)"><tspan x="0" y="0">*</tspan></text><text class="cls-1" transform="translate(63.39 110.47) rotate(-176.55)"><tspan x="0" y="0"> </tspan></text><text class="cls-1" transform="translate(61.53 110.5) rotate(-171.11)"><tspan x="0" y="0">C</tspan></text><text class="cls-1" transform="translate(55.1 109.52) rotate(-163.17)"><tspan x="0" y="0">o</tspan></text><text class="cls-1" transform="translate(49.37 107.84) rotate(-155.45)"><tspan x="0" y="0">n</tspan></text><text class="cls-1" transform="translate(43.69 105.19) rotate(-149.28)"><tspan x="0" y="0">t</tspan></text><text class="cls-1" transform="translate(40.66 103.5) rotate(-143.25)"><tspan x="0" y="0">a</tspan></text><text class="cls-1" transform="translate(35.91 100) rotate(-135.9)"><tspan x="0" y="0">c</tspan></text><text class="cls-1" transform="translate(31.67 95.84) rotate(-129.96)"><tspan x="0" y="0">t</tspan></text><text class="cls-1" transform="translate(29.38 93.25) rotate(-123.96)"><tspan x="0" y="0">a</tspan></text><text class="cls-1" transform="translate(26.04 88.4) rotate(-116.34)"><tspan x="0" y="0">n</tspan></text><text class="cls-1" transform="translate(23.29 82.92) rotate(-108.61)"><tspan x="0" y="0">o</tspan></text><text class="cls-1" transform="translate(21.35 77.25) rotate(-101.3)"><tspan x="0" y="0">s</tspan></text><text class="cls-1" transform="translate(20.29 71.6) rotate(-96.41)"><tspan x="0" y="0"> </tspan></text><text class="cls-1" transform="translate(20.03 69.54) rotate(-92.95)"><tspan x="0" y="0">*</tspan></text><text class="cls-1" transform="translate(19.86 66.13) rotate(-89.07)"><tspan x="0" y="0"> </tspan></text><text class="cls-1" transform="translate(19.75 64.25) rotate(-84.11)"><tspan x="0" y="0">C</tspan></text><text class="cls-1" transform="translate(20.39 57.78) rotate(-76.2)"><tspan x="0" y="0">o</tspan></text><text class="cls-1" transform="translate(21.76 51.97) rotate(-68.48)"><tspan x="0" y="0">n</tspan></text><text class="cls-1" transform="translate(24.11 46.15) rotate(-62.27)"><tspan x="0" y="0">t</tspan></text><text class="cls-1" transform="translate(25.64 43.04) rotate(-56.24)"><tspan x="0" y="0">a</tspan></text><text class="cls-1" transform="translate(28.89 38.11) rotate(-48.86)"><tspan x="0" y="0">c</tspan></text><text class="cls-1" transform="translate(32.83 33.66) rotate(-42.93)"><tspan x="0" y="0">t</tspan></text><text class="cls-1" transform="translate(35.31 31.22) rotate(-36.92)"><tspan x="0" y="0">a</tspan></text><text class="cls-1" transform="translate(39.97 27.65) rotate(-29.34)"><tspan x="0" y="0">n</tspan></text><text class="cls-1" transform="translate(45.29 24.62) rotate(-21.63)"><tspan x="0" y="0">o</tspan></text><text class="cls-1" transform="translate(50.86 22.38) rotate(-14.3)"><tspan x="0" y="0">s</tspan></text><text class="cls-1" transform="translate(56.44 21.03) rotate(-9.41)"><tspan x="0" y="0"> </tspan></text><text class="cls-1" transform="translate(58.48 20.66) rotate(-5.91)"><tspan x="0" y="0">*</tspan></text><text class="cls-1" transform="translate(61.9 20.32) rotate(-2.45)"><tspan x="0" y="0"> </tspan></text><text class="cls-1" transform="translate(63.77 20.11) rotate(2.95)"><tspan x="0" y="0">C</tspan></text><text class="cls-1" transform="translate(70.24 20.41) rotate(10.78)"><tspan x="0" y="0">o</tspan></text><text class="cls-1" transform="translate(76.13 21.48) rotate(18.52)"><tspan x="0" y="0">n</tspan></text><text class="cls-1" transform="translate(82.06 23.52) rotate(24.73)"><tspan x="0" y="0">t</tspan></text><text class="cls-1" transform="translate(85.25 24.88) rotate(30.79)"><tspan x="0" y="0">a</tspan></text><text class="cls-1" transform="translate(90.35 27.88) rotate(38.18)"><tspan x="0" y="0">c</tspan></text><text class="cls-1" transform="translate(94.98 31.57) rotate(44.1)"><tspan x="0" y="0">t</tspan></text><text class="cls-1" transform="translate(97.53 33.91) rotate(50.09)"><tspan x="0" y="0">a</tspan></text><text class="cls-1" transform="translate(101.36 38.4) rotate(57.68)"><tspan x="0" y="0">n</tspan></text><text class="cls-1" transform="translate(104.66 43.55) rotate(65.36)"><tspan x="0" y="0">o</tspan></text><text class="cls-1" transform="translate(107.19 48.99) rotate(72.69)"><tspan x="0" y="0">s</tspan></text><text class="cls-1" transform="translate(108.86 54.66) rotate(76.66)"><tspan x="0" y="0"> </tspan></text><rect class="cls-2" x="198.72" y="7.77" width="287.64" height="124.62"/><g><path class="cls-5" d="m335.1,98.61h-18.45c.51,1.95,2.2,3.69,5.18,3.95,1.95.15,4.05-.67,4.87-1.95h8.25c-1.64,5.84-6.92,8.97-13.02,8.97-8.77,0-13.28-6.41-13.28-13.58,0-7.69,5.54-13.58,13.43-13.58,8.56,0,14.05,6.87,13.02,16.2Zm-18.35-5.9h10.51c-.72-2.15-2.72-3.33-5.23-3.33s-4.56,1.28-5.28,3.33Z"/><path class="cls-5" d="m359.55,83.18v7.69h-13.79c-.36,0-.56.26-.56.51,0,.21.21.46.46.51l9.18,1.79c3.95.77,6.56,3.49,6.56,7.13,0,4.72-3.95,8-8.87,8h-14.71v-7.69h14.66c.36,0,.56-.26.56-.51,0-.21-.1-.46-.46-.56l-9.33-2c-3.79-.82-6.51-3.49-6.51-6.97,0-4.66,3.85-7.89,8.77-7.89h14.05Z"/><path class="cls-5" d="m380.97,93.13c-.67-1.79-2.41-3.02-4.61-3.02-3.49,0-5.54,2.72-5.54,5.95s2.05,5.84,5.54,5.84c2.2,0,3.95-1.23,4.61-2.97h8.36c-1.03,6.2-5.9,10.66-13.02,10.66-8.36,0-13.43-5.95-13.43-13.58s5.07-13.58,13.43-13.58c7.18,0,12.05,4.46,13.02,10.71h-8.36Z"/><path class="cls-5" d="m410.75,83.18h7.89v25.63h-7.89v-3.13h-.2c-1.54,2.2-4.36,3.9-7.89,3.9-6.72,0-11.84-5.38-11.84-13.48s4.82-13.69,11.84-13.69c3.54,0,6.36,1.69,7.89,3.9h.2v-3.13Zm0,12.82c0-3.49-2.51-6.1-5.95-6.1s-5.95,2.51-5.95,6.1,2.56,6.1,5.95,6.1,5.95-2.77,5.95-6.1Z"/><path class="cls-5" d="m450.89,96.1c0,8.1-5.13,13.48-11.84,13.48-3.54,0-6.36-1.69-7.89-3.9h-.2v15.77h-7.89v-38.27h7.89v3.13h.2c1.54-2.2,4.36-3.9,7.89-3.9,7.02,0,11.84,5.79,11.84,13.69Zm-8.05-.1c0-3.59-2.56-6.1-5.95-6.1s-5.95,2.61-5.95,6.1,2.41,6.1,5.95,6.1,5.95-2.51,5.95-6.1Z"/><path class="cls-5" d="m472.57,83.18h7.89v25.63h-7.89v-3.13h-.21c-1.54,2.2-4.36,3.9-7.89,3.9-6.72,0-11.84-5.38-11.84-13.48s4.82-13.69,11.84-13.69c3.54,0,6.36,1.69,7.89,3.9h.21v-3.13Zm0,12.82c0-3.49-2.51-6.1-5.95-6.1s-5.95,2.51-5.95,6.1,2.56,6.1,5.95,6.1,5.95-2.77,5.95-6.1Z"/></g><g><g><path class="cls-4" d="m261.68,125.13h-.62v-4.07c0-.69.25-1.29.75-1.78.5-.5,1.1-.75,1.79-.72.66.02,1.23.27,1.69.76s.7,1.07.7,1.74-.25,1.3-.75,1.81c-.5.5-1.09.74-1.78.71-.71-.03-1.29-.31-1.77-.85v2.41Zm1.91-5.95c-.53-.03-.97.15-1.35.55-.37.39-.55.85-.54,1.38,0,.5.19.93.54,1.29.34.36.76.54,1.26.54s.93-.18,1.29-.54c.36-.36.55-.79.55-1.3,0-.5-.16-.94-.5-1.32-.34-.38-.76-.58-1.25-.6Z"/><path class="cls-4" d="m267.26,122.19c0,.16.09.33.27.5.18.18.37.26.57.25.27,0,.48-.08.64-.24.14-.14.21-.34.22-.57,0-.41-.23-.69-.7-.84l-.56-.18c-.59-.18-.9-.59-.92-1.2-.02-.37.11-.69.37-.95.27-.26.59-.4.97-.42.33-.02.63.09.91.32.29.23.44.5.46.84v.14s-.66,0-.66,0v-.11c0-.34-.34-.56-.71-.56-.36,0-.66.29-.67.65-.03.34.18.59.61.73l.55.18c.64.22.98.65,1.03,1.28.03.43-.12.81-.45,1.13-.34.31-.72.45-1.16.43-.4-.03-.74-.19-1.02-.49-.27-.29-.4-.65-.4-1.06h.66v.16Z"/><path class="cls-4" d="m270.88,118.09h-.63v-1.12h.63v1.12Zm0,5.36h-.63v-4.79h.63v4.79Z"/><path class="cls-4" d="m276.49,122.18c-.5.93-1.29,1.39-2.34,1.38-.7,0-1.29-.25-1.8-.73-.5-.48-.76-1.07-.76-1.76,0-.7.24-1.29.74-1.78.51-.5,1.12-.76,1.82-.76.5,0,.97.13,1.41.4.41.26.71.58.89.97l.09.21h-.72c-.36-.61-.91-.93-1.65-.95-.5,0-.93.17-1.33.54-.41.38-.61.83-.61,1.35s.19.97.57,1.34c.38.37.83.55,1.35.55.75,0,1.3-.31,1.67-.9h.72l-.07.14Z"/><path class="cls-4" d="m281.05,122.84c-.5.5-1.09.74-1.78.71-.66-.02-1.23-.27-1.7-.76s-.69-1.07-.69-1.74.25-1.3.75-1.8c.5-.5,1.09-.75,1.78-.72.66.03,1.23.28,1.7.77.46.49.7,1.07.7,1.74s-.25,1.29-.76,1.79Zm-1.77.08c.53.03.97-.15,1.34-.55.38-.39.55-.85.55-1.38-.02-.5-.2-.93-.55-1.29-.34-.36-.76-.54-1.24-.54-.51,0-.94.18-1.3.54-.36.36-.54.79-.55,1.3,0,.5.15.95.5,1.33.34.38.76.57,1.25.59Z"/><path class="cls-4" d="m283.09,123.45h-.64v-6.48h.64v6.48Z"/><path class="cls-4" d="m287.98,122.84c-.5.5-1.09.74-1.78.71-.66-.02-1.23-.27-1.7-.76s-.69-1.07-.69-1.74.25-1.3.75-1.8c.5-.5,1.09-.75,1.78-.72.66.03,1.23.28,1.7.77.46.49.7,1.07.7,1.74s-.25,1.29-.76,1.79Zm-1.77.08c.53.03.97-.15,1.34-.55.38-.39.55-.85.55-1.38-.02-.5-.2-.93-.55-1.29-.34-.36-.76-.54-1.24-.54-.51,0-.94.18-1.3.54s-.54.79-.55,1.3c0,.5.15.95.5,1.33.34.38.76.57,1.25.59Z"/><path class="cls-4" d="m294.31,123.22c0,.6-.25,1.11-.75,1.5-.5.39-1.06.59-1.7.56-.57-.03-1.07-.19-1.48-.52-.39-.31-.65-.71-.79-1.2h.62c.09.33.31.61.64.85.33.24.69.36,1.08.36.47,0,.87-.17,1.22-.5.34-.32.52-.71.52-1.15v-.45c-.47.54-1.06.82-1.76.85-.69.03-1.29-.22-1.78-.71-.5-.5-.75-1.11-.75-1.81s.23-1.25.69-1.74c.46-.49,1.03-.74,1.7-.76.69-.02,1.29.23,1.79.73.51.5.76,1.09.75,1.78v2.21Zm-1.18-.87c.34-.36.53-.79.54-1.29.02-.53-.16-.98-.54-1.38-.37-.4-.81-.58-1.34-.55-.5.03-.91.23-1.25.6s-.51.81-.5,1.32c0,.51.19.94.55,1.3s.79.54,1.29.54.91-.18,1.25-.54Z"/><path class="cls-4" d="m294.98,118.66v4.79h.63v-4.79h-.63Zm.87-1.69l-.87,1.12h.63l.87-1.12h-.63Z"/><path class="cls-4" d="m301.23,123.45h-.62v-.75c-.52.6-1.16.88-1.92.86-.66-.03-1.23-.28-1.69-.76-.46-.49-.7-1.07-.7-1.74s.25-1.3.75-1.8c.5-.5,1.09-.74,1.79-.71.67.03,1.24.28,1.71.77.47.49.7,1.07.67,1.73v2.4Zm-4.28-2.44c0,.5.15.95.5,1.33.34.38.76.57,1.25.6.53.03.97-.16,1.34-.55.38-.39.55-.86.55-1.39,0-.5-.19-.93-.54-1.29-.34-.36-.76-.54-1.25-.54-.51,0-.94.18-1.3.54-.36.36-.54.79-.55,1.3Z"/><path class="cls-4" d="m307.9,125.12h-.69l.72-1.82-1.83-4.64h.7l1.53,3.8,1.61-3.8h.67l-2.71,6.46Z"/><path class="cls-4" d="m316,122.19c0,.16.09.33.27.5.18.18.37.26.57.25.27,0,.48-.08.64-.24.14-.14.21-.34.22-.57,0-.41-.23-.69-.7-.84l-.56-.18c-.59-.18-.9-.59-.92-1.2-.02-.37.11-.69.37-.95.27-.26.59-.4.97-.42.33-.02.63.09.91.32.29.23.44.5.46.84v.14s-.66,0-.66,0v-.11c0-.34-.34-.56-.71-.56-.36,0-.66.29-.67.65-.03.34.19.59.61.73l.55.18c.64.22.98.65,1.03,1.28.03.43-.12.81-.45,1.13-.34.31-.72.45-1.16.43-.4-.03-.74-.19-1.02-.49-.27-.29-.4-.65-.4-1.06h.66v.16Z"/><path class="cls-4" d="m323.9,123.45h-.62v-.75c-.52.6-1.16.88-1.92.86-.66-.03-1.23-.28-1.69-.76-.46-.49-.7-1.07-.7-1.74s.25-1.3.75-1.8c.5-.5,1.09-.74,1.79-.71.67.03,1.24.28,1.71.77.47.49.7,1.07.67,1.73v2.4Zm-4.28-2.44c0,.5.15.95.5,1.33.34.38.76.57,1.25.6.53.03.97-.16,1.34-.55.38-.39.55-.86.55-1.39,0-.5-.19-.93-.54-1.29-.34-.36-.76-.54-1.25-.54-.51,0-.94.18-1.3.54-.36.36-.54.79-.55,1.3Z"/><path class="cls-4" d="m325.21,123.45h-.64v-6.48h.64v6.48Z"/><path class="cls-4" d="m330.17,121.39c0,.62-.2,1.14-.6,1.55-.39.41-.9.62-1.51.62s-1.12-.21-1.52-.62c-.39-.41-.6-.93-.6-1.55v-2.73h.65v2.81c0,.4.14.75.44,1.04.29.29.64.43,1.03.43s.73-.14,1.03-.43c.29-.29.44-.64.44-1.04v-2.81h.65v2.73Z"/><path class="cls-4" d="m335.9,121.08c.02.69-.23,1.29-.74,1.79-.51.5-1.11.74-1.8.71-.66-.02-1.23-.27-1.7-.76-.46-.49-.69-1.07-.69-1.74s.25-1.3.75-1.8c.5-.5,1.09-.75,1.78-.72.71.03,1.29.31,1.76.85v-2.41h.63v4.07Zm-2.53,1.87c.53.03.97-.15,1.34-.55.38-.39.55-.85.54-1.38,0-.5-.19-.93-.54-1.29s-.76-.54-1.25-.54c-.5,0-.94.18-1.3.54s-.54.79-.55,1.3c0,.5.16.95.5,1.33.34.38.76.57,1.25.59Z"/><path class="cls-4" d="m347.66,123.45h-.66v-2.94c0-.37-.11-.69-.32-.95-.21-.26-.5-.39-.84-.39s-.65.12-.92.34c-.25.23-.38.51-.38.86v3.08h-.67v-3.08c0-.34-.13-.63-.39-.86-.25-.23-.55-.34-.91-.34s-.62.13-.83.39c-.21.26-.31.57-.31.95v2.94h-.66v-2.86c0-.6.17-1.08.51-1.44.32-.34.74-.54,1.26-.58.7-.06,1.25.24,1.66.89.41-.65.97-.95,1.66-.89.52.04.94.24,1.27.58.34.36.52.85.52,1.44v2.86Z"/><path class="cls-4" d="m353.19,121.88c-.18.51-.48.92-.91,1.23s-.9.45-1.42.46c-.65,0-1.23-.23-1.74-.71-.5-.5-.76-1.08-.77-1.76-.02-.71.24-1.34.76-1.85.53-.52,1.14-.76,1.86-.72.64.04,1.19.3,1.66.79.45.48.68,1.02.68,1.61v.34h-4.3c.05.48.25.88.61,1.19.36.31.78.47,1.27.46.76,0,1.29-.36,1.62-1.05h.68Zm-.51-1.19c-.09-.45-.3-.81-.63-1.08-.33-.28-.72-.42-1.18-.43-.46,0-.87.13-1.21.41-.34.28-.55.65-.65,1.1h3.67Z"/><path class="cls-4" d="m358.1,123.45h-.65v-2.8c0-.4-.15-.75-.45-1.04s-.63-.44-1.03-.44-.75.14-1.04.44c-.29.29-.44.64-.44,1.04v2.8h-.65v-2.73c0-.62.2-1.13.6-1.55s.91-.62,1.52-.62,1.11.21,1.51.62.6.92.6,1.55v2.73Z"/><path class="cls-4" d="m360.52,123.55c-1.17,0-1.75-.5-1.75-1.49v-5.08h.65v1.67h1.1v.6h-1.1v2.7c0,.71.37,1.07,1.1,1.07v.53Z"/><path class="cls-4" d="m366,123.45h-.62v-.75c-.52.6-1.16.88-1.92.86-.66-.03-1.23-.28-1.69-.76-.46-.49-.7-1.07-.7-1.74s.25-1.3.75-1.8c.5-.5,1.09-.74,1.79-.71.67.03,1.24.28,1.71.77.47.49.7,1.07.67,1.73v2.4Zm-4.28-2.44c0,.5.15.95.5,1.33s.76.57,1.25.6c.53.03.97-.16,1.34-.55.38-.39.55-.86.55-1.39,0-.5-.19-.93-.54-1.29-.34-.36-.76-.54-1.25-.54-.51,0-.94.18-1.3.54-.36.36-.54.79-.55,1.3Z"/><path class="cls-4" d="m367.3,123.45h-.64v-6.48h.64v6.48Z"/></g><rect class="cls-4" x="207.65" y="120.83" width="47.6" height=".59"/><rect class="cls-4" x="372.25" y="120.83" width="46.4" height=".57"/></g><g><path class="cls-5" d="m63.29,79.37h7.12c.33,0,.59.26.59.59v1.5c0,.33-.26.59-.59.59h-7.09c-.32,0-.58-.26-.59-.58l-.03-1.5c0-.33.26-.6.59-.6Z"/><g><path class="cls-3" d="m94.14,50.13c-5.03,4.21-9.93,8.48-15.76,11.44-1.37.7-2.85,1.27-4.34,1.65-3.63.91-5.83.02-7.95-2.98.83,3.73,3.55,5.36,7.06,4.76,2.89-.5,5.44-1.84,7.88-3.38,5.2-3.28,9.78-7.34,14.17-11.62.07-.07.12-.17.22-.31-2.54-.84-5.09-1.25-7.68-1.35-6.7-.26-13.15.86-19.2,3.86-2.47,1.23-4.68,2.8-6.35,5.31-.63-5.22-3.29-8.86-7.94-11.37,1.89-.6,3.58-1.19,5.43-1.11,1.94.08,3.38,1.08,4.62,2.65-.6-2.1-2.66-3.68-5.06-3.65-1.55.02-3.15.28-4.63.75-1.62.5-3.19.59-4.83.35-3.87-.56-7.7-.21-11.53.41-.07.01-.14.07-.27.14,1.81-.1,3.54-.25,5.27-.28,3.18-.05,6.37.13,9.3,1.42,5.27,2.32,8.16,6.43,8.2,12.23.04,5.62,2.38,9.91,6.87,13.16,1.16.84,2.3,1.72,3.41,2.64,3.36,2.8,5.3,6.38,5.78,10.74.04.35.09.7.14,1.05.09,0,.19,0,.28,0,.02-1.13.15-2.26.04-3.38-.33-3.7-2.14-6.69-4.79-9.16-1.25-1.17-2.65-2.18-4.07-3.14-3.07-2.08-4.96-4.92-5.85-8.5-.39-1.56-.13-2.94.73-4.26,1.34-2.05,3.19-3.52,5.32-4.6,7.84-4,16.12-5.25,24.8-3.75.17.03.33.07.49.11.05.01.08.06.22.18Z"/><circle class="cls-3" cx="60.68" cy="46.74" r=".66"/></g><g><path class="cls-5" d="m59.24,82.57c0,.8-.08,1.58-.22,2.33-.08.43-.19.85-.31,1.26-.09.31-.38.52-.7.52h-6.48c-.4,0-.73-.33-.73-.73v-3.3c-.02-2.19-1.8-3.97-4-3.97-.16,0-.31,0-.46.03h0c-.85.04-1.53.33-2.08.89,0,0,0,0,0,0-.87.72-1.43,1.81-1.45,3.03v3.32c0,.4-.33.73-.73.73h-6.76c-.4,0-.73-.33-.73-.73v-28.09c0-.4.33-.73.73-.73h6.76c.4,0,.73.33.73.73v12.09c0,.48.45.83.92.7.84-.23,1.71-.36,2.61-.41.02,0,.04,0,.06,0,.16,0,.31,0,.47,0,.02,0,.04,0,.06,0,.11,0,.21,0,.32,0,.14,0,.28,0,.42.02.97.06,1.91.23,2.81.5.02,0,.03.01.05.02.08.02.16.05.24.08.02,0,.04.01.06.02h0c3.61,1.2,6.47,4.01,7.74,7.59.2.57.37,1.17.48,1.78.15.76.22,1.53.22,2.33Z"/><path class="cls-5" d="m59.24,57.89c0-.54-.29-.75-.9-.75-2.14,0-4.27,0-6.4,0-.45,0-.73.13-.85.4-.04.09-.05.18-.05.28v6.62c0,.6.41,1.13,1.01,1.3,2.02.58,3.93,1.49,5.64,2.72.65.46,1.56.02,1.56-.76v-9.8Z"/></g></g></svg>