<?xml version="1.0" encoding="utf-8"?>
<!-- Generator: Adobe Illustrator 27.2.0, SVG Export Plug-In . SVG Version: 6.00 Build 0)  -->
<svg version="1.1" id="Capa_1" xmlns="http://www.w3.org/2000/svg" xmlns:xlink="http://www.w3.org/1999/xlink" x="0px" y="0px"
	 viewBox="0 0 131 131" style="enable-background:new 0 0 131 131;" xml:space="preserve">
<style type="text/css">
	.st0{fill:#FFFFFF;}
	.st1{fill:#C5DFEA;}
	.st2{fill:#429A93;}
	.st3{fill:#005855;}
</style>
<circle class="st0" cx="65.5" cy="65.1" r="65"/>
<circle class="st1" cx="65.5" cy="65.1" r="31.8"/>
<g>
	<path d="M114.7,79.1l0.5-2.6l1.7,0.4c0.5,0.1,0.8,0.1,1,0.1c0.1,0,0.2-0.1,0.3-0.3c0-0.2,0-0.4-0.1-0.5c-0.1-0.1-0.5-0.2-1-0.3
		l-4.7-1c-0.5-0.1-0.8-0.1-1-0.1s-0.3,0.1-0.3,0.3c0,0.2,0,0.3,0.1,0.4c0.1,0.1,0.5,0.2,1,0.3l1.3,0.3l-0.5,2.6l-0.4-0.1
		c-1-0.2-1.8-0.4-2.2-0.7s-0.7-0.6-0.9-1.2s-0.3-1.2-0.1-2c0.2-0.8,0.4-1.4,0.8-1.8c0.4-0.4,0.8-0.7,1.4-0.7c0.5-0.1,1.3,0,2.3,0.2
		l2.9,0.6c0.7,0.2,1.3,0.3,1.6,0.4c0.4,0.1,0.7,0.3,1,0.7c0.3,0.3,0.5,0.7,0.6,1.2s0.1,1,0,1.6c-0.2,0.8-0.4,1.4-0.8,1.8
		s-0.8,0.7-1.3,0.8c-0.5,0.1-1.2,0-2.1-0.2L114.7,79.1z"/>
	<path d="M112.1,85.4l-1.9-0.7c-0.7-0.3-1.2-0.5-1.5-0.7s-0.6-0.5-0.8-0.8c-0.2-0.3-0.3-0.7-0.3-1.1c0-0.4,0.1-0.9,0.3-1.3
		c0.2-0.5,0.4-1,0.7-1.3c0.3-0.3,0.5-0.6,0.8-0.7c0.3-0.1,0.6-0.2,1-0.1c0.4,0,0.9,0.2,1.6,0.4l2,0.7c0.7,0.3,1.3,0.6,1.6,0.9
		s0.6,0.7,0.7,1.2c0.1,0.5,0,1.1-0.2,1.7c-0.2,0.5-0.4,1-0.7,1.3c-0.3,0.3-0.6,0.6-1,0.7c-0.3,0.1-0.7,0.2-1,0.1
		C113.1,85.8,112.7,85.6,112.1,85.4z M113.6,83.2c0.4,0.1,0.7,0.2,0.8,0.2s0.2-0.1,0.3-0.2c0.1-0.1,0-0.3-0.1-0.3
		c-0.1-0.1-0.3-0.2-0.7-0.3l-3.6-1.3c-0.4-0.1-0.6-0.2-0.8-0.2s-0.2,0.1-0.3,0.2c-0.1,0.1,0,0.3,0.1,0.3s0.3,0.2,0.6,0.3L113.6,83.2
		z"/>
	<path d="M113.2,89.9l-0.7-0.4c0.2,0.3,0.3,0.6,0.3,0.9s-0.1,0.6-0.2,0.9c-0.2,0.4-0.5,0.7-0.8,0.8c-0.3,0.2-0.6,0.2-0.9,0.1
		s-0.8-0.3-1.5-0.6l-5.2-2.7l1.2-2.3l5.2,2.7c0.5,0.3,0.8,0.4,1,0.4c0.1,0,0.2,0,0.3-0.2c0.1-0.2,0.1-0.3,0-0.4
		c-0.1-0.1-0.4-0.3-1-0.6l-5-2.6l1.2-2.3l7.5,3.9L113.2,89.9z"/>
	<path d="M110.4,96.8l-1.1-0.7l-0.4,0.6l-1.1-0.7l0.4-0.6l-3.8-2.5c-0.5-0.3-0.7-0.5-0.8-0.4c-0.1,0-0.2,0.2-0.5,0.5l-1.1-0.8
		l0.6-0.9c0.3-0.5,0.6-0.8,0.8-1s0.4-0.3,0.6-0.4c0.3-0.1,0.5,0,0.7,0c0.2,0.1,0.7,0.4,1.4,0.8l3.6,2.4l0.3-0.5l1.1,0.7l-0.3,0.5
		l1.1,0.7L110.4,96.8z"/>
	<path d="M104.5,97.2l1.5-1.9l0.4,0.4c0.5,0.4,0.8,0.8,1,1.1s0.2,0.8,0.1,1.3s-0.4,1.1-0.8,1.6c-0.6,0.7-1.1,1.1-1.6,1.2
		c-0.5,0.1-1,0.1-1.4-0.1s-1.1-0.8-2.2-1.7l-3.3-2.7l1.6-1.9l0.6,0.5c-0.1-0.3-0.2-0.6-0.1-0.9c0-0.3,0.2-0.6,0.4-0.8
		c0.3-0.3,0.6-0.6,1.1-0.7c0.4-0.1,1,0.1,1.6,0.6l0.5,0.4c0.5,0.4,0.8,0.8,0.8,1.1c0,0.3-0.1,0.8-0.3,1.6c-0.3,0.9-0.4,1.3-0.4,1.5
		c0,0.1,0.2,0.3,0.5,0.5c0.3,0.3,0.6,0.4,0.7,0.5c0.1,0,0.3,0,0.4-0.1c0.1-0.1,0.1-0.3,0.1-0.4c-0.1-0.1-0.3-0.3-0.6-0.6L104.5,97.2
		z M103.1,97.1c0-0.5,0-0.9-0.1-1s-0.3-0.4-0.6-0.6c-0.3-0.3-0.6-0.4-0.7-0.5s-0.3,0-0.4,0.1c-0.1,0.1-0.1,0.2-0.1,0.3
		c0,0.1,0.2,0.3,0.6,0.6L103.1,97.1z"/>
	<path d="M97.7,104.4l1.8-1.6l0.7,0.7c0.2,0.2,0.4,0.4,0.5,0.4c0.1,0.1,0.2,0,0.3-0.1c0.1-0.1,0.1-0.2,0.1-0.3
		c0-0.1-0.2-0.3-0.4-0.6l-2.7-2.9c-0.2-0.2-0.4-0.4-0.5-0.4c-0.2-0.1-0.3,0-0.4,0.1c-0.1,0.1-0.2,0.3-0.1,0.4s0.2,0.4,0.5,0.7
		l0.7,0.7l-1.7,1.6c-0.5-0.5-0.8-0.9-1-1.2c-0.2-0.3-0.3-0.6-0.4-1s0-0.8,0.1-1.2c0.2-0.4,0.4-0.8,0.9-1.2c0.5-0.5,1-0.8,1.5-0.9
		c0.5-0.1,0.9-0.1,1.4,0.2c0.4,0.2,0.9,0.6,1.5,1.2l1.6,1.8c0.5,0.5,0.8,1,0.9,1.3c0.1,0.4,0.1,0.8,0,1.3c-0.1,0.5-0.5,1-1,1.5
		c-0.5,0.5-1,0.7-1.5,0.9c-0.5,0.1-1,0.1-1.4-0.1C98.7,105.4,98.2,105,97.7,104.4z"/>
	<path d="M97.4,109.9l-0.8-1.1l-0.6,0.4l-0.8-1.1l0.6-0.4l-2.7-3.6c-0.3-0.4-0.5-0.7-0.6-0.7c-0.1,0-0.3,0.1-0.6,0.4l-0.8-1.1
		l0.8-0.6c0.5-0.4,0.8-0.6,1-0.7c0.2-0.1,0.5-0.2,0.7-0.1c0.3,0,0.5,0.1,0.6,0.3c0.2,0.2,0.5,0.6,1,1.2l2.6,3.4l0.4-0.3l0.8,1.1
		l-0.4,0.3l0.8,1.1L97.4,109.9z"/>
	<path d="M91.8,108.4l2.1-1.2l0.3,0.5c0.3,0.6,0.5,1,0.6,1.4c0.1,0.4,0,0.8-0.3,1.3c-0.2,0.5-0.7,0.9-1.3,1.3
		c-0.7,0.4-1.4,0.7-1.9,0.6c-0.5,0-1-0.2-1.3-0.6c-0.3-0.3-0.8-1.1-1.5-2.3l-2.2-3.6l2.1-1.3l0.4,0.6c0-0.3,0-0.6,0.2-0.9
		c0.1-0.3,0.3-0.5,0.6-0.6c0.4-0.2,0.8-0.3,1.3-0.3c0.5,0,0.9,0.4,1.3,1.1l0.4,0.6c0.3,0.5,0.5,1,0.4,1.3c-0.1,0.3-0.3,0.8-0.9,1.4
		c-0.6,0.7-0.8,1.1-0.8,1.3c0,0.1,0.1,0.3,0.3,0.6c0.2,0.4,0.4,0.6,0.5,0.7c0.1,0.1,0.3,0.1,0.4,0c0.1-0.1,0.2-0.2,0.2-0.3
		s-0.2-0.4-0.4-0.8L91.8,108.4z M90.5,107.8c0.2-0.5,0.3-0.8,0.2-1c0-0.2-0.2-0.5-0.4-0.8c-0.2-0.4-0.4-0.6-0.5-0.7
		c-0.1-0.1-0.2-0.1-0.4,0c-0.1,0.1-0.2,0.2-0.2,0.3c0,0.1,0.1,0.3,0.3,0.7L90.5,107.8z"/>
	<path d="M87,114.6l-0.3-0.7c0,0.4-0.2,0.7-0.4,0.9c-0.2,0.2-0.4,0.4-0.8,0.6c-0.4,0.2-0.8,0.2-1.1,0.1c-0.3-0.1-0.6-0.2-0.8-0.5
		s-0.4-0.7-0.7-1.4l-2.3-5.4l2.4-1l2.3,5.4c0.2,0.5,0.4,0.8,0.5,1s0.2,0.1,0.4,0c0.2-0.1,0.2-0.2,0.2-0.3c0-0.2-0.1-0.5-0.4-1.1
		l-2.3-5.2l2.4-1l3.3,7.7L87,114.6z"/>
	<path d="M76.3,115l-0.6-2c-0.2-0.7-0.3-1.3-0.3-1.6s0-0.7,0.2-1.1c0.2-0.4,0.4-0.7,0.7-0.9c0.3-0.2,0.8-0.4,1.2-0.6
		c0.5-0.2,1-0.2,1.4-0.2c0.4,0,0.8,0.1,1,0.3c0.3,0.2,0.5,0.4,0.7,0.8s0.4,0.8,0.6,1.5l0.6,2.1c0.2,0.8,0.3,1.4,0.2,1.8
		s-0.2,0.9-0.6,1.3s-0.9,0.7-1.5,0.8c-0.6,0.2-1.1,0.2-1.5,0.2c-0.4-0.1-0.8-0.2-1.1-0.4c-0.3-0.2-0.5-0.4-0.7-0.7
		C76.6,116,76.5,115.6,76.3,115z M78.9,114.9c0.1,0.4,0.2,0.7,0.3,0.8c0.1,0.1,0.2,0.1,0.3,0.1c0.1,0,0.2-0.1,0.2-0.2
		c0-0.1,0-0.4-0.1-0.8l-1-3.7c-0.1-0.4-0.2-0.6-0.3-0.7s-0.2-0.1-0.3-0.1c-0.1,0-0.2,0.1-0.2,0.2s0,0.4,0.1,0.7L78.9,114.9z"/>
	<path d="M70.3,116.2l2.2-0.3l0.1,0.5c0.1,0.4,0.1,0.6,0.2,0.7c0.1,0.1,0.2,0.1,0.4,0.1c0.1,0,0.2-0.1,0.3-0.2
		c0.1-0.1,0.1-0.3,0-0.4c0-0.3-0.1-0.4-0.1-0.6s-0.2-0.2-0.4-0.3c-0.2-0.1-0.6-0.3-1.2-0.5c-0.8-0.3-1.3-0.5-1.6-0.8
		c-0.3-0.3-0.5-0.7-0.5-1.3c-0.1-0.7-0.1-1.2,0-1.6c0.1-0.4,0.4-0.7,0.8-0.9s0.9-0.4,1.5-0.5c0.6-0.1,1.2-0.1,1.7,0.1
		c0.5,0.1,0.8,0.4,1.1,0.7s0.4,0.8,0.5,1.5l0.1,0.4l-2.2,0.3l-0.1-0.5c-0.1-0.4-0.1-0.7-0.2-0.9c-0.1-0.1-0.2-0.2-0.4-0.2
		c-0.2,0-0.3,0.1-0.4,0.2c-0.1,0.1-0.1,0.3,0,0.6c0.1,0.4,0.1,0.6,0.2,0.7c0.1,0.1,0.6,0.3,1.6,0.7c0.8,0.3,1.3,0.6,1.5,0.9
		c0.2,0.3,0.4,0.7,0.4,1.2c0.1,0.7,0.1,1.2,0,1.5s-0.4,0.6-0.8,0.9c-0.4,0.2-0.9,0.4-1.4,0.5c-0.6,0.1-1,0.1-1.4,0s-0.7-0.2-1-0.4
		c-0.2-0.2-0.4-0.4-0.5-0.6c-0.1-0.2-0.1-0.5-0.2-0.9L70.3,116.2z"/>
	<path d="M64.9,120.9l0-1l-0.9,0.3l-0.3-0.8l0.9-0.4l-0.6-0.8l0.6-0.5l0.6,0.9l0.6-0.8l0.7,0.5l-0.6,0.9l0.9,0.4l-0.3,0.7l-1-0.3
		l0,1L64.9,120.9z"/>
	<path d="M54.4,115.3l2.6,0.4l-0.3,1.8c-0.1,0.5-0.1,0.8-0.1,1s0.2,0.2,0.3,0.2c0.2,0,0.4,0,0.5-0.2c0.1-0.1,0.2-0.5,0.2-1l0.7-4.7
		c0.1-0.5,0.1-0.8,0.1-1c0-0.2-0.2-0.3-0.4-0.3c-0.2,0-0.3,0-0.4,0.2c-0.1,0.1-0.2,0.5-0.3,1l-0.2,1.3l-2.6-0.4l0.1-0.4
		c0.2-1.1,0.4-1.8,0.6-2.2s0.6-0.8,1.2-1c0.6-0.3,1.2-0.3,2-0.2c0.8,0.1,1.4,0.4,1.8,0.7s0.7,0.8,0.8,1.3c0.1,0.5,0.1,1.3-0.1,2.3
		l-0.5,3c-0.1,0.7-0.2,1.3-0.3,1.6c-0.1,0.4-0.3,0.7-0.6,1c-0.3,0.3-0.7,0.5-1.2,0.6c-0.5,0.1-1,0.1-1.6,0.1
		c-0.8-0.1-1.4-0.4-1.9-0.8c-0.5-0.4-0.7-0.8-0.8-1.3c-0.1-0.5-0.1-1.2,0.1-2.1L54.4,115.3z"/>
	<path d="M48,113.1l0.6-2c0.2-0.7,0.4-1.2,0.6-1.6c0.2-0.3,0.4-0.6,0.8-0.8c0.3-0.2,0.7-0.3,1.1-0.4s0.9,0,1.4,0.2
		c0.5,0.2,1,0.4,1.3,0.6c0.3,0.2,0.6,0.5,0.7,0.8c0.1,0.3,0.2,0.6,0.2,1c0,0.4-0.1,0.9-0.3,1.6l-0.6,2.1c-0.2,0.8-0.5,1.3-0.8,1.7
		c-0.3,0.4-0.7,0.6-1.2,0.8s-1.1,0.1-1.7-0.1c-0.6-0.2-1-0.4-1.3-0.7c-0.3-0.3-0.6-0.6-0.7-0.9c-0.1-0.3-0.2-0.6-0.2-0.9
		C47.8,114.1,47.8,113.7,48,113.1z M50.3,114.4c-0.1,0.4-0.2,0.7-0.2,0.8c0,0.1,0.1,0.2,0.2,0.2c0.1,0,0.3,0,0.3-0.1
		s0.2-0.3,0.3-0.8l1.1-3.6c0.1-0.4,0.2-0.6,0.2-0.8c0-0.1-0.1-0.2-0.2-0.3c-0.1,0-0.3,0-0.3,0.1c-0.1,0.1-0.2,0.3-0.3,0.7
		L50.3,114.4z"/>
	<path d="M43.6,114.4l0.4-0.7c-0.3,0.2-0.6,0.3-0.9,0.3s-0.6,0-0.9-0.2c-0.4-0.2-0.7-0.4-0.9-0.7c-0.2-0.3-0.2-0.6-0.2-0.9
		c0.1-0.3,0.2-0.8,0.5-1.5l2.5-5.4l2.3,1.1l-2.4,5.3c-0.2,0.5-0.4,0.9-0.4,1s0.1,0.2,0.2,0.3c0.2,0.1,0.3,0.1,0.4-0.1s0.3-0.5,0.6-1
		l2.4-5.2l2.3,1.1l-3.5,7.7L43.6,114.4z"/>
	<path d="M36.6,111.9l0.7-1.1l-0.6-0.4l0.7-1.1l0.6,0.4l2.3-3.9c0.3-0.5,0.4-0.8,0.4-0.8s-0.2-0.2-0.6-0.4l0.7-1.2l0.9,0.5
		c0.5,0.3,0.8,0.5,1,0.7c0.2,0.2,0.3,0.4,0.4,0.6c0.1,0.2,0.1,0.5,0,0.7c-0.1,0.2-0.3,0.7-0.8,1.4l-2.2,3.7l0.5,0.3l-0.7,1.1
		l-0.5-0.3l-0.7,1.1L36.6,111.9z"/>
	<path d="M35.9,106.1l1.9,1.4l-0.3,0.5c-0.4,0.5-0.8,0.9-1.1,1.1c-0.3,0.2-0.8,0.3-1.3,0.2c-0.5-0.1-1.1-0.3-1.7-0.7
		c-0.7-0.5-1.1-1-1.3-1.5c-0.2-0.5-0.2-1,0-1.4c0.2-0.4,0.7-1.2,1.5-2.3l2.5-3.4l2,1.5l-0.4,0.6c0.3-0.1,0.6-0.2,0.9-0.2
		c0.3,0,0.6,0.1,0.8,0.3c0.4,0.3,0.6,0.6,0.8,1c0.1,0.4,0,1-0.5,1.7l-0.4,0.6c-0.4,0.5-0.7,0.8-1,0.9c-0.3,0.1-0.9,0-1.7-0.2
		c-0.9-0.2-1.4-0.3-1.5-0.3c-0.1,0.1-0.3,0.2-0.5,0.5c-0.3,0.4-0.4,0.6-0.4,0.7c0,0.1,0,0.3,0.1,0.4c0.1,0.1,0.3,0.1,0.4,0.1
		c0.1-0.1,0.3-0.3,0.6-0.7L35.9,106.1z M35.9,104.7c0.5,0,0.9-0.1,1-0.2c0.2-0.1,0.4-0.3,0.6-0.6c0.3-0.3,0.4-0.6,0.4-0.7
		c0-0.1,0-0.3-0.2-0.4c-0.1-0.1-0.2-0.1-0.3-0.1c-0.1,0.1-0.3,0.2-0.5,0.6L35.9,104.7z"/>
	<path d="M28.4,99.6l1.7,1.7l-0.7,0.7c-0.2,0.2-0.4,0.4-0.4,0.6s0,0.2,0.1,0.3s0.2,0.1,0.3,0.1c0.1,0,0.3-0.2,0.5-0.5l2.8-2.9
		c0.2-0.2,0.3-0.4,0.4-0.6s0-0.3-0.1-0.4c-0.1-0.1-0.3-0.1-0.4-0.1c-0.2,0.1-0.4,0.3-0.7,0.6l-0.7,0.7l-1.6-1.6
		c0.5-0.5,0.8-0.8,1.1-1s0.6-0.4,1-0.4c0.4-0.1,0.8-0.1,1.2,0.1c0.4,0.1,0.8,0.4,1.2,0.8c0.5,0.5,0.8,1,1,1.5
		c0.1,0.5,0.1,0.9-0.1,1.4c-0.2,0.4-0.6,1-1.1,1.5l-1.7,1.7c-0.5,0.5-0.9,0.9-1.3,1s-0.8,0.2-1.3,0.1c-0.5-0.1-1-0.4-1.5-0.9
		c-0.5-0.5-0.8-1-0.9-1.5s-0.1-1,0.1-1.4S27.8,100.2,28.4,99.6z"/>
	<path d="M22.8,99.7l1-0.9l-0.4-0.5l1-0.9l0.4,0.5l3.5-2.9c0.4-0.4,0.6-0.6,0.7-0.7c0-0.1-0.1-0.3-0.4-0.6l1-0.9l0.7,0.8
		c0.4,0.4,0.6,0.8,0.7,1s0.2,0.5,0.2,0.7c0,0.3-0.1,0.5-0.2,0.7c-0.1,0.2-0.5,0.5-1.2,1.1l-3.3,2.7l0.4,0.4l-1,0.9l-0.4-0.4l-1,0.9
		L22.8,99.7z"/>
	<path d="M24.1,94l1.3,2l-0.5,0.3c-0.5,0.4-1,0.6-1.4,0.7c-0.4,0.1-0.8,0-1.3-0.2s-0.9-0.6-1.3-1.2c-0.5-0.7-0.7-1.3-0.7-1.9
		s0.2-1,0.5-1.3c0.3-0.3,1.1-0.9,2.2-1.7l3.5-2.4l1.4,2.1l-0.6,0.4c0.3,0,0.6,0,0.9,0.1c0.3,0.1,0.5,0.3,0.7,0.6
		c0.3,0.4,0.4,0.8,0.4,1.2c0,0.5-0.4,0.9-1.1,1.4l-0.6,0.4C27,94.9,26.6,95,26.3,95c-0.3,0-0.8-0.3-1.5-0.8
		c-0.7-0.5-1.2-0.8-1.3-0.7s-0.3,0.1-0.6,0.3c-0.4,0.2-0.6,0.4-0.7,0.6c-0.1,0.1-0.1,0.3,0,0.4c0.1,0.1,0.2,0.2,0.3,0.2
		s0.4-0.2,0.8-0.4L24.1,94z M24.6,92.7c0.5,0.2,0.8,0.2,1,0.2c0.2-0.1,0.5-0.2,0.8-0.4c0.4-0.2,0.6-0.4,0.7-0.5s0.1-0.2,0-0.4
		c-0.1-0.1-0.2-0.2-0.3-0.2c-0.1,0-0.3,0.1-0.7,0.4L24.6,92.7z"/>
	<path d="M17.6,89.5l0.7-0.3c-0.4,0-0.7-0.1-0.9-0.3c-0.3-0.2-0.5-0.4-0.6-0.7c-0.2-0.4-0.3-0.8-0.2-1.1c0.1-0.3,0.2-0.6,0.5-0.8
		c0.2-0.2,0.7-0.5,1.4-0.8l5.3-2.6l1.1,2.3l-5.2,2.6c-0.5,0.3-0.8,0.4-0.9,0.5c-0.1,0.1-0.1,0.2,0,0.4c0.1,0.2,0.2,0.2,0.3,0.2
		s0.5-0.2,1.1-0.5l5.1-2.5l1.1,2.3l-7.5,3.7L17.6,89.5z"/>
	<path d="M16.6,78.9l2-0.7c0.7-0.2,1.3-0.4,1.6-0.4c0.4,0,0.7,0,1.1,0.1c0.4,0.1,0.7,0.4,1,0.7s0.5,0.7,0.6,1.2
		c0.2,0.5,0.3,1,0.3,1.4c0,0.4-0.1,0.8-0.2,1s-0.4,0.5-0.7,0.7c-0.3,0.2-0.8,0.4-1.5,0.6l-2,0.7c-0.7,0.2-1.3,0.4-1.8,0.3
		c-0.5,0-0.9-0.2-1.3-0.5s-0.7-0.8-0.9-1.5c-0.2-0.5-0.3-1-0.2-1.5c0-0.4,0.1-0.8,0.3-1.1c0.2-0.3,0.4-0.5,0.7-0.7
		C15.6,79.2,16,79.1,16.6,78.9z M16.8,81.5c-0.4,0.1-0.7,0.2-0.8,0.3C16,81.9,16,82,16,82.2c0,0.1,0.1,0.2,0.3,0.2
		c0.1,0,0.4,0,0.8-0.2l3.6-1.2c0.4-0.1,0.6-0.2,0.7-0.3c0.1-0.1,0.1-0.2,0.1-0.3c0-0.1-0.1-0.2-0.3-0.2c-0.1,0-0.4,0-0.7,0.2
		L16.8,81.5z"/>
	<path d="M15.1,72.9l0.4,2.2l-0.4,0.1c-0.4,0.1-0.6,0.1-0.7,0.2c-0.1,0.1-0.1,0.2-0.1,0.4c0,0.1,0.1,0.2,0.2,0.3
		c0.1,0.1,0.3,0.1,0.4,0c0.3-0.1,0.4-0.1,0.5-0.2c0.1-0.1,0.2-0.2,0.3-0.4s0.2-0.6,0.4-1.2c0.2-0.8,0.5-1.3,0.7-1.6
		c0.3-0.3,0.7-0.5,1.3-0.6c0.7-0.1,1.2-0.1,1.6,0c0.4,0.1,0.7,0.3,1,0.7c0.3,0.4,0.5,0.8,0.6,1.4c0.1,0.6,0.1,1.2,0,1.7
		s-0.3,0.9-0.6,1.1c-0.3,0.2-0.8,0.4-1.5,0.6l-0.4,0.1l-0.4-2.2l0.5-0.1c0.4-0.1,0.7-0.2,0.8-0.3c0.1-0.1,0.2-0.2,0.1-0.4
		c0-0.2-0.1-0.3-0.2-0.3c-0.1-0.1-0.3-0.1-0.6,0c-0.4,0.1-0.6,0.2-0.7,0.3c-0.1,0.1-0.3,0.7-0.6,1.6c-0.3,0.8-0.6,1.3-0.9,1.6
		c-0.3,0.2-0.7,0.4-1.2,0.5c-0.7,0.1-1.2,0.1-1.5,0c-0.3-0.1-0.6-0.4-0.9-0.7s-0.4-0.9-0.5-1.4c-0.1-0.5-0.1-1-0.1-1.4
		c0.1-0.4,0.2-0.7,0.4-1s0.4-0.4,0.6-0.5c0.2-0.1,0.5-0.2,0.9-0.2L15.1,72.9z"/>
	<path d="M10.1,68l1-0.1L10.8,67l0.7-0.3l0.4,0.9l0.8-0.6l0.5,0.6l-0.8,0.7l0.9,0.6l-0.4,0.7L12,69l-0.3,1l-0.8-0.2l0.3-1l-1,0.1
		L10.1,68z"/>
	<path d="M114.1,63l1-0.1l-0.4-0.9l0.7-0.3l0.4,0.9l0.8-0.6l0.5,0.6l-0.8,0.7l0.9,0.6l-0.4,0.7L116,64l-0.3,1l-0.8-0.2l0.3-1l-1,0.1
		L114.1,63z"/>
	<path d="M15.2,57.1l-0.3,2.7l-1.8-0.2c-0.5-0.1-0.8-0.1-1,0s-0.2,0.2-0.2,0.4c0,0.2,0,0.4,0.2,0.4c0.1,0.1,0.5,0.1,1,0.2l4.7,0.5
		c0.5,0.1,0.8,0.1,1,0c0.2,0,0.2-0.2,0.3-0.4c0-0.2,0-0.3-0.2-0.4c-0.1-0.1-0.5-0.1-1.1-0.2l-1.3-0.1l0.3-2.7l0.4,0
		c1.1,0.1,1.8,0.3,2.2,0.5c0.4,0.2,0.8,0.6,1.1,1.1c0.3,0.5,0.4,1.2,0.3,1.9c-0.1,0.8-0.3,1.4-0.6,1.9c-0.3,0.5-0.8,0.8-1.3,0.9
		c-0.5,0.1-1.3,0.1-2.3,0l-3-0.3c-0.7-0.1-1.3-0.2-1.6-0.2c-0.4-0.1-0.7-0.3-1-0.6s-0.5-0.7-0.7-1.1c-0.1-0.5-0.2-1-0.1-1.6
		c0.1-0.8,0.3-1.4,0.7-1.9c0.4-0.5,0.8-0.8,1.2-0.9s1.2-0.1,2.1,0L15.2,57.1z"/>
	<path d="M17.1,50.5l2,0.5c0.7,0.2,1.3,0.4,1.6,0.5c0.3,0.2,0.6,0.4,0.8,0.7c0.2,0.3,0.4,0.7,0.4,1.1c0,0.4,0,0.9-0.1,1.4
		c-0.1,0.6-0.3,1-0.5,1.4c-0.2,0.4-0.5,0.6-0.8,0.8c-0.3,0.2-0.6,0.2-1,0.2c-0.4,0-0.9-0.1-1.6-0.2l-2.1-0.5
		c-0.8-0.2-1.3-0.4-1.7-0.7c-0.4-0.3-0.7-0.6-0.8-1.1c-0.2-0.5-0.1-1.1,0-1.7c0.1-0.6,0.3-1,0.6-1.4c0.3-0.4,0.6-0.6,0.9-0.8
		c0.3-0.2,0.6-0.2,0.9-0.2C16,50.3,16.5,50.4,17.1,50.5z M15.8,52.9c-0.4-0.1-0.7-0.1-0.8-0.1c-0.1,0-0.2,0.1-0.2,0.2
		c0,0.1,0,0.3,0.1,0.3c0.1,0.1,0.4,0.2,0.8,0.3l3.7,0.9c0.4,0.1,0.6,0.1,0.8,0.1c0.1,0,0.2-0.1,0.2-0.2c0-0.1,0-0.3-0.1-0.3
		c-0.1-0.1-0.3-0.2-0.7-0.2L15.8,52.9z"/>
	<path d="M15.5,46.2l0.7,0.3c-0.2-0.3-0.4-0.6-0.4-0.9s0-0.6,0.1-1c0.2-0.4,0.4-0.7,0.7-0.9c0.3-0.2,0.6-0.3,0.9-0.2
		s0.8,0.2,1.5,0.5l5.5,2.2l-0.9,2.4l-5.4-2.1c-0.5-0.2-0.9-0.3-1-0.3c-0.1,0-0.2,0.1-0.3,0.2c-0.1,0.2,0,0.3,0.1,0.4
		s0.5,0.3,1.1,0.5l5.3,2.1l-0.9,2.4l-7.8-3.1L15.5,46.2z"/>
	<path d="M17.6,39l1.2,0.6l0.3-0.6l1.2,0.6L20,40.3l4,2.1c0.5,0.3,0.8,0.4,0.9,0.4c0.1,0,0.2-0.2,0.4-0.6l1.2,0.6L26,43.7
		c-0.3,0.5-0.5,0.9-0.6,1.1c-0.2,0.2-0.4,0.3-0.6,0.4s-0.5,0.1-0.7,0c-0.2-0.1-0.7-0.3-1.4-0.7l-3.8-2L18.5,43l-1.2-0.6l0.3-0.5
		l-1.2-0.6L17.6,39z"/>
	<path d="M23.4,38L22,40l-0.5-0.3c-0.5-0.4-0.9-0.7-1.1-1c-0.2-0.3-0.3-0.7-0.3-1.3c0-0.5,0.2-1.1,0.6-1.7c0.5-0.7,1-1.2,1.5-1.4
		c0.5-0.2,1-0.2,1.4,0c0.4,0.2,1.2,0.6,2.4,1.4l3.5,2.3l-1.4,2.1l-0.6-0.4c0.2,0.3,0.2,0.6,0.2,0.9c0,0.3-0.1,0.6-0.3,0.9
		c-0.2,0.4-0.6,0.6-1,0.8c-0.4,0.2-1,0-1.7-0.5l-0.6-0.4c-0.5-0.4-0.8-0.7-0.9-1c-0.1-0.3,0-0.9,0.2-1.7c0.2-0.9,0.3-1.4,0.2-1.5
		s-0.2-0.3-0.5-0.5c-0.4-0.2-0.6-0.4-0.8-0.4c-0.1,0-0.3,0-0.3,0.2c-0.1,0.1-0.1,0.3,0,0.4s0.3,0.3,0.7,0.5L23.4,38z M24.8,38
		c0,0.5,0.1,0.8,0.2,1s0.4,0.4,0.7,0.6c0.4,0.2,0.6,0.4,0.7,0.4s0.3,0,0.3-0.2c0.1-0.1,0.1-0.2,0.1-0.3s-0.3-0.3-0.6-0.5L24.8,38z"
		/>
	<path d="M29.5,30.2L27.9,32l-0.7-0.6c-0.3-0.2-0.4-0.4-0.6-0.4c-0.1,0-0.2,0-0.3,0.1c-0.1,0.1-0.1,0.2-0.1,0.3s0.2,0.3,0.5,0.5
		l3,2.6c0.2,0.2,0.4,0.3,0.6,0.4c0.2,0,0.3,0,0.4-0.1c0.1-0.1,0.1-0.3,0.1-0.4c-0.1-0.1-0.3-0.4-0.6-0.7l-0.8-0.7l1.5-1.7
		c0.5,0.4,0.9,0.8,1.1,1.1c0.2,0.3,0.4,0.6,0.5,1c0.1,0.4,0.1,0.8,0,1.2c-0.1,0.4-0.4,0.8-0.7,1.3c-0.5,0.5-0.9,0.9-1.4,1.1
		s-0.9,0.2-1.4,0c-0.5-0.2-1-0.5-1.6-1.1l-1.8-1.6c-0.5-0.5-0.9-0.9-1.1-1.2c-0.2-0.3-0.2-0.8-0.1-1.3c0.1-0.5,0.4-1.1,0.8-1.6
		c0.4-0.5,0.9-0.8,1.4-1c0.5-0.2,1-0.2,1.4,0C28.4,29.3,28.9,29.7,29.5,30.2z"/>
	<path d="M29.1,24.7l0.9,1l0.5-0.5l0.9,1l-0.5,0.5l3.1,3.3c0.4,0.4,0.6,0.6,0.7,0.6c0.1,0,0.3-0.1,0.6-0.4l0.9,1l-0.8,0.7
		c-0.4,0.4-0.7,0.7-1,0.8c-0.2,0.1-0.5,0.2-0.7,0.2c-0.3,0-0.5-0.1-0.7-0.2c-0.2-0.1-0.6-0.5-1.1-1.1l-2.9-3.1l-0.4,0.4l-0.9-1
		l0.4-0.4l-0.9-1L29.1,24.7z"/>
	<path d="M34.9,25.6L33,27l-0.3-0.5c-0.4-0.5-0.6-1-0.7-1.3c-0.1-0.4,0-0.8,0.2-1.3c0.2-0.5,0.6-1,1.2-1.4c0.7-0.5,1.3-0.8,1.8-0.8
		s1,0.1,1.3,0.4c0.3,0.3,0.9,1,1.8,2.1l2.5,3.4l-2,1.5l-0.5-0.6c0.1,0.3,0,0.6-0.1,0.9s-0.3,0.5-0.6,0.7c-0.4,0.3-0.8,0.4-1.2,0.4
		c-0.5,0-0.9-0.3-1.4-1l-0.4-0.6c-0.4-0.5-0.6-0.9-0.5-1.2c0-0.3,0.3-0.8,0.7-1.5c0.5-0.8,0.7-1.2,0.7-1.3c0-0.1-0.1-0.3-0.3-0.6
		c-0.3-0.4-0.5-0.6-0.6-0.6c-0.1-0.1-0.3-0.1-0.4,0c-0.1,0.1-0.2,0.2-0.2,0.3c0,0.1,0.2,0.4,0.5,0.7L34.9,25.6z M36.2,26
		c-0.1,0.5-0.2,0.8-0.1,1c0.1,0.2,0.2,0.5,0.4,0.8c0.3,0.3,0.5,0.6,0.6,0.6c0.1,0.1,0.3,0.1,0.4-0.1c0.1-0.1,0.2-0.2,0.2-0.3
		c0-0.1-0.2-0.3-0.4-0.7L36.2,26z"/>
	<path d="M39,19l0.3,0.7c0-0.4,0.1-0.7,0.3-0.9c0.2-0.3,0.4-0.5,0.7-0.7c0.4-0.2,0.7-0.3,1.1-0.3c0.3,0,0.6,0.2,0.9,0.4
		c0.2,0.2,0.5,0.7,0.9,1.3l2.9,5.1l-2.2,1.3l-2.9-5.1c-0.3-0.5-0.5-0.8-0.6-0.9c-0.1-0.1-0.2-0.1-0.4,0c-0.2,0.1-0.2,0.2-0.2,0.4
		c0,0.1,0.2,0.5,0.5,1.1l2.8,5l-2.2,1.3l-4.1-7.3L39,19z"/>
	<path d="M49.6,17.4l0.8,1.9c0.3,0.7,0.4,1.2,0.5,1.6c0.1,0.4,0,0.7-0.1,1.1c-0.1,0.4-0.3,0.7-0.6,1c-0.3,0.3-0.7,0.5-1.2,0.7
		c-0.5,0.2-1,0.3-1.4,0.4c-0.4,0-0.8,0-1.1-0.2s-0.6-0.4-0.8-0.7s-0.5-0.8-0.7-1.4l-0.8-2c-0.3-0.7-0.4-1.3-0.4-1.8
		c0-0.5,0.1-0.9,0.5-1.3c0.3-0.4,0.8-0.7,1.4-1c0.5-0.2,1-0.3,1.5-0.3c0.4,0,0.8,0.1,1.1,0.3c0.3,0.2,0.6,0.4,0.7,0.6
		C49.2,16.4,49.4,16.8,49.6,17.4z M47,17.7c-0.2-0.4-0.3-0.6-0.4-0.7c-0.1-0.1-0.2-0.1-0.3,0s-0.2,0.1-0.2,0.3s0.1,0.4,0.2,0.8
		l1.4,3.5c0.1,0.4,0.3,0.6,0.4,0.7c0.1,0.1,0.2,0.1,0.3,0.1c0.1-0.1,0.2-0.1,0.2-0.3c0-0.1-0.1-0.3-0.2-0.7L47,17.7z"/>
	<path d="M55.5,15.6l-2.2,0.6l-0.1-0.4C53,15.3,53,15.1,52.9,15c-0.1-0.1-0.2-0.1-0.4-0.1c-0.1,0-0.2,0.1-0.3,0.2c0,0.1,0,0.3,0,0.4
		c0.1,0.3,0.1,0.4,0.2,0.5c0.1,0.1,0.2,0.2,0.4,0.3c0.2,0.1,0.6,0.2,1.2,0.3c0.8,0.2,1.4,0.4,1.7,0.6c0.3,0.3,0.5,0.7,0.7,1.3
		c0.2,0.7,0.2,1.2,0.1,1.6s-0.3,0.7-0.7,1c-0.4,0.3-0.8,0.5-1.4,0.6c-0.6,0.2-1.2,0.2-1.7,0.1s-0.9-0.3-1.1-0.6s-0.5-0.8-0.6-1.5
		L51,19.6l2.2-0.6l0.1,0.5c0.1,0.4,0.2,0.7,0.3,0.8c0.1,0.1,0.2,0.2,0.4,0.1c0.2,0,0.3-0.1,0.3-0.2s0-0.3,0-0.6
		c-0.1-0.4-0.2-0.6-0.3-0.7c-0.1-0.1-0.7-0.2-1.7-0.5c-0.8-0.2-1.4-0.5-1.6-0.8s-0.4-0.7-0.5-1.1c-0.2-0.7-0.2-1.2-0.1-1.5
		s0.3-0.7,0.7-0.9c0.4-0.3,0.8-0.5,1.4-0.6c0.5-0.1,1-0.2,1.4-0.1c0.4,0,0.8,0.1,1,0.3c0.3,0.2,0.4,0.4,0.5,0.5s0.2,0.5,0.3,0.9
		L55.5,15.6z"/>
	<path d="M60.1,10.4l0.1,1l0.9-0.4l0.4,0.7l-0.9,0.5l0.7,0.8l-0.6,0.5L60,12.7l-0.5,0.9l-0.7-0.4l0.5-0.9l-1-0.3l0.2-0.8l1,0.2
		l-0.1-1L60.1,10.4z"/>
	<path d="M71.3,14.8l-2.7-0.1l0.1-1.8c0-0.5,0-0.8,0-1c0-0.1-0.2-0.2-0.4-0.2c-0.2,0-0.4,0.1-0.4,0.2c-0.1,0.2-0.1,0.5-0.1,1
		l-0.2,4.8c0,0.5,0,0.8,0,1c0.1,0.2,0.2,0.2,0.4,0.2c0.2,0,0.3-0.1,0.4-0.2c0.1-0.1,0.1-0.5,0.1-1.1l0.1-1.3l2.7,0.1l0,0.4
		c-0.1,1.1-0.2,1.8-0.3,2.2c-0.2,0.4-0.5,0.8-1.1,1.1c-0.5,0.3-1.2,0.4-1.9,0.4c-0.8,0-1.4-0.2-1.9-0.5c-0.5-0.3-0.8-0.7-0.9-1.2
		s-0.2-1.3-0.1-2.3l0.2-3c0-0.7,0.1-1.3,0.2-1.7s0.2-0.7,0.5-1c0.3-0.3,0.6-0.6,1.1-0.8c0.5-0.2,1-0.2,1.6-0.2
		c0.8,0,1.4,0.2,1.9,0.6c0.5,0.3,0.8,0.7,0.9,1.2c0.1,0.5,0.2,1.2,0.1,2.1L71.3,14.8z"/>
	<path d="M77.9,16.4l-0.4,2c-0.1,0.7-0.3,1.3-0.4,1.6c-0.1,0.3-0.4,0.6-0.7,0.9c-0.3,0.3-0.7,0.4-1.1,0.5c-0.4,0.1-0.9,0.1-1.4,0
		c-0.6-0.1-1-0.3-1.4-0.5s-0.6-0.4-0.8-0.7s-0.3-0.6-0.3-1c0-0.4,0-0.9,0.2-1.6l0.4-2.1c0.1-0.8,0.3-1.4,0.6-1.8
		c0.2-0.4,0.6-0.7,1.1-0.9s1.1-0.2,1.7-0.1c0.6,0.1,1,0.3,1.4,0.5s0.6,0.5,0.8,0.8c0.2,0.3,0.3,0.6,0.3,0.9
		C78.1,15.3,78,15.8,77.9,16.4z M75.5,15.2c0.1-0.4,0.1-0.7,0.1-0.8c0-0.1-0.1-0.2-0.3-0.2c-0.1,0-0.3,0-0.3,0.1s-0.1,0.4-0.2,0.8
		l-0.7,3.7C74,19.2,74,19.5,74,19.6s0.1,0.2,0.3,0.2c0.1,0,0.3,0,0.3-0.1s0.1-0.3,0.2-0.7L75.5,15.2z"/>
	<path d="M82.2,14.6l-0.3,0.7c0.3-0.2,0.6-0.4,0.9-0.4c0.3-0.1,0.6,0,1,0.1c0.4,0.1,0.7,0.4,0.9,0.6c0.2,0.3,0.3,0.6,0.3,0.9
		c0,0.3-0.2,0.8-0.4,1.5l-1.9,5.6l-2.4-0.8l1.9-5.5c0.2-0.5,0.3-0.9,0.3-1S82.3,16,82.1,16c-0.2-0.1-0.3,0-0.4,0.1
		c-0.1,0.1-0.2,0.5-0.4,1.1l-1.8,5.4l-2.4-0.8l2.7-8L82.2,14.6z"/>
	<path d="M89.4,16.3l-0.6,1.2l0.6,0.3L88.9,19l-0.6-0.3l-1.9,4.1c-0.2,0.5-0.3,0.8-0.3,0.9c0,0.1,0.2,0.2,0.6,0.4l-0.6,1.2l-0.9-0.4
		c-0.5-0.2-0.9-0.4-1.1-0.6c-0.2-0.1-0.4-0.3-0.5-0.6c-0.1-0.2-0.1-0.5-0.1-0.7c0.1-0.2,0.3-0.7,0.6-1.5l1.8-3.9l-0.5-0.2l0.6-1.2
		l0.5,0.2l0.6-1.2L89.4,16.3z"/>
	<path d="M90.8,22l-2.1-1.2l0.3-0.5c0.3-0.6,0.7-1,1-1.2c0.3-0.2,0.7-0.3,1.3-0.3c0.5,0,1.1,0.2,1.7,0.6c0.7,0.4,1.2,0.9,1.4,1.4
		c0.2,0.5,0.3,0.9,0.1,1.4c-0.2,0.4-0.6,1.2-1.3,2.4L91,28.2l-2.1-1.3l0.4-0.6c-0.3,0.2-0.6,0.3-0.9,0.3c-0.3,0-0.6-0.1-0.9-0.3
		c-0.4-0.2-0.7-0.5-0.9-1c-0.2-0.4-0.1-1,0.4-1.7l0.4-0.6c0.3-0.5,0.6-0.9,0.9-1c0.3-0.1,0.8-0.1,1.7,0.1c0.9,0.1,1.4,0.2,1.5,0.1
		s0.3-0.3,0.4-0.6c0.2-0.4,0.3-0.6,0.4-0.8s0-0.3-0.2-0.3c-0.1-0.1-0.3-0.1-0.4,0s-0.3,0.3-0.5,0.7L90.8,22z M90.9,23.4
		c-0.5,0-0.8,0.1-1,0.3c-0.2,0.1-0.3,0.4-0.5,0.7C89.1,24.8,89,25,89,25.2c0,0.1,0,0.3,0.2,0.3c0.1,0.1,0.3,0.1,0.3,0
		c0.1-0.1,0.2-0.3,0.5-0.6L90.9,23.4z"/>
	<path d="M98.9,27.7L97,26.2l0.6-0.8c0.2-0.3,0.3-0.5,0.4-0.6c0-0.1,0-0.2-0.1-0.3c-0.1-0.1-0.2-0.1-0.3-0.1
		c-0.1,0.1-0.3,0.2-0.5,0.5l-2.5,3.1c-0.2,0.2-0.3,0.4-0.3,0.6s0,0.3,0.1,0.4c0.1,0.1,0.3,0.1,0.4,0c0.1-0.1,0.4-0.3,0.6-0.6
		l0.6-0.8l1.8,1.4c-0.4,0.5-0.8,0.9-1,1.1c-0.2,0.2-0.6,0.4-1,0.6c-0.4,0.1-0.8,0.1-1.2,0c-0.4-0.1-0.8-0.3-1.3-0.7
		c-0.6-0.4-0.9-0.9-1.1-1.4s-0.2-0.9-0.1-1.4s0.5-1,1-1.7l1.5-1.9c0.4-0.6,0.8-0.9,1.2-1.1c0.3-0.2,0.8-0.3,1.3-0.2s1.1,0.3,1.6,0.7
		c0.5,0.4,0.9,0.9,1.1,1.4c0.2,0.5,0.2,1,0.1,1.4C99.7,26.5,99.4,27.1,98.9,27.7z"/>
	<path d="M104.4,27.1l-0.9,1l0.5,0.5l-0.9,1l-0.5-0.5l-3.1,3.2c-0.4,0.4-0.6,0.6-0.6,0.7c0,0.1,0.1,0.3,0.4,0.6l-0.9,1l-0.7-0.7
		c-0.4-0.4-0.7-0.7-0.8-0.9c-0.1-0.2-0.2-0.4-0.2-0.7c0-0.3,0-0.5,0.2-0.7c0.1-0.2,0.5-0.6,1.1-1.2l3-3.1l-0.4-0.4l0.9-1l0.4,0.4
		l0.9-1L104.4,27.1z"/>
	<path d="M103.8,32.8l-1.5-1.8l0.4-0.4c0.5-0.4,0.9-0.7,1.3-0.8c0.4-0.1,0.8-0.1,1.3,0.1c0.5,0.2,1,0.5,1.4,1.1
		c0.6,0.7,0.9,1.3,0.9,1.8c0,0.5-0.1,1-0.4,1.3c-0.3,0.4-1,1-2,1.9l-3.2,2.7l-1.6-1.9l0.6-0.5c-0.3,0.1-0.6,0.1-0.9,0
		s-0.5-0.3-0.7-0.5c-0.3-0.3-0.5-0.7-0.5-1.2c0-0.4,0.3-0.9,0.9-1.5l0.5-0.4c0.5-0.4,0.9-0.6,1.2-0.6c0.3,0,0.8,0.2,1.6,0.6
		c0.8,0.4,1.3,0.6,1.4,0.6c0.1,0,0.3-0.2,0.6-0.4c0.3-0.3,0.5-0.5,0.6-0.6c0.1-0.1,0-0.3-0.1-0.4c-0.1-0.1-0.2-0.2-0.3-0.1
		c-0.1,0-0.3,0.2-0.7,0.5L103.8,32.8z M103.4,34.2c-0.5-0.1-0.8-0.1-1-0.1s-0.4,0.2-0.7,0.5c-0.3,0.3-0.5,0.5-0.6,0.6
		c-0.1,0.1,0,0.3,0.1,0.4c0.1,0.1,0.2,0.2,0.3,0.1s0.3-0.2,0.6-0.4L103.4,34.2z"/>
	<path d="M110.6,36.6l-0.7,0.4c0.4,0,0.7,0.1,1,0.2c0.3,0.1,0.5,0.4,0.7,0.7c0.2,0.4,0.3,0.7,0.3,1.1c0,0.3-0.2,0.6-0.4,0.9
		c-0.2,0.2-0.6,0.6-1.3,0.9l-5,3.2l-1.4-2.2l4.9-3.1c0.5-0.3,0.8-0.5,0.9-0.6c0.1-0.1,0.1-0.2,0-0.4c-0.1-0.2-0.2-0.2-0.4-0.2
		s-0.5,0.2-1,0.6l-4.8,3l-1.4-2.2l7.1-4.5L110.6,36.6z"/>
	<path d="M112.7,47.1l-1.9,0.9c-0.7,0.3-1.2,0.5-1.6,0.6c-0.4,0.1-0.7,0.1-1.1,0s-0.7-0.3-1-0.6c-0.3-0.3-0.5-0.7-0.8-1.1
		c-0.2-0.5-0.4-1-0.4-1.4s0-0.8,0.1-1.1c0.1-0.3,0.3-0.6,0.6-0.8c0.3-0.2,0.8-0.5,1.4-0.8l2-0.9c0.7-0.3,1.3-0.5,1.8-0.5
		s0.9,0.1,1.3,0.4c0.4,0.3,0.8,0.7,1.1,1.4c0.2,0.5,0.4,1,0.4,1.5c0,0.4-0.1,0.8-0.2,1.1c-0.2,0.3-0.4,0.6-0.6,0.8
		C113.7,46.6,113.3,46.9,112.7,47.1z M112.2,44.5c0.4-0.2,0.6-0.3,0.7-0.4c0.1-0.1,0.1-0.2,0-0.3c-0.1-0.1-0.2-0.2-0.3-0.2
		s-0.4,0.1-0.8,0.3l-3.5,1.6c-0.4,0.2-0.6,0.3-0.7,0.4c-0.1,0.1-0.1,0.2,0,0.3c0.1,0.1,0.2,0.2,0.3,0.2s0.3-0.1,0.7-0.2L112.2,44.5z
		"/>
	<path d="M114.8,52.9l-0.7-2.2l0.4-0.1c0.4-0.1,0.6-0.2,0.7-0.3c0.1-0.1,0.1-0.2,0-0.4c0-0.1-0.1-0.2-0.2-0.3c-0.1,0-0.3,0-0.4,0
		c-0.2,0.1-0.4,0.1-0.5,0.2s-0.2,0.2-0.3,0.4s-0.2,0.6-0.3,1.2c-0.1,0.8-0.3,1.4-0.5,1.7c-0.2,0.3-0.6,0.6-1.2,0.8
		c-0.7,0.2-1.2,0.3-1.6,0.2c-0.4-0.1-0.7-0.3-1-0.6c-0.3-0.3-0.5-0.8-0.7-1.4c-0.2-0.6-0.3-1.2-0.2-1.7c0.1-0.5,0.2-0.9,0.5-1.2
		c0.3-0.3,0.8-0.5,1.4-0.7l0.4-0.1l0.7,2.2l-0.5,0.2c-0.4,0.1-0.7,0.2-0.8,0.3s-0.1,0.2-0.1,0.4c0.1,0.2,0.1,0.3,0.2,0.3
		s0.3,0,0.6-0.1c0.4-0.1,0.6-0.2,0.7-0.4c0.1-0.1,0.2-0.7,0.4-1.7c0.2-0.8,0.4-1.4,0.7-1.7s0.6-0.5,1.1-0.6c0.6-0.2,1.1-0.3,1.5-0.2
		c0.4,0.1,0.7,0.3,1,0.6c0.3,0.4,0.5,0.8,0.7,1.3c0.2,0.5,0.2,1,0.2,1.4c0,0.4-0.1,0.8-0.3,1c-0.2,0.3-0.3,0.5-0.5,0.6
		s-0.5,0.2-0.9,0.3L114.8,52.9z"/>
</g>
<g>
	<g>
		<g>
			<path class="st2" d="M63.8,79.5l7.1,0c0.3,0,0.6,0.3,0.6,0.6v1.5c0,0.3-0.3,0.6-0.6,0.6h-7.1c-0.3,0-0.6-0.3-0.6-0.6l0-1.5
				C63.2,79.8,63.5,79.5,63.8,79.5z"/>
		</g>
	</g>
	<g>
		<g>
			<g>
				<path class="st3" d="M94.6,50.3c-5,4.2-9.9,8.5-15.8,11.4c-1.4,0.7-2.8,1.3-4.3,1.6c-3.6,0.9-5.8,0-8-3c0.8,3.7,3.5,5.4,7.1,4.8
					c2.9-0.5,5.4-1.8,7.9-3.4c5.2-3.3,9.8-7.3,14.2-11.6c0.1-0.1,0.1-0.2,0.2-0.3c-2.5-0.8-5.1-1.2-7.7-1.3
					c-6.7-0.3-13.1,0.9-19.2,3.9c-2.5,1.2-4.7,2.8-6.4,5.3c-0.6-5.2-3.3-8.9-7.9-11.4c1.9-0.6,3.6-1.2,5.4-1.1
					c1.9,0.1,3.4,1.1,4.6,2.7c-0.6-2.1-2.7-3.7-5.1-3.7c-1.6,0-3.2,0.3-4.6,0.7c-1.6,0.5-3.2,0.6-4.8,0.4c-3.9-0.6-7.7-0.2-11.5,0.4
					c-0.1,0-0.1,0.1-0.3,0.1c1.8-0.1,3.5-0.3,5.3-0.3c3.2-0.1,6.4,0.1,9.3,1.4c5.3,2.3,8.2,6.4,8.2,12.2c0,5.6,2.4,9.9,6.9,13.2
					c1.2,0.8,2.3,1.7,3.4,2.6c3.4,2.8,5.3,6.4,5.8,10.7c0,0.4,0.1,0.7,0.1,1.1c0.1,0,0.2,0,0.3,0c0-1.1,0.1-2.3,0-3.4
					c-0.3-3.7-2.1-6.7-4.8-9.2c-1.2-1.2-2.7-2.2-4.1-3.1c-3.1-2.1-5-4.9-5.9-8.5c-0.4-1.6-0.1-2.9,0.7-4.3c1.3-2,3.2-3.5,5.3-4.6
					c7.8-4,16.1-5.2,24.8-3.8c0.2,0,0.3,0.1,0.5,0.1C94.5,50.1,94.5,50.2,94.6,50.3z"/>
			</g>
		</g>
		<circle class="st3" cx="61.2" cy="46.9" r="0.7"/>
	</g>
	<g>
		<g>
			<g>
				<path class="st2" d="M59.7,82.7c0,0.8-0.1,1.6-0.2,2.3c-0.1,0.4-0.2,0.9-0.3,1.3c-0.1,0.3-0.4,0.5-0.7,0.5H52
					c-0.4,0-0.7-0.3-0.7-0.7v-3.3c0-2.2-1.8-4-4-4c-0.2,0-0.3,0-0.5,0h0c-0.9,0-1.5,0.3-2.1,0.9c0,0,0,0,0,0c-0.9,0.7-1.4,1.8-1.4,3
					v3.3c0,0.4-0.3,0.7-0.7,0.7h-6.8c-0.4,0-0.7-0.3-0.7-0.7V58c0-0.4,0.3-0.7,0.7-0.7h6.8c0.4,0,0.7,0.3,0.7,0.7v12.1
					c0,0.5,0.5,0.8,0.9,0.7c0.8-0.2,1.7-0.4,2.6-0.4c0,0,0,0,0.1,0c0.2,0,0.3,0,0.5,0c0,0,0,0,0.1,0c0.1,0,0.2,0,0.3,0
					c0.1,0,0.3,0,0.4,0c1,0.1,1.9,0.2,2.8,0.5c0,0,0,0,0,0c0.1,0,0.2,0,0.2,0.1c0,0,0,0,0.1,0v0c3.6,1.2,6.5,4,7.7,7.6
					c0.2,0.6,0.4,1.2,0.5,1.8C59.7,81.1,59.7,81.9,59.7,82.7z"/>
			</g>
			<path class="st2" d="M59.7,58c0-0.5-0.3-0.7-0.9-0.7c-2.1,0-4.3,0-6.4,0c-0.5,0-0.7,0.1-0.8,0.4c0,0.1-0.1,0.2-0.1,0.3v6.6
				c0,0.6,0.4,1.1,1,1.3c2,0.6,3.9,1.5,5.6,2.7c0.6,0.5,1.6,0,1.6-0.8L59.7,58z"/>
		</g>
	</g>
</g>
</svg>
