<?xml version="1.0" encoding="UTF-8"?>
<svg id="Capa_1" data-name="Capa 1" xmlns="http://www.w3.org/2000/svg" viewBox="0 0 31 31">
  <defs>
    <style>
      .cls-1 {
        fill: #fff;
      }

      .cls-2 {
        fill: none;
      }
    </style>
  </defs>
  <rect class="cls-2" width="31" height="31"/>
  <g>
    <path class="cls-1" d="m21.15,13.46c-.94.94-1.46,2.2-1.46,3.53,0,2.75,2.24,4.99,4.99,4.99h0c1.33,0,2.58-.52,3.53-1.46s1.46-2.2,1.46-3.53c0-2.75-2.24-4.99-4.99-4.99-1.33,0-2.58.52-3.53,1.46Zm7.2,3.52c0,.98-.38,1.9-1.08,2.59-.69.69-1.61,1.08-2.59,1.08h0c-2.02,0-3.67-1.65-3.67-3.67,0-.98.38-1.9,1.08-2.59.69-.69,1.62-1.08,2.59-1.08,2.02,0,3.67,1.65,3.67,3.67Z"/>
    <path class="cls-1" d="m19.02,29.61h11.32c.36,0,.65-.28.66-.64,0-.18.11-4.39-2.54-6.82-.24-.22-.59-.23-.85-.04-.03.02-2.96,2.22-5.68,0-.25-.2-.61-.2-.85.01-.11.09-2.66,2.36-2.72,6.81,0,.18.07.35.19.47s.29.2.47.2Zm2.57-6.1c2.38,1.58,4.94.83,6.34-.01,1.34,1.52,1.66,3.72,1.73,4.8h-9.95c.2-2.52,1.3-4.1,1.88-4.78Z"/>
  </g>
  <path class="cls-1" d="m16.91,28.48H1.12v-7.79c1.41-4.71,6.48-4.02,7.67-3.78l3.43,6.77c.1.19.29.31.5.31h0c.21,0,.4-.12.5-.31l3.41-6.65c.71-.06,1.36-.06,1.98-.03.02-.38.06-.75.13-1.12-.62-.04-1.28-.04-1.99.01,1.96-1.34,3.24-3.59,3.24-6.14,0-4.09-3.32-7.42-7.41-7.42s-7.41,3.33-7.41,7.42c0,2.42,1.16,4.57,2.96,5.93-2.17-.22-6.74-.05-8.12,4.77-.01.05-.02.1-.02.16v8.43c0,.31.25.56.56.56h16.58c-.1-.37-.18-.75-.23-1.13Zm-5.51-8.92l-1.46-2.87c.37.14.75.26,1.15.34-.01.07-.02.15-.02.22,0,.46.28.85.67,1.03l-.33,1.28Zm1.33,2.62l-.82-1.62.57-2.19h.54l.8,1.66-1.1,2.14Zm-.91-4.93c0-.21.17-.38.38-.38h1.07c.21,0,.38.17.38.38s-.17.38-.38.38h-1.07c-.21,0-.38-.17-.38-.38Zm2.44,1.96l-.47-.97c.35-.19.6-.56.6-.99,0-.1-.02-.19-.04-.28.45-.11.88-.26,1.29-.45l-1.38,2.68ZM6.25,9.76c0-3.51,2.85-6.36,6.35-6.36s6.35,2.85,6.35,6.36-2.83,6.35-6.32,6.36h-.06c-3.49-.02-6.32-2.86-6.32-6.36Z"/>
</svg>