<?xml version="1.0" encoding="UTF-8"?><svg id="Capa_1" xmlns="http://www.w3.org/2000/svg" viewBox="0 0 31 31"><defs><style>.cls-1{stroke:#fff;stroke-miterlimit:10;stroke-width:.5px;}.cls-1,.cls-2{fill:none;}</style></defs><rect class="cls-2" width="31" height="31"/><g><path class="cls-1" d="m16.75,25.53h3.97c.48,0,.89-.39.89-.89v-1.98h-5.73v1.98c-.01.48.39.89.88.89Z"/><rect class="cls-1" x="15.86" y="14.06" width="5.73" height="7.89"/><path class="cls-1" d="m21.61,11.36c0-.48-.39-.89-.89-.89h-3.97c-.48,0-.89.39-.89.89v1.98h5.73v-1.98h.01Z"/><path class="cls-1" d="m14.07,2.6c.6,0,1.08-.48,1.08-1.08s-.48-1.08-1.08-1.08-1.08.48-1.08,1.08.48,1.08,1.08,1.08Z"/><path class="cls-1" d="m18.02,4.02c.39,0,.72-.33.72-.72s-.33-.72-.72-.72-.72.33-.72.72.31.72.72.72Z"/><path class="cls-1" d="m23.7,25.53h2.26c.76,0,1.38-.62,1.38-1.38v-2.92h-5.01v2.92c-.01.76.61,1.38,1.37,1.38Z"/><polygon class="cls-1" points="27.34 7.61 22.31 7.61 22.31 11.36 22.31 20.51 27.34 20.51 27.34 7.61"/><path class="cls-1" d="m27.34,2.54c0-.76-.62-1.38-1.38-1.38h-2.26c-.76,0-1.38.62-1.38,1.38v4.36h5.01V2.54h.01Z"/><path class="cls-1" d="m10.13,9.21v-.17H3.67v12.9h6.45v-12.73Zm-5.02,2.35c0-.2.16-.36.36-.36s.36.16.36.36v5.01c0,.2-.16.36-.36.36s-.36-.16-.36-.36v-5.01Zm.36,7.88c-.39,0-.72-.33-.72-.72s.33-.72.72-.72.72.33.72.72-.33.72-.72.72Z"/><path class="cls-1" d="m4.93,25.54h3.92c.7,0,1.27-.57,1.27-1.27v-1.6H3.67v1.6c0,.7.56,1.27,1.26,1.27Z"/><path class="cls-1" d="m15.14,9.21c0-.48-.39-.89-.89-.89h-2.53c-.48,0-.89.39-.89.89v4.14h4.3v-4.14h0Z"/><path class="cls-1" d="m10.13,5.3c0-.7-.57-1.27-1.27-1.27h-3.92c-.7,0-1.27.57-1.27,1.27v3.03h6.45v-3.03h.01Z"/><path class="cls-1" d="m11.72,25.54h2.53c.48,0,.89-.39.89-.89v-4.14h-4.3v4.14c0,.48.4.89.89.89Z"/><rect class="cls-1" x="10.83" y="14.06" width="4.3" height="5.73"/><path class="cls-1" d="m26.54,28.4H4.46c-.44,0-.79.48-.79,1.08s.35,1.08.79,1.08h22.09c.44,0,.79-.48.79-1.08,0-.6-.35-1.08-.79-1.08Z"/></g></svg>